<svg viewBox="0 0 800 500" xmlns="http://www.w3.org/2000/svg">
  <defs>
    <linearGradient id="bgGrad" x1="0%" y1="0%" x2="100%" y2="100%">
      <stop offset="0%" style="stop-color:#F3F1FF"/>
      <stop offset="100%" style="stop-color:#E9E5FF"/>
    </linearGradient>
  </defs>
  <rect width="800" height="500" fill="url(#bgGrad)"/>

  <!-- Shield -->
  <g transform="translate(300, 80)">
    <path d="M100 0 L200 30 L200 150 C200 220 100 280 100 280 C100 280 0 220 0 150 L0 30 Z"
          fill="white" stroke="#7C3AED" stroke-width="4"/>
    <path d="M100 20 L180 45 L180 145 C180 200 100 250 100 250 C100 250 20 200 20 145 L20 45 Z"
          fill="#F3F1FF"/>

    <!-- Checkmark -->
    <path d="M50 130 L85 165 L150 90" fill="none" stroke="#7C3AED" stroke-width="12" stroke-linecap="round" stroke-linejoin="round"/>
  </g>

  <!-- Certificate badge -->
  <g transform="translate(520, 200)">
    <circle cx="60" cy="60" r="50" fill="#7C3AED" opacity="0.2"/>
    <circle cx="60" cy="60" r="35" fill="white" stroke="#7C3AED" stroke-width="3"/>
    <text x="60" y="68" text-anchor="middle" fill="#7C3AED" font-size="24" font-weight="bold">✓</text>
  </g>

  <!-- Decorative elements -->
  <circle cx="150" cy="400" r="50" fill="#7C3AED" opacity="0.1"/>
  <circle cx="700" cy="100" r="70" fill="#A78BFA" opacity="0.15"/>
</svg>