<svg viewBox="0 0 800 500" xmlns="http://www.w3.org/2000/svg">
  <defs>
    <linearGradient id="bgGrad" x1="0%" y1="0%" x2="100%" y2="100%">
      <stop offset="0%" style="stop-color:#F3F1FF"/>
      <stop offset="100%" style="stop-color:#E9E5FF"/>
    </linearGradient>
  </defs>
  <rect width="800" height="500" fill="url(#bgGrad)"/>

  <!-- House with disturbance indicators -->
  <g transform="translate(100, 80)">
    <!-- House structure -->
    <polygon points="120,0 240,70 0,70" fill="#6D28D9"/>
    <rect x="10" y="70" width="220" height="150" fill="white" stroke="#7C3AED" stroke-width="3"/>

    <!-- Windows -->
    <rect x="30" y="90" width="50" height="50" fill="#F3F1FF" stroke="#7C3AED" stroke-width="2"/>
    <line x1="55" y1="90" x2="55" y2="140" stroke="#7C3AED" stroke-width="1"/>
    <line x1="30" y1="115" x2="80" y2="115" stroke="#7C3AED" stroke-width="1"/>

    <rect x="160" y="90" width="50" height="50" fill="#F3F1FF" stroke="#7C3AED" stroke-width="2"/>
    <line x1="185" y1="90" x2="185" y2="140" stroke="#7C3AED" stroke-width="1"/>
    <line x1="160" y1="115" x2="210" y2="115" stroke="#7C3AED" stroke-width="1"/>

    <!-- Door -->
    <rect x="95" y="150" width="50" height="70" rx="4" fill="#7C3AED"/>
    <circle cx="130" cy="185" r="4" fill="#A78BFA"/>

    <!-- Noise waves -->
    <path d="M250 100 Q265 90 265 100 Q265 110 280 100" stroke="#7C3AED" stroke-width="3" fill="none" opacity="0.7"/>
    <path d="M260 115 Q280 100 280 115 Q280 130 300 115" stroke="#A78BFA" stroke-width="3" fill="none" opacity="0.5"/>
    <path d="M270 130 Q290 120 290 130 Q290 140 310 130" stroke="#7C3AED" stroke-width="3" fill="none" opacity="0.3"/>

    <!-- Speaker icon -->
    <g transform="translate(260, 60)">
      <circle cx="20" cy="20" r="18" fill="#7C3AED"/>
      <rect x="10" y="14" width="8" height="12" fill="white"/>
      <path d="M18 10 L28 5 L28 35 L18 30 Z" fill="white"/>
    </g>
  </g>

  <!-- Complaint log document -->
  <g transform="translate(400, 60)">
    <rect x="0" y="0" width="240" height="280" rx="12" fill="white" stroke="#7C3AED" stroke-width="3"/>

    <rect x="0" y="0" width="240" height="50" rx="12" fill="#7C3AED"/>
    <rect x="0" y="35" width="240" height="15" fill="#7C3AED"/>
    <text x="120" y="35" text-anchor="middle" fill="white" font-size="14" font-weight="bold" font-family="Arial">COMPLAINT LOG</text>

    <!-- Entries -->
    <g transform="translate(15, 70)">
      <circle cx="10" cy="10" r="8" fill="#7C3AED"/>
      <text x="10" y="14" text-anchor="middle" fill="white" font-size="8" font-weight="bold">1</text>
      <text x="25" y="8" fill="#6D28D9" font-size="10" font-weight="bold" font-family="Arial">Excessive noise</text>
      <text x="25" y="22" fill="#A78BFA" font-size="9" font-family="Arial">01/03/2024 - 11:30 PM</text>
    </g>

    <g transform="translate(15, 115)">
      <circle cx="10" cy="10" r="8" fill="#7C3AED"/>
      <text x="10" y="14" text-anchor="middle" fill="white" font-size="8" font-weight="bold">2</text>
      <text x="25" y="8" fill="#6D28D9" font-size="10" font-weight="bold" font-family="Arial">Rubbish in garden</text>
      <text x="25" y="22" fill="#A78BFA" font-size="9" font-family="Arial">05/03/2024 - Reported</text>
    </g>

    <g transform="translate(15, 160)">
      <circle cx="10" cy="10" r="8" fill="#7C3AED"/>
      <text x="10" y="14" text-anchor="middle" fill="white" font-size="8" font-weight="bold">3</text>
      <text x="25" y="8" fill="#6D28D9" font-size="10" font-weight="bold" font-family="Arial">Parking disputes</text>
      <text x="25" y="22" fill="#A78BFA" font-size="9" font-family="Arial">10/03/2024 - Ongoing</text>
    </g>

    <g transform="translate(15, 205)">
      <circle cx="10" cy="10" r="8" fill="#A78BFA"/>
      <text x="10" y="14" text-anchor="middle" fill="white" font-size="8" font-weight="bold">4</text>
      <text x="25" y="8" fill="#6D28D9" font-size="10" font-weight="bold" font-family="Arial">Late night parties</text>
      <text x="25" y="22" fill="#A78BFA" font-size="9" font-family="Arial">15/03/2024 - Police called</text>
    </g>

    <rect x="15" y="240" width="210" height="25" rx="6" fill="#F3F1FF"/>
    <text x="120" y="257" text-anchor="middle" fill="#7C3AED" font-size="10" font-weight="bold" font-family="Arial">+ Add New Complaint</text>
  </g>

  <!-- Types of ASB -->
  <g transform="translate(660, 80)">
    <rect x="0" y="0" width="100" height="260" rx="12" fill="white" stroke="#7C3AED" stroke-width="2"/>
    <text x="50" y="25" text-anchor="middle" fill="#7C3AED" font-size="11" font-weight="bold" font-family="Arial">ASB</text>
    <text x="50" y="40" text-anchor="middle" fill="#7C3AED" font-size="11" font-weight="bold" font-family="Arial">TYPES</text>

    <g transform="translate(15, 55)">
      <circle cx="15" cy="15" r="12" fill="#7C3AED"/>
      <text x="15" y="19" text-anchor="middle" fill="white" font-size="10">🔊</text>
      <text x="50" y="19" fill="#6D28D9" font-size="8" font-family="Arial">Noise</text>
    </g>

    <g transform="translate(15, 95)">
      <circle cx="15" cy="15" r="12" fill="#7C3AED"/>
      <text x="15" y="19" text-anchor="middle" fill="white" font-size="10">🚗</text>
      <text x="50" y="19" fill="#6D28D9" font-size="8" font-family="Arial">Parking</text>
    </g>

    <g transform="translate(15, 135)">
      <circle cx="15" cy="15" r="12" fill="#7C3AED"/>
      <text x="15" y="19" text-anchor="middle" fill="white" font-size="10">🗑</text>
      <text x="50" y="19" fill="#6D28D9" font-size="8" font-family="Arial">Waste</text>
    </g>

    <g transform="translate(15, 175)">
      <circle cx="15" cy="15" r="12" fill="#7C3AED"/>
      <text x="15" y="19" text-anchor="middle" fill="white" font-size="10">👥</text>
      <text x="50" y="19" fill="#6D28D9" font-size="8" font-family="Arial">Visitors</text>
    </g>

    <g transform="translate(15, 215)">
      <circle cx="15" cy="15" r="12" fill="#7C3AED"/>
      <text x="15" y="19" text-anchor="middle" fill="white" font-size="10">🐕</text>
      <text x="50" y="19" fill="#6D28D9" font-size="8" font-family="Arial">Pets</text>
    </g>
  </g>

  <!-- Action steps -->
  <g transform="translate(100, 370)">
    <rect x="0" y="0" width="600" height="100" rx="15" fill="white" stroke="#7C3AED" stroke-width="2"/>
    <text x="300" y="25" text-anchor="middle" fill="#7C3AED" font-size="12" font-weight="bold" font-family="Arial">DEALING WITH ANTISOCIAL BEHAVIOUR</text>

    <!-- Steps -->
    <g transform="translate(30, 45)">
      <circle cx="20" cy="20" r="18" fill="#7C3AED"/>
      <text x="20" y="26" text-anchor="middle" fill="white" font-size="14" font-weight="bold">1</text>
      <text x="20" y="55" text-anchor="middle" fill="#6D28D9" font-size="9" font-weight="bold" font-family="Arial">Document</text>
    </g>

    <path d="M75 65 L105 65" stroke="#A78BFA" stroke-width="2"/>

    <g transform="translate(120, 45)">
      <circle cx="20" cy="20" r="18" fill="#7C3AED"/>
      <text x="20" y="26" text-anchor="middle" fill="white" font-size="14" font-weight="bold">2</text>
      <text x="20" y="55" text-anchor="middle" fill="#6D28D9" font-size="9" font-weight="bold" font-family="Arial">Warn</text>
    </g>

    <path d="M165 65 L195 65" stroke="#A78BFA" stroke-width="2"/>

    <g transform="translate(210, 45)">
      <circle cx="20" cy="20" r="18" fill="#7C3AED"/>
      <text x="20" y="26" text-anchor="middle" fill="white" font-size="14" font-weight="bold">3</text>
      <text x="20" y="55" text-anchor="middle" fill="#6D28D9" font-size="9" font-weight="bold" font-family="Arial">Mediate</text>
    </g>

    <path d="M255 65 L285 65" stroke="#A78BFA" stroke-width="2"/>

    <g transform="translate(300, 45)">
      <circle cx="20" cy="20" r="18" fill="#7C3AED"/>
      <text x="20" y="26" text-anchor="middle" fill="white" font-size="14" font-weight="bold">4</text>
      <text x="20" y="55" text-anchor="middle" fill="#6D28D9" font-size="9" font-weight="bold" font-family="Arial">Formal</text>
    </g>

    <path d="M345 65 L375 65" stroke="#A78BFA" stroke-width="2"/>

    <g transform="translate(390, 45)">
      <circle cx="20" cy="20" r="18" fill="#7C3AED"/>
      <text x="20" y="26" text-anchor="middle" fill="white" font-size="14" font-weight="bold">5</text>
      <text x="20" y="55" text-anchor="middle" fill="#6D28D9" font-size="9" font-weight="bold" font-family="Arial">Legal</text>
    </g>

    <path d="M435 65 L465 65" stroke="#A78BFA" stroke-width="2"/>

    <g transform="translate(480, 45)">
      <circle cx="20" cy="20" r="18" fill="#6D28D9"/>
      <path d="M12 20 L17 25 L28 14" stroke="white" stroke-width="3" fill="none"/>
      <text x="20" y="55" text-anchor="middle" fill="#6D28D9" font-size="9" font-weight="bold" font-family="Arial">Resolved</text>
    </g>
  </g>

  <!-- Decorative elements -->
  <circle cx="50" cy="50" r="25" fill="#7C3AED" opacity="0.1"/>
  <circle cx="750" cy="450" r="30" fill="#A78BFA" opacity="0.12"/>
</svg>
