<svg viewBox="0 0 800 500" xmlns="http://www.w3.org/2000/svg">
  <defs>
    <linearGradient id="bgGrad" x1="0%" y1="0%" x2="100%" y2="100%">
      <stop offset="0%" style="stop-color:#F3F1FF"/>
      <stop offset="100%" style="stop-color:#E9E5FF"/>
    </linearGradient>
  </defs>
  <rect width="800" height="500" fill="url(#bgGrad)"/>

  <!-- Title -->
  <g transform="translate(80, 25)">
    <text x="320" y="28" text-anchor="middle" fill="#7C3AED" font-size="22" font-weight="bold" font-family="Arial">TENANCY BREACH TYPES</text>
    <text x="320" y="48" text-anchor="middle" fill="#6D28D9" font-size="11" font-family="Arial">Common breaches that may lead to eviction</text>
  </g>

  <!-- Rent arrears breach -->
  <g transform="translate(80, 75)">
    <rect x="0" y="0" width="210" height="190" rx="12" fill="white" stroke="#7C3AED" stroke-width="2"/>
    <rect x="0" y="0" width="210" height="40" rx="12" fill="#7C3AED"/>
    <rect x="0" y="28" width="210" height="12" fill="#7C3AED"/>
    <text x="105" y="28" text-anchor="middle" fill="white" font-size="12" font-weight="bold" font-family="Arial">RENT ARREARS</text>

    <!-- Money icon -->
    <circle cx="105" cy="75" r="25" fill="#F3F1FF" stroke="#7C3AED" stroke-width="2"/>
    <text x="105" y="83" text-anchor="middle" fill="#7C3AED" font-size="20" font-weight="bold" font-family="Arial">£</text>
    <line x1="85" y1="75" x2="125" y2="75" stroke="#A78BFA" stroke-width="2"/>

    <g transform="translate(15, 115)">
      <circle cx="6" cy="6" r="5" fill="#7C3AED"/>
      <text x="16" y="10" fill="#6D28D9" font-size="9" font-family="Arial">Ground 8: 2+ months arrears</text>
    </g>

    <g transform="translate(15, 140)">
      <circle cx="6" cy="6" r="5" fill="#6D28D9"/>
      <text x="16" y="10" fill="#6D28D9" font-size="9" font-family="Arial">Ground 10: Some arrears</text>
    </g>

    <g transform="translate(15, 165)">
      <circle cx="6" cy="6" r="5" fill="#A78BFA"/>
      <text x="16" y="10" fill="#6D28D9" font-size="9" font-family="Arial">Ground 11: Persistent late</text>
    </g>
  </g>

  <!-- Property damage breach -->
  <g transform="translate(300, 75)">
    <rect x="0" y="0" width="210" height="190" rx="12" fill="white" stroke="#7C3AED" stroke-width="2"/>
    <rect x="0" y="0" width="210" height="40" rx="12" fill="#6D28D9"/>
    <rect x="0" y="28" width="210" height="12" fill="#6D28D9"/>
    <text x="105" y="28" text-anchor="middle" fill="white" font-size="12" font-weight="bold" font-family="Arial">PROPERTY DAMAGE</text>

    <!-- Damage icon -->
    <rect x="75" y="55" width="60" height="50" rx="5" fill="#F3F1FF" stroke="#6D28D9" stroke-width="2"/>
    <line x1="80" y1="60" x2="100" y2="90" stroke="#A78BFA" stroke-width="2"/>
    <line x1="100" y1="60" x2="80" y2="90" stroke="#A78BFA" stroke-width="2"/>
    <line x1="110" y1="70" x2="125" y2="85" stroke="#A78BFA" stroke-width="2"/>

    <g transform="translate(15, 115)">
      <circle cx="6" cy="6" r="5" fill="#6D28D9"/>
      <text x="16" y="10" fill="#6D28D9" font-size="9" font-family="Arial">Ground 13: Neglect/waste</text>
    </g>

    <g transform="translate(15, 140)">
      <circle cx="6" cy="6" r="5" fill="#6D28D9"/>
      <text x="16" y="10" fill="#6D28D9" font-size="9" font-family="Arial">Ground 15: Furniture damage</text>
    </g>

    <g transform="translate(15, 165)">
      <circle cx="6" cy="6" r="5" fill="#A78BFA"/>
      <text x="16" y="10" fill="#6D28D9" font-size="9" font-family="Arial">Discretionary grounds</text>
    </g>
  </g>

  <!-- Conduct breach -->
  <g transform="translate(520, 75)">
    <rect x="0" y="0" width="200" height="190" rx="12" fill="white" stroke="#7C3AED" stroke-width="2"/>
    <rect x="0" y="0" width="200" height="40" rx="12" fill="#A78BFA"/>
    <rect x="0" y="28" width="200" height="12" fill="#A78BFA"/>
    <text x="100" y="28" text-anchor="middle" fill="white" font-size="12" font-weight="bold" font-family="Arial">CONDUCT ISSUES</text>

    <!-- Warning icon -->
    <polygon points="100,55 130,100 70,100" fill="#A78BFA"/>
    <polygon points="100,65 120,95 80,95" fill="white"/>
    <text x="100" y="90" text-anchor="middle" fill="#A78BFA" font-size="16" font-weight="bold">!</text>

    <g transform="translate(15, 115)">
      <circle cx="6" cy="6" r="5" fill="#A78BFA"/>
      <text x="16" y="10" fill="#6D28D9" font-size="9" font-family="Arial">Ground 14: ASB/nuisance</text>
    </g>

    <g transform="translate(15, 140)">
      <circle cx="6" cy="6" r="5" fill="#A78BFA"/>
      <text x="16" y="10" fill="#6D28D9" font-size="9" font-family="Arial">Ground 14A: Violence</text>
    </g>

    <g transform="translate(15, 165)">
      <circle cx="6" cy="6" r="5" fill="#A78BFA"/>
      <text x="16" y="10" fill="#6D28D9" font-size="9" font-family="Arial">Ground 17: False statement</text>
    </g>
  </g>

  <!-- Other breaches -->
  <g transform="translate(80, 280)">
    <rect x="0" y="0" width="640" height="170" rx="12" fill="white" stroke="#7C3AED" stroke-width="2"/>
    <text x="320" y="28" text-anchor="middle" fill="#7C3AED" font-size="12" font-weight="bold" font-family="Arial">OTHER COMMON BREACHES</text>

    <g transform="translate(20, 50)">
      <rect x="0" y="0" width="190" height="100" rx="8" fill="#F3F1FF"/>
      <text x="95" y="22" text-anchor="middle" fill="#7C3AED" font-size="10" font-weight="bold" font-family="Arial">SUBLETTING</text>
      <text x="95" y="40" text-anchor="middle" fill="#6D28D9" font-size="9" font-family="Arial">Unauthorized sub-letting</text>
      <text x="95" y="55" text-anchor="middle" fill="#6D28D9" font-size="9" font-family="Arial">or assignment</text>
      <rect x="50" y="65" width="90" height="20" rx="5" fill="#7C3AED"/>
      <text x="95" y="79" text-anchor="middle" fill="white" font-size="9" font-weight="bold" font-family="Arial">Ground 12</text>
    </g>

    <g transform="translate(225, 50)">
      <rect x="0" y="0" width="190" height="100" rx="8" fill="#F3F1FF"/>
      <text x="95" y="22" text-anchor="middle" fill="#6D28D9" font-size="10" font-weight="bold" font-family="Arial">PET VIOLATIONS</text>
      <text x="95" y="40" text-anchor="middle" fill="#6D28D9" font-size="9" font-family="Arial">Keeping pets against</text>
      <text x="95" y="55" text-anchor="middle" fill="#6D28D9" font-size="9" font-family="Arial">tenancy terms</text>
      <rect x="50" y="65" width="90" height="20" rx="5" fill="#6D28D9"/>
      <text x="95" y="79" text-anchor="middle" fill="white" font-size="9" font-weight="bold" font-family="Arial">Ground 12</text>
    </g>

    <g transform="translate(430, 50)">
      <rect x="0" y="0" width="190" height="100" rx="8" fill="#F3F1FF"/>
      <text x="95" y="22" text-anchor="middle" fill="#A78BFA" font-size="10" font-weight="bold" font-family="Arial">OVERCROWDING</text>
      <text x="95" y="40" text-anchor="middle" fill="#6D28D9" font-size="9" font-family="Arial">More occupants than</text>
      <text x="95" y="55" text-anchor="middle" fill="#6D28D9" font-size="9" font-family="Arial">permitted in agreement</text>
      <rect x="50" y="65" width="90" height="20" rx="5" fill="#A78BFA"/>
      <text x="95" y="79" text-anchor="middle" fill="white" font-size="9" font-weight="bold" font-family="Arial">Ground 12</text>
    </g>
  </g>

  <!-- Decorative elements -->
  <circle cx="50" cy="50" r="25" fill="#7C3AED" opacity="0.1"/>
  <circle cx="750" cy="450" r="30" fill="#A78BFA" opacity="0.12"/>
</svg>
