<svg viewBox="0 0 800 500" xmlns="http://www.w3.org/2000/svg">
  <defs>
    <linearGradient id="bgGrad" x1="0%" y1="0%" x2="100%" y2="100%">
      <stop offset="0%" style="stop-color:#F3F1FF"/>
      <stop offset="100%" style="stop-color:#E9E5FF"/>
    </linearGradient>
  </defs>
  <rect width="800" height="500" fill="url(#bgGrad)"/>

  <!-- Main house with shield -->
  <g transform="translate(250, 60)">
    <!-- House -->
    <polygon points="150,0 300,80 0,80" fill="#6D28D9"/>
    <rect x="20" y="80" width="260" height="180" fill="white" stroke="#7C3AED" stroke-width="3"/>

    <!-- Windows -->
    <rect x="50" y="110" width="60" height="60" rx="5" fill="#F3F1FF" stroke="#7C3AED" stroke-width="2"/>
    <line x1="80" y1="110" x2="80" y2="170" stroke="#7C3AED" stroke-width="1"/>
    <line x1="50" y1="140" x2="110" y2="140" stroke="#7C3AED" stroke-width="1"/>

    <rect x="190" y="110" width="60" height="60" rx="5" fill="#F3F1FF" stroke="#7C3AED" stroke-width="2"/>
    <line x1="220" y1="110" x2="220" y2="170" stroke="#7C3AED" stroke-width="1"/>
    <line x1="190" y1="140" x2="250" y2="140" stroke="#7C3AED" stroke-width="1"/>

    <!-- Door -->
    <rect x="120" y="180" width="60" height="80" rx="5" fill="#7C3AED"/>
    <circle cx="165" cy="220" r="5" fill="#A78BFA"/>

    <!-- Chimney -->
    <rect x="230" y="20" width="35" height="60" fill="#7C3AED"/>
  </g>

  <!-- Large shield overlay -->
  <g transform="translate(320, 100)">
    <path d="M80 0 L160 25 L160 110 C160 160 80 200 80 200 C80 200 0 160 0 110 L0 25 Z" fill="white" stroke="#7C3AED" stroke-width="4" opacity="0.95"/>
    <path d="M80 15 L145 35 L145 105 C145 145 80 180 80 180 C80 180 15 145 15 105 L15 35 Z" fill="#F3F1FF"/>
    <text x="80" y="90" text-anchor="middle" fill="#7C3AED" font-size="14" font-weight="bold" font-family="Arial">BUILDINGS</text>
    <text x="80" y="110" text-anchor="middle" fill="#7C3AED" font-size="14" font-weight="bold" font-family="Arial">COVER</text>
    <path d="M55 130 L75 150 L110 100" stroke="#7C3AED" stroke-width="6" fill="none" stroke-linecap="round"/>
  </g>

  <!-- What's covered list - left -->
  <g transform="translate(50, 100)">
    <rect x="0" y="0" width="170" height="220" rx="12" fill="white" stroke="#7C3AED" stroke-width="2"/>
    <rect x="0" y="0" width="170" height="40" rx="12" fill="#7C3AED"/>
    <rect x="0" y="28" width="170" height="12" fill="#7C3AED"/>
    <text x="85" y="28" text-anchor="middle" fill="white" font-size="12" font-weight="bold" font-family="Arial">WHAT'S COVERED</text>

    <g transform="translate(15, 55)">
      <circle cx="10" cy="10" r="8" fill="#7C3AED"/>
      <path d="M6 10 L9 13 L14 7" stroke="white" stroke-width="2" fill="none"/>
      <text x="25" y="14" fill="#6D28D9" font-size="10" font-family="Arial">Walls & roof</text>
    </g>

    <g transform="translate(15, 85)">
      <circle cx="10" cy="10" r="8" fill="#7C3AED"/>
      <path d="M6 10 L9 13 L14 7" stroke="white" stroke-width="2" fill="none"/>
      <text x="25" y="14" fill="#6D28D9" font-size="10" font-family="Arial">Floors & ceilings</text>
    </g>

    <g transform="translate(15, 115)">
      <circle cx="10" cy="10" r="8" fill="#7C3AED"/>
      <path d="M6 10 L9 13 L14 7" stroke="white" stroke-width="2" fill="none"/>
      <text x="25" y="14" fill="#6D28D9" font-size="10" font-family="Arial">Fixtures</text>
    </g>

    <g transform="translate(15, 145)">
      <circle cx="10" cy="10" r="8" fill="#7C3AED"/>
      <path d="M6 10 L9 13 L14 7" stroke="white" stroke-width="2" fill="none"/>
      <text x="25" y="14" fill="#6D28D9" font-size="10" font-family="Arial">Outbuildings</text>
    </g>

    <g transform="translate(15, 175)">
      <circle cx="10" cy="10" r="8" fill="#7C3AED"/>
      <path d="M6 10 L9 13 L14 7" stroke="white" stroke-width="2" fill="none"/>
      <text x="25" y="14" fill="#6D28D9" font-size="10" font-family="Arial">Garages</text>
    </g>
  </g>

  <!-- Perils covered - right -->
  <g transform="translate(580, 100)">
    <rect x="0" y="0" width="170" height="220" rx="12" fill="white" stroke="#7C3AED" stroke-width="2"/>
    <rect x="0" y="0" width="170" height="40" rx="12" fill="#7C3AED"/>
    <rect x="0" y="28" width="170" height="12" fill="#7C3AED"/>
    <text x="85" y="28" text-anchor="middle" fill="white" font-size="12" font-weight="bold" font-family="Arial">PERILS COVERED</text>

    <g transform="translate(15, 55)">
      <circle cx="10" cy="10" r="8" fill="#A78BFA"/>
      <text x="10" y="14" text-anchor="middle" fill="white" font-size="8">🔥</text>
      <text x="25" y="14" fill="#6D28D9" font-size="10" font-family="Arial">Fire</text>
    </g>

    <g transform="translate(15, 85)">
      <circle cx="10" cy="10" r="8" fill="#A78BFA"/>
      <text x="10" y="14" text-anchor="middle" fill="white" font-size="8">💧</text>
      <text x="25" y="14" fill="#6D28D9" font-size="10" font-family="Arial">Flood</text>
    </g>

    <g transform="translate(15, 115)">
      <circle cx="10" cy="10" r="8" fill="#A78BFA"/>
      <text x="10" y="14" text-anchor="middle" fill="white" font-size="8">🌪</text>
      <text x="25" y="14" fill="#6D28D9" font-size="10" font-family="Arial">Storm damage</text>
    </g>

    <g transform="translate(15, 145)">
      <circle cx="10" cy="10" r="8" fill="#A78BFA"/>
      <text x="10" y="14" text-anchor="middle" fill="white" font-size="8">💥</text>
      <text x="25" y="14" fill="#6D28D9" font-size="10" font-family="Arial">Impact damage</text>
    </g>

    <g transform="translate(15, 175)">
      <circle cx="10" cy="10" r="8" fill="#A78BFA"/>
      <text x="10" y="14" text-anchor="middle" fill="white" font-size="8">🏚</text>
      <text x="25" y="14" fill="#6D28D9" font-size="10" font-family="Arial">Subsidence</text>
    </g>
  </g>

  <!-- Bottom info bar -->
  <g transform="translate(100, 350)">
    <rect x="0" y="0" width="600" height="120" rx="15" fill="white" stroke="#7C3AED" stroke-width="2"/>
    <text x="300" y="30" text-anchor="middle" fill="#7C3AED" font-size="14" font-weight="bold" font-family="Arial">LANDLORD REQUIREMENT</text>

    <g transform="translate(40, 50)">
      <circle cx="20" cy="20" r="18" fill="#7C3AED"/>
      <text x="20" y="26" text-anchor="middle" fill="white" font-size="16" font-weight="bold">!</text>
    </g>
    <text x="80" y="60" fill="#6D28D9" font-size="11" font-family="Arial">Buildings insurance is typically a mortgage requirement</text>
    <text x="80" y="80" fill="#A78BFA" font-size="10" font-family="Arial">Covers the structure and permanent fixtures of the property</text>

    <rect x="420" y="45" width="150" height="50" rx="8" fill="#F3F1FF"/>
    <text x="495" y="68" text-anchor="middle" fill="#7C3AED" font-size="10" font-weight="bold" font-family="Arial">Rebuild cost</text>
    <text x="495" y="85" text-anchor="middle" fill="#6D28D9" font-size="10" font-family="Arial">Not market value</text>
  </g>

  <!-- Decorative elements -->
  <circle cx="50" cy="50" r="25" fill="#7C3AED" opacity="0.1"/>
  <circle cx="750" cy="50" r="30" fill="#A78BFA" opacity="0.12"/>
</svg>
