<svg viewBox="0 0 800 500" xmlns="http://www.w3.org/2000/svg">
  <defs>
    <linearGradient id="bgGrad" x1="0%" y1="0%" x2="100%" y2="100%">
      <stop offset="0%" style="stop-color:#F3F1FF"/>
      <stop offset="100%" style="stop-color:#E9E5FF"/>
    </linearGradient>
  </defs>
  <rect width="800" height="500" fill="url(#bgGrad)"/>

  <!-- Title -->
  <text x="400" y="35" text-anchor="middle" fill="#6D28D9" font-size="22" font-weight="bold" font-family="Arial">CORPORATE LETTING SUCCESS</text>
  <text x="400" y="55" text-anchor="middle" fill="#7C3AED" font-size="11" font-family="Arial">Maximizing success with corporate tenants</text>

  <!-- Success icon -->
  <g transform="translate(60, 80)">
    <rect x="0" y="0" width="200" height="175" rx="12" fill="white" stroke="#7C3AED" stroke-width="2"/>
    <g transform="translate(25, 8)">
      <!-- Trophy -->
      <path d="M45 20 L45 45 Q45 65 60 70 L60 80 L50 85 L70 85 L60 80 L60 70 Q75 65 75 45 L75 20 Z" fill="#F59E0B" stroke="#92400E" stroke-width="2"/>
      <ellipse cx="60" cy="20" rx="15" ry="5" fill="#FDE68A"/>
      <!-- Handles -->
      <path d="M45 30 Q30 30 30 45 Q30 55 45 55" fill="none" stroke="#92400E" stroke-width="2"/>
      <path d="M75 30 Q90 30 90 45 Q90 55 75 55" fill="none" stroke="#92400E" stroke-width="2"/>
      <!-- Star -->
      <polygon points="60,35 62,42 70,42 64,47 66,55 60,50 54,55 56,47 50,42 58,42" fill="#92400E"/>
    </g>
    <text x="100" y="125" text-anchor="middle" fill="#6D28D9" font-size="11" font-weight="bold">SUCCESS</text>
    <text x="100" y="143" text-anchor="middle" fill="#7C3AED" font-size="9">Corporate</text>
    <text x="100" y="158" text-anchor="middle" fill="#7C3AED" font-size="9">letting</text>
  </g>

  <!-- Success factors -->
  <g transform="translate(280, 80)">
    <rect x="0" y="0" width="240" height="175" rx="12" fill="white" stroke="#6D28D9" stroke-width="2"/>
    <rect x="0" y="0" width="240" height="32" rx="12" fill="#6D28D9"/>
    <rect x="0" y="20" width="240" height="12" fill="#6D28D9"/>
    <text x="120" y="22" text-anchor="middle" fill="white" font-size="10" font-weight="bold">SUCCESS FACTORS</text>
    <g transform="translate(15, 45)">
      <rect x="0" y="0" width="14" height="14" rx="3" fill="#7C3AED"/>
      <path d="M3 7 L6 10 L11 4" stroke="white" stroke-width="2" fill="none"/>
      <text x="22" y="11" fill="#6D28D9" font-size="9">High-quality furnishing</text>
    </g>
    <g transform="translate(15, 68)">
      <rect x="0" y="0" width="14" height="14" rx="3" fill="#7C3AED"/>
      <path d="M3 7 L6 10 L11 4" stroke="white" stroke-width="2" fill="none"/>
      <text x="22" y="11" fill="#6D28D9" font-size="9">Fast broadband</text>
    </g>
    <g transform="translate(15, 91)">
      <rect x="0" y="0" width="14" height="14" rx="3" fill="#6D28D9"/>
      <path d="M3 7 L6 10 L11 4" stroke="white" stroke-width="2" fill="none"/>
      <text x="22" y="11" fill="#6D28D9" font-size="9">Convenient location</text>
    </g>
    <g transform="translate(15, 114)">
      <rect x="0" y="0" width="14" height="14" rx="3" fill="#6D28D9"/>
      <path d="M3 7 L6 10 L11 4" stroke="white" stroke-width="2" fill="none"/>
      <text x="22" y="11" fill="#6D28D9" font-size="9">Professional service</text>
    </g>
    <g transform="translate(15, 137)">
      <text x="0" y="11" fill="#7C3AED" font-size="9" font-weight="bold">Responsive maintenance</text>
    </g>
  </g>

  <!-- Building relationships -->
  <g transform="translate(540, 80)">
    <rect x="0" y="0" width="200" height="175" rx="12" fill="white" stroke="#22C55E" stroke-width="2"/>
    <rect x="0" y="0" width="200" height="32" rx="12" fill="#22C55E"/>
    <rect x="0" y="20" width="200" height="12" fill="#22C55E"/>
    <text x="100" y="22" text-anchor="middle" fill="white" font-size="10" font-weight="bold">BUILDING RELATIONSHIPS</text>
    <g transform="translate(15, 48)">
      <circle cx="7" cy="7" r="5" fill="#22C55E"/>
      <text x="22" y="11" fill="#6D28D9" font-size="9">Relocation agents</text>
    </g>
    <g transform="translate(15, 71)">
      <circle cx="7" cy="7" r="5" fill="#22C55E"/>
      <text x="22" y="11" fill="#6D28D9" font-size="9">HR departments</text>
    </g>
    <g transform="translate(15, 94)">
      <circle cx="7" cy="7" r="5" fill="#065F46"/>
      <text x="22" y="11" fill="#6D28D9" font-size="9">Corporate agents</text>
    </g>
    <g transform="translate(15, 117)">
      <circle cx="7" cy="7" r="5" fill="#065F46"/>
      <text x="22" y="11" fill="#6D28D9" font-size="9">Direct marketing</text>
    </g>
    <g transform="translate(15, 140)">
      <text x="0" y="11" fill="#22C55E" font-size="9" font-weight="bold">Repeat business</text>
    </g>
  </g>

  <!-- Details section -->
  <g transform="translate(60, 275)">
    <rect x="0" y="0" width="680" height="170" rx="12" fill="white" stroke="#6D28D9" stroke-width="2"/>
    <rect x="0" y="0" width="680" height="32" rx="12" fill="#6D28D9"/>
    <rect x="0" y="20" width="680" height="12" fill="#6D28D9"/>
    <text x="340" y="22" text-anchor="middle" fill="white" font-size="10" font-weight="bold">CORPORATE SUCCESS STRATEGIES</text>
    <g transform="translate(20, 48)">
      <rect x="0" y="0" width="200" height="105" rx="8" fill="#7C3AED" opacity="0.1"/>
      <text x="100" y="20" text-anchor="middle" fill="#7C3AED" font-size="10" font-weight="bold">PROPERTY SPEC</text>
      <text x="100" y="42" text-anchor="middle" fill="#6D28D9" font-size="8">Executive style furniture</text>
      <text x="100" y="55" text-anchor="middle" fill="#6D28D9" font-size="8">Quality appliances</text>
      <text x="100" y="75" text-anchor="middle" fill="#6D28D9" font-size="8">Smart TV and WiFi</text>
      <text x="100" y="94" text-anchor="middle" fill="#7C3AED" font-size="8" font-weight="bold">Home office setup</text>
    </g>
    <g transform="translate(240, 48)">
      <rect x="0" y="0" width="200" height="105" rx="8" fill="#22C55E" opacity="0.1"/>
      <text x="100" y="20" text-anchor="middle" fill="#22C55E" font-size="10" font-weight="bold">SERVICE LEVEL</text>
      <text x="100" y="42" text-anchor="middle" fill="#6D28D9" font-size="8">24-hour response</text>
      <text x="100" y="55" text-anchor="middle" fill="#6D28D9" font-size="8">Regular cleaning option</text>
      <text x="100" y="75" text-anchor="middle" fill="#6D28D9" font-size="8">Welcome pack</text>
      <text x="100" y="94" text-anchor="middle" fill="#22C55E" font-size="8" font-weight="bold">Concierge services</text>
    </g>
    <g transform="translate(460, 48)">
      <rect x="0" y="0" width="200" height="105" rx="8" fill="#3B82F6" opacity="0.1"/>
      <text x="100" y="20" text-anchor="middle" fill="#3B82F6" font-size="10" font-weight="bold">PRICING</text>
      <text x="100" y="42" text-anchor="middle" fill="#6D28D9" font-size="8">Competitive corporate rates</text>
      <text x="100" y="55" text-anchor="middle" fill="#6D28D9" font-size="8">All-inclusive options</text>
      <text x="100" y="75" text-anchor="middle" fill="#6D28D9" font-size="8">Flexible terms</text>
      <text x="100" y="94" text-anchor="middle" fill="#3B82F6" font-size="8" font-weight="bold">Extension discounts</text>
    </g>
  </g>

  <circle cx="40" cy="40" r="20" fill="#7C3AED" opacity="0.1"/>
  <circle cx="760" cy="460" r="25" fill="#6D28D9" opacity="0.12"/>
</svg>
