<svg viewBox="0 0 800 500" xmlns="http://www.w3.org/2000/svg">
  <defs>
    <linearGradient id="bgGrad" x1="0%" y1="0%" x2="100%" y2="100%">
      <stop offset="0%" style="stop-color:#F3F1FF"/>
      <stop offset="100%" style="stop-color:#E9E5FF"/>
    </linearGradient>
  </defs>
  <rect width="800" height="500" fill="url(#bgGrad)"/>

  <!-- Title -->
  <text x="400" y="35" text-anchor="middle" fill="#6D28D9" font-size="22" font-weight="bold" font-family="Arial">CORPORATE LETTING MARKETING</text>
  <text x="400" y="55" text-anchor="middle" fill="#7C3AED" font-size="11" font-family="Arial">Marketing strategies for corporate tenants</text>

  <!-- Marketing icon -->
  <g transform="translate(60, 80)">
    <rect x="0" y="0" width="200" height="175" rx="12" fill="white" stroke="#7C3AED" stroke-width="2"/>
    <g transform="translate(25, 8)">
      <!-- Network/connections -->
      <circle cx="60" cy="40" r="18" fill="#E9E5FF" stroke="#6D28D9" stroke-width="2"/>
      <text x="60" y="45" text-anchor="middle" fill="#6D28D9" font-size="16" font-weight="bold">B</text>
      <circle cx="30" cy="65" r="10" fill="#7C3AED"/>
      <circle cx="90" cy="65" r="10" fill="#7C3AED"/>
      <circle cx="30" cy="20" r="10" fill="#7C3AED"/>
      <circle cx="90" cy="20" r="10" fill="#7C3AED"/>
      <line x1="45" y1="30" x2="35" y2="25" stroke="#7C3AED" stroke-width="2"/>
      <line x1="75" y1="30" x2="85" y2="25" stroke="#7C3AED" stroke-width="2"/>
      <line x1="45" y1="50" x2="35" y2="60" stroke="#7C3AED" stroke-width="2"/>
      <line x1="75" y1="50" x2="85" y2="60" stroke="#7C3AED" stroke-width="2"/>
    </g>
    <text x="100" y="125" text-anchor="middle" fill="#6D28D9" font-size="11" font-weight="bold">CORPORATE</text>
    <text x="100" y="143" text-anchor="middle" fill="#7C3AED" font-size="9">Marketing</text>
    <text x="100" y="158" text-anchor="middle" fill="#7C3AED" font-size="9">strategies</text>
  </g>

  <!-- Channels -->
  <g transform="translate(280, 80)">
    <rect x="0" y="0" width="240" height="175" rx="12" fill="white" stroke="#6D28D9" stroke-width="2"/>
    <rect x="0" y="0" width="240" height="32" rx="12" fill="#6D28D9"/>
    <rect x="0" y="20" width="240" height="12" fill="#6D28D9"/>
    <text x="120" y="22" text-anchor="middle" fill="white" font-size="10" font-weight="bold">KEY CHANNELS</text>
    <g transform="translate(15, 45)">
      <rect x="0" y="0" width="14" height="14" rx="3" fill="#7C3AED"/>
      <path d="M3 7 L6 10 L11 4" stroke="white" stroke-width="2" fill="none"/>
      <text x="22" y="11" fill="#6D28D9" font-size="9">Relocation agents</text>
    </g>
    <g transform="translate(15, 68)">
      <rect x="0" y="0" width="14" height="14" rx="3" fill="#7C3AED"/>
      <path d="M3 7 L6 10 L11 4" stroke="white" stroke-width="2" fill="none"/>
      <text x="22" y="11" fill="#6D28D9" font-size="9">Corporate housing agents</text>
    </g>
    <g transform="translate(15, 91)">
      <rect x="0" y="0" width="14" height="14" rx="3" fill="#6D28D9"/>
      <path d="M3 7 L6 10 L11 4" stroke="white" stroke-width="2" fill="none"/>
      <text x="22" y="11" fill="#6D28D9" font-size="9">HR departments direct</text>
    </g>
    <g transform="translate(15, 114)">
      <rect x="0" y="0" width="14" height="14" rx="3" fill="#6D28D9"/>
      <path d="M3 7 L6 10 L11 4" stroke="white" stroke-width="2" fill="none"/>
      <text x="22" y="11" fill="#6D28D9" font-size="9">LinkedIn networking</text>
    </g>
    <g transform="translate(15, 137)">
      <text x="0" y="11" fill="#7C3AED" font-size="9" font-weight="bold">Serviced apartment sites</text>
    </g>
  </g>

  <!-- Key strategies -->
  <g transform="translate(540, 80)">
    <rect x="0" y="0" width="200" height="175" rx="12" fill="white" stroke="#22C55E" stroke-width="2"/>
    <rect x="0" y="0" width="200" height="32" rx="12" fill="#22C55E"/>
    <rect x="0" y="20" width="200" height="12" fill="#22C55E"/>
    <text x="100" y="22" text-anchor="middle" fill="white" font-size="10" font-weight="bold">KEY STRATEGIES</text>
    <g transform="translate(15, 48)">
      <circle cx="7" cy="7" r="5" fill="#22C55E"/>
      <text x="22" y="11" fill="#6D28D9" font-size="9">Professional branding</text>
    </g>
    <g transform="translate(15, 71)">
      <circle cx="7" cy="7" r="5" fill="#22C55E"/>
      <text x="22" y="11" fill="#6D28D9" font-size="9">Quality photography</text>
    </g>
    <g transform="translate(15, 94)">
      <circle cx="7" cy="7" r="5" fill="#065F46"/>
      <text x="22" y="11" fill="#6D28D9" font-size="9">Detailed specifications</text>
    </g>
    <g transform="translate(15, 117)">
      <circle cx="7" cy="7" r="5" fill="#065F46"/>
      <text x="22" y="11" fill="#6D28D9" font-size="9">Flexible terms offered</text>
    </g>
    <g transform="translate(15, 140)">
      <text x="0" y="11" fill="#22C55E" font-size="9" font-weight="bold">Relationship building</text>
    </g>
  </g>

  <!-- Details section -->
  <g transform="translate(60, 275)">
    <rect x="0" y="0" width="680" height="170" rx="12" fill="white" stroke="#6D28D9" stroke-width="2"/>
    <rect x="0" y="0" width="680" height="32" rx="12" fill="#6D28D9"/>
    <rect x="0" y="20" width="680" height="12" fill="#6D28D9"/>
    <text x="340" y="22" text-anchor="middle" fill="white" font-size="10" font-weight="bold">CORPORATE MARKETING ESSENTIALS</text>
    <g transform="translate(20, 48)">
      <rect x="0" y="0" width="200" height="105" rx="8" fill="#7C3AED" opacity="0.1"/>
      <text x="100" y="20" text-anchor="middle" fill="#7C3AED" font-size="10" font-weight="bold">MATERIALS</text>
      <text x="100" y="42" text-anchor="middle" fill="#6D28D9" font-size="8">Professional brochure</text>
      <text x="100" y="55" text-anchor="middle" fill="#6D28D9" font-size="8">Virtual property tour</text>
      <text x="100" y="75" text-anchor="middle" fill="#6D28D9" font-size="8">Detailed floor plans</text>
      <text x="100" y="94" text-anchor="middle" fill="#7C3AED" font-size="8" font-weight="bold">Company profile</text>
    </g>
    <g transform="translate(240, 48)">
      <rect x="0" y="0" width="200" height="105" rx="8" fill="#22C55E" opacity="0.1"/>
      <text x="100" y="20" text-anchor="middle" fill="#22C55E" font-size="10" font-weight="bold">NETWORKING</text>
      <text x="100" y="42" text-anchor="middle" fill="#6D28D9" font-size="8">Business events</text>
      <text x="100" y="55" text-anchor="middle" fill="#6D28D9" font-size="8">Chamber of Commerce</text>
      <text x="100" y="75" text-anchor="middle" fill="#6D28D9" font-size="8">Industry associations</text>
      <text x="100" y="94" text-anchor="middle" fill="#22C55E" font-size="8" font-weight="bold">Referral partnerships</text>
    </g>
    <g transform="translate(460, 48)">
      <rect x="0" y="0" width="200" height="105" rx="8" fill="#3B82F6" opacity="0.1"/>
      <text x="100" y="20" text-anchor="middle" fill="#3B82F6" font-size="10" font-weight="bold">ONLINE PRESENCE</text>
      <text x="100" y="42" text-anchor="middle" fill="#6D28D9" font-size="8">Dedicated website</text>
      <text x="100" y="55" text-anchor="middle" fill="#6D28D9" font-size="8">LinkedIn company page</text>
      <text x="100" y="75" text-anchor="middle" fill="#6D28D9" font-size="8">Google Business listing</text>
      <text x="100" y="94" text-anchor="middle" fill="#3B82F6" font-size="8" font-weight="bold">Client testimonials</text>
    </g>
  </g>

  <circle cx="40" cy="40" r="20" fill="#7C3AED" opacity="0.1"/>
  <circle cx="760" cy="460" r="25" fill="#6D28D9" opacity="0.12"/>
</svg>
