<svg viewBox="0 0 800 500" xmlns="http://www.w3.org/2000/svg">
  <defs>
    <linearGradient id="bgGrad" x1="0%" y1="0%" x2="100%" y2="100%">
      <stop offset="0%" style="stop-color:#EFF6FF"/>
      <stop offset="100%" style="stop-color:#DBEAFE"/>
    </linearGradient>
  </defs>
  <rect width="800" height="500" fill="url(#bgGrad)"/>

  <!-- Title -->
  <text x="400" y="35" text-anchor="middle" fill="#1E40AF" font-size="22" font-weight="bold" font-family="Arial">HOUSING OFFENCE CONVICTIONS</text>
  <text x="400" y="55" text-anchor="middle" fill="#3B82F6" font-size="11" font-family="Arial">Criminal penalties for landlord housing offences</text>

  <!-- Gavel icon -->
  <g transform="translate(60, 80)">
    <rect x="0" y="0" width="200" height="175" rx="12" fill="white" stroke="#3B82F6" stroke-width="2"/>
    <g transform="translate(25, 8)">
      <!-- Gavel -->
      <rect x="40" y="50" width="50" height="20" rx="5" fill="#1E40AF"/>
      <rect x="58" y="25" width="14" height="30" rx="3" fill="#3B82F6"/>
      <!-- Base -->
      <ellipse cx="65" cy="85" rx="35" ry="8" fill="#DBEAFE" stroke="#1E40AF" stroke-width="2"/>
      <rect x="30" y="78" width="70" height="10" fill="#DBEAFE" stroke="#1E40AF" stroke-width="2"/>
    </g>
    <text x="100" y="125" text-anchor="middle" fill="#1E40AF" font-size="11" font-weight="bold">CONVICTION</text>
    <text x="100" y="143" text-anchor="middle" fill="#3B82F6" font-size="9">Criminal</text>
    <text x="100" y="158" text-anchor="middle" fill="#3B82F6" font-size="9">penalties</text>
  </g>

  <!-- Offences -->
  <g transform="translate(280, 80)">
    <rect x="0" y="0" width="240" height="175" rx="12" fill="white" stroke="#1E40AF" stroke-width="2"/>
    <rect x="0" y="0" width="240" height="32" rx="12" fill="#1E40AF"/>
    <rect x="0" y="20" width="240" height="12" fill="#1E40AF"/>
    <text x="120" y="22" text-anchor="middle" fill="white" font-size="10" font-weight="bold">COMMON OFFENCES</text>
    <g transform="translate(15, 45)">
      <rect x="0" y="0" width="14" height="14" rx="3" fill="#EF4444"/>
      <path d="M3 7 L6 10 L11 4" stroke="white" stroke-width="2" fill="none"/>
      <text x="22" y="11" fill="#1E40AF" font-size="9">Illegal eviction</text>
    </g>
    <g transform="translate(15, 68)">
      <rect x="0" y="0" width="14" height="14" rx="3" fill="#EF4444"/>
      <path d="M3 7 L6 10 L11 4" stroke="white" stroke-width="2" fill="none"/>
      <text x="22" y="11" fill="#1E40AF" font-size="9">Harassment</text>
    </g>
    <g transform="translate(15, 91)">
      <rect x="0" y="0" width="14" height="14" rx="3" fill="#F59E0B"/>
      <path d="M3 7 L6 10 L11 4" stroke="white" stroke-width="2" fill="none"/>
      <text x="22" y="11" fill="#1E40AF" font-size="9">Unlicensed HMO</text>
    </g>
    <g transform="translate(15, 114)">
      <rect x="0" y="0" width="14" height="14" rx="3" fill="#F59E0B"/>
      <path d="M3 7 L6 10 L11 4" stroke="white" stroke-width="2" fill="none"/>
      <text x="22" y="11" fill="#1E40AF" font-size="9">Safety breaches</text>
    </g>
    <g transform="translate(15, 137)">
      <text x="0" y="11" fill="#3B82F6" font-size="9" font-weight="bold">Deposit protection breach</text>
    </g>
  </g>

  <!-- Penalties -->
  <g transform="translate(540, 80)">
    <rect x="0" y="0" width="200" height="175" rx="12" fill="white" stroke="#EF4444" stroke-width="2"/>
    <rect x="0" y="0" width="200" height="32" rx="12" fill="#EF4444"/>
    <rect x="0" y="20" width="200" height="12" fill="#EF4444"/>
    <text x="100" y="22" text-anchor="middle" fill="white" font-size="10" font-weight="bold">POTENTIAL PENALTIES</text>
    <g transform="translate(15, 48)">
      <circle cx="7" cy="7" r="5" fill="#EF4444"/>
      <text x="22" y="11" fill="#1E40AF" font-size="9">Unlimited fines</text>
    </g>
    <g transform="translate(15, 71)">
      <circle cx="7" cy="7" r="5" fill="#EF4444"/>
      <text x="22" y="11" fill="#1E40AF" font-size="9">Prison up to 2 years</text>
    </g>
    <g transform="translate(15, 94)">
      <circle cx="7" cy="7" r="5" fill="#991B1B"/>
      <text x="22" y="11" fill="#1E40AF" font-size="9">Criminal record</text>
    </g>
    <g transform="translate(15, 117)">
      <circle cx="7" cy="7" r="5" fill="#991B1B"/>
      <text x="22" y="11" fill="#1E40AF" font-size="9">Banning order</text>
    </g>
    <g transform="translate(15, 140)">
      <text x="0" y="11" fill="#EF4444" font-size="9" font-weight="bold">Rogue landlord database</text>
    </g>
  </g>

  <!-- Details section -->
  <g transform="translate(60, 275)">
    <rect x="0" y="0" width="680" height="170" rx="12" fill="white" stroke="#1E40AF" stroke-width="2"/>
    <rect x="0" y="0" width="680" height="32" rx="12" fill="#1E40AF"/>
    <rect x="0" y="20" width="680" height="12" fill="#1E40AF"/>
    <text x="340" y="22" text-anchor="middle" fill="white" font-size="10" font-weight="bold">CONVICTION CONSEQUENCES</text>
    <g transform="translate(20, 48)">
      <rect x="0" y="0" width="200" height="105" rx="8" fill="#3B82F6" opacity="0.1"/>
      <text x="100" y="20" text-anchor="middle" fill="#3B82F6" font-size="10" font-weight="bold">IMMEDIATE</text>
      <text x="100" y="42" text-anchor="middle" fill="#1E40AF" font-size="8">Court appearance</text>
      <text x="100" y="55" text-anchor="middle" fill="#1E40AF" font-size="8">Legal representation costs</text>
      <text x="100" y="75" text-anchor="middle" fill="#1E40AF" font-size="8">Fine or sentence</text>
      <text x="100" y="94" text-anchor="middle" fill="#3B82F6" font-size="8" font-weight="bold">Costs order</text>
    </g>
    <g transform="translate(240, 48)">
      <rect x="0" y="0" width="200" height="105" rx="8" fill="#EF4444" opacity="0.1"/>
      <text x="100" y="20" text-anchor="middle" fill="#EF4444" font-size="10" font-weight="bold">LONG-TERM</text>
      <text x="100" y="42" text-anchor="middle" fill="#1E40AF" font-size="8">Rent repayment orders</text>
      <text x="100" y="55" text-anchor="middle" fill="#1E40AF" font-size="8">Difficulty getting mortgage</text>
      <text x="100" y="75" text-anchor="middle" fill="#1E40AF" font-size="8">Insurance issues</text>
      <text x="100" y="94" text-anchor="middle" fill="#EF4444" font-size="8" font-weight="bold">Professional impact</text>
    </g>
    <g transform="translate(460, 48)">
      <rect x="0" y="0" width="200" height="105" rx="8" fill="#22C55E" opacity="0.1"/>
      <text x="100" y="20" text-anchor="middle" fill="#22C55E" font-size="10" font-weight="bold">PREVENTION</text>
      <text x="100" y="42" text-anchor="middle" fill="#1E40AF" font-size="8">Know your legal duties</text>
      <text x="100" y="55" text-anchor="middle" fill="#1E40AF" font-size="8">Maintain compliance</text>
      <text x="100" y="75" text-anchor="middle" fill="#1E40AF" font-size="8">Keep proper records</text>
      <text x="100" y="94" text-anchor="middle" fill="#22C55E" font-size="8" font-weight="bold">Get professional advice</text>
    </g>
  </g>

  <circle cx="40" cy="40" r="20" fill="#1E40AF" opacity="0.1"/>
  <circle cx="760" cy="460" r="25" fill="#3B82F6" opacity="0.12"/>
</svg>
