<svg viewBox="0 0 800 500" xmlns="http://www.w3.org/2000/svg">
  <defs>
    <linearGradient id="bgGrad" x1="0%" y1="0%" x2="100%" y2="100%">
      <stop offset="0%" style="stop-color:#F3F1FF"/>
      <stop offset="100%" style="stop-color:#E9E5FF"/>
    </linearGradient>
  </defs>
  <rect width="800" height="500" fill="url(#bgGrad)"/>

  <!-- Document stack -->
  <g transform="translate(250, 80)">
    <!-- Back document -->
    <rect x="30" y="30" width="250" height="320" rx="8" fill="white" stroke="#94A3B8" stroke-width="1" opacity="0.5"/>
    <!-- Middle document -->
    <rect x="15" y="15" width="250" height="320" rx="8" fill="white" stroke="#94A3B8" stroke-width="1" opacity="0.7"/>
    <!-- Front document -->
    <rect x="0" y="0" width="250" height="320" rx="8" fill="white" stroke="#7C3AED" stroke-width="2"/>

    <!-- Document content -->
    <rect x="20" y="20" width="60" height="8" rx="4" fill="#7C3AED"/>
    <rect x="20" y="40" width="210" height="6" rx="3" fill="#94A3B8" opacity="0.3"/>
    <rect x="20" y="55" width="180" height="6" rx="3" fill="#94A3B8" opacity="0.3"/>
    <rect x="20" y="70" width="200" height="6" rx="3" fill="#94A3B8" opacity="0.3"/>

    <!-- Divider -->
    <line x1="20" y1="95" x2="230" y2="95" stroke="#F3F1FF" stroke-width="2"/>

    <!-- More content -->
    <rect x="20" y="110" width="190" height="6" rx="3" fill="#94A3B8" opacity="0.3"/>
    <rect x="20" y="125" width="210" height="6" rx="3" fill="#94A3B8" opacity="0.3"/>
    <rect x="20" y="140" width="170" height="6" rx="3" fill="#94A3B8" opacity="0.3"/>

    <!-- Checkbox items -->
    <rect x="20" y="170" width="16" height="16" rx="3" stroke="#7C3AED" stroke-width="2" fill="none"/>
    <rect x="45" y="173" width="140" height="6" rx="3" fill="#94A3B8" opacity="0.3"/>
    <rect x="20" y="195" width="16" height="16" rx="3" stroke="#7C3AED" stroke-width="2" fill="#7C3AED"/>
    <path d="M24 203 L28 207 L36 199" stroke="white" stroke-width="2" fill="none"/>
    <rect x="45" y="198" width="160" height="6" rx="3" fill="#94A3B8" opacity="0.3"/>

    <!-- Signature area -->
    <rect x="20" y="260" width="100" height="40" rx="4" stroke="#7C3AED" stroke-width="1" stroke-dasharray="4" fill="none"/>
    <path d="M40 285 Q60 270 80 285 Q100 300 120 280" stroke="#7C3AED" stroke-width="2" fill="none" opacity="0.6"/>
  </g>

  <!-- Decorative elements -->
  <circle cx="650" cy="100" r="60" fill="#7C3AED" opacity="0.1"/>
  <circle cx="100" cy="400" r="80" fill="#A78BFA" opacity="0.1"/>
</svg>