<svg viewBox="0 0 800 500" xmlns="http://www.w3.org/2000/svg">
  <defs>
    <linearGradient id="bgGrad" x1="0%" y1="0%" x2="100%" y2="100%">
      <stop offset="0%" style="stop-color:#F3F1FF"/>
      <stop offset="100%" style="stop-color:#E9E5FF"/>
    </linearGradient>
  </defs>
  <rect width="800" height="500" fill="url(#bgGrad)"/>

  <!-- Courthouse building detailed -->
  <g transform="translate(250, 50)">
    <!-- Pediment with detail -->
    <polygon points="150,0 300,80 0,80" fill="#6D28D9"/>
    <polygon points="150,15 280,75 20,75" fill="#7C3AED"/>

    <!-- Scales of justice in pediment -->
    <g transform="translate(130, 30)">
      <line x1="20" y1="10" x2="20" y2="30" stroke="white" stroke-width="2"/>
      <line x1="5" y1="18" x2="35" y2="18" stroke="white" stroke-width="2"/>
      <circle cx="5" cy="25" r="6" fill="white" opacity="0.8"/>
      <circle cx="35" cy="25" r="6" fill="white" opacity="0.8"/>
    </g>

    <!-- Main building -->
    <rect x="10" y="80" width="280" height="180" fill="white" stroke="#7C3AED" stroke-width="3"/>

    <!-- Columns -->
    <rect x="30" y="90" width="25" height="160" fill="#F3F1FF" stroke="#7C3AED" stroke-width="2"/>
    <ellipse cx="42" cy="90" rx="12" ry="5" fill="#7C3AED"/>

    <rect x="80" y="90" width="25" height="160" fill="#F3F1FF" stroke="#7C3AED" stroke-width="2"/>
    <ellipse cx="92" cy="90" rx="12" ry="5" fill="#7C3AED"/>

    <rect x="195" y="90" width="25" height="160" fill="#F3F1FF" stroke="#7C3AED" stroke-width="2"/>
    <ellipse cx="207" cy="90" rx="12" ry="5" fill="#7C3AED"/>

    <rect x="245" y="90" width="25" height="160" fill="#F3F1FF" stroke="#7C3AED" stroke-width="2"/>
    <ellipse cx="257" cy="90" rx="12" ry="5" fill="#7C3AED"/>

    <!-- Central door -->
    <rect x="125" y="170" width="50" height="90" rx="25" fill="#7C3AED"/>
    <rect x="137" y="200" width="26" height="60" fill="#6D28D9"/>

    <!-- Steps -->
    <rect x="80" y="260" width="140" height="12" fill="#F3F1FF" stroke="#7C3AED" stroke-width="1"/>
    <rect x="60" y="272" width="180" height="12" fill="#F3F1FF" stroke="#7C3AED" stroke-width="1"/>
    <rect x="40" y="284" width="220" height="12" fill="#F3F1FF" stroke="#7C3AED" stroke-width="1"/>
  </g>

  <!-- Process steps below -->
  <g transform="translate(50, 360)">
    <!-- Step boxes -->
    <rect x="0" y="0" width="140" height="100" rx="10" fill="white" stroke="#7C3AED" stroke-width="2"/>
    <circle cx="70" cy="30" r="18" fill="#7C3AED"/>
    <text x="70" y="36" text-anchor="middle" fill="white" font-size="14" font-weight="bold" font-family="Arial">1</text>
    <text x="70" y="60" text-anchor="middle" fill="#6D28D9" font-size="10" font-weight="bold" font-family="Arial">File Claim</text>
    <text x="70" y="75" text-anchor="middle" fill="#A78BFA" font-size="9" font-family="Arial">N5/N5B Forms</text>

    <path d="M150 50 L170 50" stroke="#7C3AED" stroke-width="2" marker-end="url(#arrowhead)"/>

    <rect x="180" y="0" width="140" height="100" rx="10" fill="white" stroke="#7C3AED" stroke-width="2"/>
    <circle cx="250" cy="30" r="18" fill="#7C3AED"/>
    <text x="250" y="36" text-anchor="middle" fill="white" font-size="14" font-weight="bold" font-family="Arial">2</text>
    <text x="250" y="60" text-anchor="middle" fill="#6D28D9" font-size="10" font-weight="bold" font-family="Arial">Serve Tenant</text>
    <text x="250" y="75" text-anchor="middle" fill="#A78BFA" font-size="9" font-family="Arial">Court serves papers</text>

    <path d="M330 50 L350 50" stroke="#7C3AED" stroke-width="2"/>

    <rect x="360" y="0" width="140" height="100" rx="10" fill="white" stroke="#7C3AED" stroke-width="2"/>
    <circle cx="430" cy="30" r="18" fill="#7C3AED"/>
    <text x="430" y="36" text-anchor="middle" fill="white" font-size="14" font-weight="bold" font-family="Arial">3</text>
    <text x="430" y="60" text-anchor="middle" fill="#6D28D9" font-size="10" font-weight="bold" font-family="Arial">Hearing</text>
    <text x="430" y="75" text-anchor="middle" fill="#A78BFA" font-size="9" font-family="Arial">Judge decides</text>

    <path d="M510 50 L530 50" stroke="#7C3AED" stroke-width="2"/>

    <rect x="540" y="0" width="140" height="100" rx="10" fill="#7C3AED"/>
    <circle cx="610" cy="30" r="18" fill="white"/>
    <path d="M603 30 L608 35 L618 25" stroke="#7C3AED" stroke-width="3" fill="none"/>
    <text x="610" y="60" text-anchor="middle" fill="white" font-size="10" font-weight="bold" font-family="Arial">Order Granted</text>
    <text x="610" y="75" text-anchor="middle" fill="#F3F1FF" font-size="9" font-family="Arial">Possession secured</text>
  </g>

  <!-- Gavel icon -->
  <g transform="translate(620, 100)">
    <rect x="0" y="20" width="80" height="25" rx="5" fill="#7C3AED"/>
    <rect x="30" y="45" width="20" height="40" rx="3" fill="#6D28D9"/>
    <ellipse cx="40" cy="90" rx="35" ry="10" fill="#A78BFA"/>
    <!-- Motion lines -->
    <path d="M85 15 Q95 20 90 30" stroke="#A78BFA" stroke-width="2" fill="none"/>
    <path d="M90 10 Q105 18 95 32" stroke="#A78BFA" stroke-width="2" fill="none"/>
  </g>

  <!-- Decorative elements -->
  <circle cx="50" cy="80" r="35" fill="#7C3AED" opacity="0.1"/>
  <circle cx="750" cy="300" r="40" fill="#A78BFA" opacity="0.12"/>
</svg>