<svg viewBox="0 0 800 500" xmlns="http://www.w3.org/2000/svg">
  <defs>
    <linearGradient id="bgGrad" x1="0%" y1="0%" x2="100%" y2="100%">
      <stop offset="0%" style="stop-color:#F3F1FF"/>
      <stop offset="100%" style="stop-color:#E9E5FF"/>
    </linearGradient>
  </defs>
  <rect width="800" height="500" fill="url(#bgGrad)"/>

  <!-- EPC Rating Scale -->
  <g transform="translate(250, 60)">
    <!-- Rating bars -->
    <g>
      <rect x="0" y="0" width="180" height="35" rx="5" fill="#1B8720"/>
      <text x="15" y="25" fill="white" font-weight="bold" font-size="18">A</text>
      <text x="140" y="25" fill="white" font-size="14">1-20</text>
    </g>
    <g>
      <rect x="20" y="45" width="180" height="35" rx="5" fill="#3B9B1B"/>
      <text x="35" y="70" fill="white" font-weight="bold" font-size="18">B</text>
      <text x="160" y="70" fill="white" font-size="14">21-38</text>
    </g>
    <g>
      <rect x="40" y="90" width="180" height="35" rx="5" fill="#88B520"/>
      <text x="55" y="115" fill="white" font-weight="bold" font-size="18">C</text>
      <text x="180" y="115" fill="white" font-size="14">39-54</text>
    </g>
    <g>
      <rect x="60" y="135" width="180" height="35" rx="5" fill="#7C3AED"/>
      <text x="75" y="160" fill="white" font-weight="bold" font-size="18">D</text>
      <text x="200" y="160" fill="white" font-size="14">55-68</text>
      <!-- Arrow indicator -->
      <polygon points="250,152 280,152 280,145 300,155 280,165 280,158 250,158" fill="#6D28D9"/>
    </g>
    <g>
      <rect x="80" y="180" width="180" height="35" rx="5" fill="#F5A623"/>
      <text x="95" y="205" fill="white" font-weight="bold" font-size="18">E</text>
      <text x="220" y="205" fill="white" font-size="14">69-80</text>
    </g>
    <g>
      <rect x="100" y="225" width="180" height="35" rx="5" fill="#E6781E"/>
      <text x="115" y="250" fill="white" font-weight="bold" font-size="18">F</text>
      <text x="240" y="250" fill="white" font-size="14">81-91</text>
    </g>
    <g>
      <rect x="120" y="270" width="180" height="35" rx="5" fill="#D0021B"/>
      <text x="135" y="295" fill="white" font-weight="bold" font-size="18">G</text>
      <text x="260" y="295" fill="white" font-size="14">92+</text>
    </g>
  </g>

  <!-- House icon -->
  <g transform="translate(550, 150)">
    <path d="M80 0 L160 60 L160 150 L0 150 L0 60 Z" fill="white" stroke="#7C3AED" stroke-width="3"/>
    <rect x="55" y="90" width="50" height="60" rx="3" fill="#7C3AED"/>
  </g>
</svg>