<svg viewBox="0 0 800 500" xmlns="http://www.w3.org/2000/svg">
  <defs>
    <linearGradient id="bgGrad" x1="0%" y1="0%" x2="100%" y2="100%">
      <stop offset="0%" style="stop-color:#FEF3C7"/>
      <stop offset="100%" style="stop-color:#FDE68A"/>
    </linearGradient>
  </defs>
  <rect width="800" height="500" fill="url(#bgGrad)"/>

  <!-- Title -->
  <text x="400" y="35" text-anchor="middle" fill="#92400E" font-size="22" font-weight="bold" font-family="Arial">HOLIDAY LET SUCCESS GUIDE</text>
  <text x="400" y="55" text-anchor="middle" fill="#D97706" font-size="11" font-family="Arial">Keys to running a successful holiday rental</text>

  <!-- Success icon -->
  <g transform="translate(60, 80)">
    <rect x="0" y="0" width="200" height="175" rx="12" fill="white" stroke="#D97706" stroke-width="2"/>
    <g transform="translate(25, 8)">
      <!-- House with star -->
      <rect x="25" y="30" width="70" height="55" fill="#FEF3C7" stroke="#D97706" stroke-width="2"/>
      <polygon points="60,10 105,40 15,40" fill="#D97706"/>
      <rect x="45" y="55" width="25" height="30" fill="#92400E"/>
      <!-- Star -->
      <polygon points="100,15 103,25 113,25 105,32 108,42 100,36 92,42 95,32 87,25 97,25" fill="#F59E0B"/>
    </g>
    <text x="100" y="125" text-anchor="middle" fill="#92400E" font-size="11" font-weight="bold">HOLIDAY</text>
    <text x="100" y="143" text-anchor="middle" fill="#D97706" font-size="9">Let success</text>
    <text x="100" y="158" text-anchor="middle" fill="#D97706" font-size="9">factors</text>
  </g>

  <!-- Success factors -->
  <g transform="translate(280, 80)">
    <rect x="0" y="0" width="240" height="175" rx="12" fill="white" stroke="#92400E" stroke-width="2"/>
    <rect x="0" y="0" width="240" height="32" rx="12" fill="#92400E"/>
    <rect x="0" y="20" width="240" height="12" fill="#92400E"/>
    <text x="120" y="22" text-anchor="middle" fill="white" font-size="10" font-weight="bold">SUCCESS FACTORS</text>
    <g transform="translate(15, 45)">
      <rect x="0" y="0" width="14" height="14" rx="3" fill="#D97706"/>
      <path d="M3 7 L6 10 L11 4" stroke="white" stroke-width="2" fill="none"/>
      <text x="22" y="11" fill="#92400E" font-size="9">Professional photography</text>
    </g>
    <g transform="translate(15, 68)">
      <rect x="0" y="0" width="14" height="14" rx="3" fill="#D97706"/>
      <path d="M3 7 L6 10 L11 4" stroke="white" stroke-width="2" fill="none"/>
      <text x="22" y="11" fill="#92400E" font-size="9">Competitive pricing</text>
    </g>
    <g transform="translate(15, 91)">
      <rect x="0" y="0" width="14" height="14" rx="3" fill="#92400E"/>
      <path d="M3 7 L6 10 L11 4" stroke="white" stroke-width="2" fill="none"/>
      <text x="22" y="11" fill="#92400E" font-size="9">Quick response times</text>
    </g>
    <g transform="translate(15, 114)">
      <rect x="0" y="0" width="14" height="14" rx="3" fill="#92400E"/>
      <path d="M3 7 L6 10 L11 4" stroke="white" stroke-width="2" fill="none"/>
      <text x="22" y="11" fill="#92400E" font-size="9">Excellent cleanliness</text>
    </g>
    <g transform="translate(15, 137)">
      <text x="0" y="11" fill="#D97706" font-size="9" font-weight="bold">Positive reviews</text>
    </g>
  </g>

  <!-- Guest experience -->
  <g transform="translate(540, 80)">
    <rect x="0" y="0" width="200" height="175" rx="12" fill="white" stroke="#22C55E" stroke-width="2"/>
    <rect x="0" y="0" width="200" height="32" rx="12" fill="#22C55E"/>
    <rect x="0" y="20" width="200" height="12" fill="#22C55E"/>
    <text x="100" y="22" text-anchor="middle" fill="white" font-size="10" font-weight="bold">GUEST EXPERIENCE</text>
    <g transform="translate(15, 48)">
      <circle cx="7" cy="7" r="5" fill="#22C55E"/>
      <text x="22" y="11" fill="#92400E" font-size="9">Welcome pack</text>
    </g>
    <g transform="translate(15, 71)">
      <circle cx="7" cy="7" r="5" fill="#22C55E"/>
      <text x="22" y="11" fill="#92400E" font-size="9">Local information</text>
    </g>
    <g transform="translate(15, 94)">
      <circle cx="7" cy="7" r="5" fill="#065F46"/>
      <text x="22" y="11" fill="#92400E" font-size="9">Quality amenities</text>
    </g>
    <g transform="translate(15, 117)">
      <circle cx="7" cy="7" r="5" fill="#065F46"/>
      <text x="22" y="11" fill="#92400E" font-size="9">Fast WiFi</text>
    </g>
    <g transform="translate(15, 140)">
      <text x="0" y="11" fill="#22C55E" font-size="9" font-weight="bold">Personal touches</text>
    </g>
  </g>

  <!-- Details section -->
  <g transform="translate(60, 275)">
    <rect x="0" y="0" width="680" height="170" rx="12" fill="white" stroke="#92400E" stroke-width="2"/>
    <rect x="0" y="0" width="680" height="32" rx="12" fill="#92400E"/>
    <rect x="0" y="20" width="680" height="12" fill="#92400E"/>
    <text x="340" y="22" text-anchor="middle" fill="white" font-size="10" font-weight="bold">HOLIDAY LET ESSENTIALS</text>
    <g transform="translate(20, 48)">
      <rect x="0" y="0" width="200" height="105" rx="8" fill="#D97706" opacity="0.1"/>
      <text x="100" y="20" text-anchor="middle" fill="#D97706" font-size="10" font-weight="bold">MARKETING</text>
      <text x="100" y="42" text-anchor="middle" fill="#92400E" font-size="8">Multiple listing platforms</text>
      <text x="100" y="55" text-anchor="middle" fill="#92400E" font-size="8">Compelling descriptions</text>
      <text x="100" y="75" text-anchor="middle" fill="#92400E" font-size="8">Seasonal pricing</text>
      <text x="100" y="94" text-anchor="middle" fill="#D97706" font-size="8" font-weight="bold">Social media presence</text>
    </g>
    <g transform="translate(240, 48)">
      <rect x="0" y="0" width="200" height="105" rx="8" fill="#3B82F6" opacity="0.1"/>
      <text x="100" y="20" text-anchor="middle" fill="#3B82F6" font-size="10" font-weight="bold">OPERATIONS</text>
      <text x="100" y="42" text-anchor="middle" fill="#92400E" font-size="8">Reliable cleaning team</text>
      <text x="100" y="55" text-anchor="middle" fill="#92400E" font-size="8">Maintenance schedule</text>
      <text x="100" y="75" text-anchor="middle" fill="#92400E" font-size="8">Check-in system</text>
      <text x="100" y="94" text-anchor="middle" fill="#3B82F6" font-size="8" font-weight="bold">Inventory management</text>
    </g>
    <g transform="translate(460, 48)">
      <rect x="0" y="0" width="200" height="105" rx="8" fill="#EF4444" opacity="0.1"/>
      <text x="100" y="20" text-anchor="middle" fill="#EF4444" font-size="10" font-weight="bold">COMPLIANCE</text>
      <text x="100" y="42" text-anchor="middle" fill="#92400E" font-size="8">Planning permission</text>
      <text x="100" y="55" text-anchor="middle" fill="#92400E" font-size="8">Business rates</text>
      <text x="100" y="75" text-anchor="middle" fill="#92400E" font-size="8">Safety certificates</text>
      <text x="100" y="94" text-anchor="middle" fill="#EF4444" font-size="8" font-weight="bold">Insurance cover</text>
    </g>
  </g>

  <circle cx="40" cy="40" r="20" fill="#D97706" opacity="0.1"/>
  <circle cx="760" cy="460" r="25" fill="#92400E" opacity="0.12"/>
</svg>
