<svg viewBox="0 0 800 500" xmlns="http://www.w3.org/2000/svg">
  <defs>
    <linearGradient id="bgGrad" x1="0%" y1="0%" x2="100%" y2="100%">
      <stop offset="0%" style="stop-color:#F3F1FF"/>
      <stop offset="100%" style="stop-color:#E9E5FF"/>
    </linearGradient>
  </defs>
  <rect width="800" height="500" fill="url(#bgGrad)"/>

  <!-- Clipboard -->
  <g transform="translate(250, 50)">
    <!-- Clipboard board -->
    <rect x="0" y="30" width="300" height="380" rx="15" fill="white" stroke="#7C3AED" stroke-width="3"/>

    <!-- Clip -->
    <rect x="100" y="10" width="100" height="40" rx="5" fill="#7C3AED"/>
    <rect x="120" y="20" width="60" height="25" rx="5" fill="#6D28D9"/>

    <!-- Checklist items -->
    <!-- Item 1 - checked -->
    <rect x="30" y="80" width="30" height="30" rx="6" fill="#7C3AED"/>
    <path d="M38 95 L45 102 L58 88" stroke="white" stroke-width="3" fill="none" stroke-linecap="round"/>
    <rect x="80" y="88" width="180" height="10" rx="5" fill="#94A3B8" opacity="0.3"/>

    <!-- Item 2 - checked -->
    <rect x="30" y="140" width="30" height="30" rx="6" fill="#7C3AED"/>
    <path d="M38 155 L45 162 L58 148" stroke="white" stroke-width="3" fill="none" stroke-linecap="round"/>
    <rect x="80" y="148" width="160" height="10" rx="5" fill="#94A3B8" opacity="0.3"/>

    <!-- Item 3 - checked -->
    <rect x="30" y="200" width="30" height="30" rx="6" fill="#7C3AED"/>
    <path d="M38 215 L45 222 L58 208" stroke="white" stroke-width="3" fill="none" stroke-linecap="round"/>
    <rect x="80" y="208" width="190" height="10" rx="5" fill="#94A3B8" opacity="0.3"/>

    <!-- Item 4 - unchecked -->
    <rect x="30" y="260" width="30" height="30" rx="6" fill="none" stroke="#7C3AED" stroke-width="2"/>
    <rect x="80" y="268" width="140" height="10" rx="5" fill="#94A3B8" opacity="0.3"/>

    <!-- Item 5 - unchecked -->
    <rect x="30" y="320" width="30" height="30" rx="6" fill="none" stroke="#7C3AED" stroke-width="2"/>
    <rect x="80" y="328" width="170" height="10" rx="5" fill="#94A3B8" opacity="0.3"/>
  </g>

  <!-- Pencil decoration -->
  <g transform="translate(580, 200) rotate(30)">
    <rect x="0" y="0" width="15" height="100" fill="#A78BFA"/>
    <polygon points="0,100 7.5,130 15,100" fill="#6D28D9"/>
    <rect x="0" y="0" width="15" height="15" fill="#6D28D9"/>
  </g>
</svg>