<svg viewBox="0 0 800 500" xmlns="http://www.w3.org/2000/svg">
  <defs>
    <linearGradient id="bgGrad" x1="0%" y1="0%" x2="100%" y2="100%">
      <stop offset="0%" style="stop-color:#F3F1FF"/>
      <stop offset="100%" style="stop-color:#E9E5FF"/>
    </linearGradient>
  </defs>
  <rect width="800" height="500" fill="url(#bgGrad)"/>

  <!-- Title -->
  <text x="400" y="35" text-anchor="middle" fill="#7C3AED" font-size="22" font-weight="bold" font-family="Arial">LANDLORD INSURANCE</text>
  <text x="400" y="55" text-anchor="middle" fill="#6D28D9" font-size="11" font-family="Arial">Essential coverage for rental property owners</text>

  <!-- Protection shield with house -->
  <g transform="translate(60, 80)">
    <rect x="0" y="0" width="190" height="175" rx="12" fill="white" stroke="#7C3AED" stroke-width="2"/>
    <path d="M95 20 L150 45 L150 100 C150 140 95 165 95 165 C95 165 40 140 40 100 L40 45 Z" fill="#F3F1FF" stroke="#7C3AED" stroke-width="3"/>
    <path d="M95 55 L125 75 L125 105 L65 105 L65 75 Z" fill="#7C3AED"/>
    <rect x="85" y="90" width="20" height="15" rx="2" fill="white"/>
    <circle cx="140" cy="50" r="14" fill="#22C55E"/>
    <path d="M133 50 L138 55 L147 44" stroke="white" stroke-width="2" fill="none"/>
  </g>

  <!-- Types of cover -->
  <g transform="translate(270, 80)">
    <rect x="0" y="0" width="240" height="175" rx="12" fill="white" stroke="#7C3AED" stroke-width="2"/>
    <rect x="0" y="0" width="240" height="32" rx="12" fill="#7C3AED"/>
    <rect x="0" y="20" width="240" height="12" fill="#7C3AED"/>
    <text x="120" y="22" text-anchor="middle" fill="white" font-size="10" font-weight="bold">TYPES OF COVER</text>

    <g transform="translate(15, 45)">
      <rect x="0" y="0" width="14" height="14" rx="3" fill="#7C3AED"/>
      <path d="M3 7 L6 10 L11 4" stroke="white" stroke-width="2" fill="none"/>
      <text x="22" y="11" fill="#6D28D9" font-size="9">Buildings insurance</text>
    </g>
    <g transform="translate(15, 68)">
      <rect x="0" y="0" width="14" height="14" rx="3" fill="#7C3AED"/>
      <path d="M3 7 L6 10 L11 4" stroke="white" stroke-width="2" fill="none"/>
      <text x="22" y="11" fill="#6D28D9" font-size="9">Contents insurance</text>
    </g>
    <g transform="translate(15, 91)">
      <rect x="0" y="0" width="14" height="14" rx="3" fill="#7C3AED"/>
      <path d="M3 7 L6 10 L11 4" stroke="white" stroke-width="2" fill="none"/>
      <text x="22" y="11" fill="#6D28D9" font-size="9">Rent guarantee</text>
    </g>
    <g transform="translate(15, 114)">
      <rect x="0" y="0" width="14" height="14" rx="3" fill="#6D28D9"/>
      <path d="M3 7 L6 10 L11 4" stroke="white" stroke-width="2" fill="none"/>
      <text x="22" y="11" fill="#6D28D9" font-size="9">Legal expenses</text>
    </g>
    <g transform="translate(15, 137)">
      <rect x="0" y="0" width="14" height="14" rx="3" fill="#6D28D9"/>
      <path d="M3 7 L6 10 L11 4" stroke="white" stroke-width="2" fill="none"/>
      <text x="22" y="11" fill="#6D28D9" font-size="9">Public liability</text>
    </g>
    <g transform="translate(15, 160)">
      <rect x="0" y="0" width="14" height="14" rx="3" fill="#A78BFA"/>
      <path d="M3 7 L6 10 L11 4" stroke="white" stroke-width="2" fill="none"/>
      <text x="22" y="11" fill="#6D28D9" font-size="9">Malicious damage</text>
    </g>
  </g>

  <!-- What's covered -->
  <g transform="translate(530, 80)">
    <rect x="0" y="0" width="200" height="175" rx="12" fill="white" stroke="#6D28D9" stroke-width="2"/>
    <rect x="0" y="0" width="200" height="32" rx="12" fill="#6D28D9"/>
    <rect x="0" y="20" width="200" height="12" fill="#6D28D9"/>
    <text x="100" y="22" text-anchor="middle" fill="white" font-size="10" font-weight="bold">WHAT'S COVERED</text>

    <g transform="translate(15, 45)">
      <circle cx="7" cy="7" r="5" fill="#7C3AED"/>
      <text x="20" y="11" fill="#6D28D9" font-size="9">Fire damage</text>
    </g>
    <g transform="translate(15, 68)">
      <circle cx="7" cy="7" r="5" fill="#7C3AED"/>
      <text x="20" y="11" fill="#6D28D9" font-size="9">Flood & water</text>
    </g>
    <g transform="translate(15, 91)">
      <circle cx="7" cy="7" r="5" fill="#7C3AED"/>
      <text x="20" y="11" fill="#6D28D9" font-size="9">Storm damage</text>
    </g>
    <g transform="translate(15, 114)">
      <circle cx="7" cy="7" r="5" fill="#6D28D9"/>
      <text x="20" y="11" fill="#6D28D9" font-size="9">Theft & burglary</text>
    </g>
    <g transform="translate(15, 137)">
      <circle cx="7" cy="7" r="5" fill="#6D28D9"/>
      <text x="20" y="11" fill="#6D28D9" font-size="9">Tenant default</text>
    </g>
    <g transform="translate(15, 160)">
      <circle cx="7" cy="7" r="5" fill="#A78BFA"/>
      <text x="20" y="11" fill="#6D28D9" font-size="9">Legal disputes</text>
    </g>
  </g>

  <!-- Bottom section -->
  <g transform="translate(60, 275)">
    <rect x="0" y="0" width="670" height="170" rx="12" fill="white" stroke="#7C3AED" stroke-width="2"/>
    <text x="335" y="28" text-anchor="middle" fill="#7C3AED" font-size="12" font-weight="bold">KEY CONSIDERATIONS</text>

    <g transform="translate(20, 45)">
      <rect x="0" y="0" width="150" height="110" rx="8" fill="#F3F1FF"/>
      <circle cx="75" cy="30" r="16" fill="#7C3AED"/>
      <text x="75" y="35" text-anchor="middle" fill="white" font-size="14" font-weight="bold">£</text>
      <text x="75" y="62" text-anchor="middle" fill="#7C3AED" font-size="9" font-weight="bold">REBUILD COST</text>
      <text x="75" y="80" text-anchor="middle" fill="#6D28D9" font-size="8">Not market value</text>
      <text x="75" y="95" text-anchor="middle" fill="#6D28D9" font-size="8">Get survey valuation</text>
    </g>
    <g transform="translate(180, 45)">
      <rect x="0" y="0" width="150" height="110" rx="8" fill="#F3F1FF"/>
      <circle cx="75" cy="30" r="16" fill="#6D28D9"/>
      <text x="75" y="35" text-anchor="middle" fill="white" font-size="9" font-weight="bold">LET</text>
      <text x="75" y="62" text-anchor="middle" fill="#6D28D9" font-size="9" font-weight="bold">TELL INSURER</text>
      <text x="75" y="80" text-anchor="middle" fill="#6D28D9" font-size="8">Property is rented</text>
      <text x="75" y="95" text-anchor="middle" fill="#6D28D9" font-size="8">Standard won't cover</text>
    </g>
    <g transform="translate(340, 45)">
      <rect x="0" y="0" width="150" height="110" rx="8" fill="#F3F1FF"/>
      <circle cx="75" cy="30" r="16" fill="#A78BFA"/>
      <text x="75" y="35" text-anchor="middle" fill="white" font-size="9" font-weight="bold">30</text>
      <text x="75" y="62" text-anchor="middle" fill="#A78BFA" font-size="9" font-weight="bold">VOID PERIODS</text>
      <text x="75" y="80" text-anchor="middle" fill="#6D28D9" font-size="8">Check cover limits</text>
      <text x="75" y="95" text-anchor="middle" fill="#6D28D9" font-size="8">Usually 30-60 days</text>
    </g>
    <g transform="translate(500, 45)">
      <rect x="0" y="0" width="150" height="110" rx="8" fill="#F3F1FF"/>
      <circle cx="75" cy="30" r="16" fill="#22C55E"/>
      <path d="M68 30 L73 35 L82 24" stroke="white" stroke-width="2" fill="none"/>
      <text x="75" y="62" text-anchor="middle" fill="#22C55E" font-size="9" font-weight="bold">COMPARE</text>
      <text x="75" y="80" text-anchor="middle" fill="#6D28D9" font-size="8">Get multiple quotes</text>
      <text x="75" y="95" text-anchor="middle" fill="#6D28D9" font-size="8">Check excess levels</text>
    </g>
  </g>

  <circle cx="40" cy="40" r="20" fill="#7C3AED" opacity="0.1"/>
  <circle cx="760" cy="460" r="25" fill="#A78BFA" opacity="0.12"/>
</svg>