<svg viewBox="0 0 800 500" xmlns="http://www.w3.org/2000/svg">
  <defs>
    <linearGradient id="bgGrad" x1="0%" y1="0%" x2="100%" y2="100%">
      <stop offset="0%" style="stop-color:#F3F1FF"/>
      <stop offset="100%" style="stop-color:#E9E5FF"/>
    </linearGradient>
  </defs>
  <rect width="800" height="500" fill="url(#bgGrad)"/>

  <!-- Title -->
  <text x="400" y="35" text-anchor="middle" fill="#7C3AED" font-size="22" font-weight="bold" font-family="Arial">PROPERTY INVESTMENT</text>
  <text x="400" y="55" text-anchor="middle" fill="#6D28D9" font-size="11" font-family="Arial">Building wealth through buy-to-let</text>

  <!-- House with coins -->
  <g transform="translate(60, 80)">
    <rect x="0" y="0" width="200" height="175" rx="12" fill="white" stroke="#7C3AED" stroke-width="2"/>

    <!-- House -->
    <g transform="translate(45, 20)">
      <path d="M55 15 L100 50 L100 100 L10 100 L10 50 Z" fill="#F3F1FF" stroke="#7C3AED" stroke-width="2"/>
      <rect x="42" y="65" width="26" height="35" rx="2" fill="#7C3AED"/>
      <rect x="20" y="60" width="16" height="16" rx="2" fill="white" stroke="#7C3AED"/>
      <rect x="74" y="60" width="16" height="16" rx="2" fill="white" stroke="#7C3AED"/>
    </g>

    <!-- Coins -->
    <g transform="translate(130, 60)">
      <ellipse cx="25" cy="55" rx="20" ry="6" fill="#6D28D9"/>
      <rect x="5" y="35" width="40" height="20" fill="#7C3AED"/>
      <ellipse cx="25" cy="35" rx="20" ry="6" fill="#A78BFA"/>
      <text x="25" y="48" text-anchor="middle" fill="white" font-size="14" font-weight="bold">£</text>
    </g>

    <text x="100" y="145" text-anchor="middle" fill="#7C3AED" font-size="11" font-weight="bold">BUY-TO-LET</text>
    <text x="100" y="160" text-anchor="middle" fill="#6D28D9" font-size="9">Capital + Income</text>
  </g>

  <!-- Returns breakdown -->
  <g transform="translate(280, 80)">
    <rect x="0" y="0" width="240" height="175" rx="12" fill="white" stroke="#22C55E" stroke-width="2"/>
    <rect x="0" y="0" width="240" height="32" rx="12" fill="#22C55E"/>
    <rect x="0" y="20" width="240" height="12" fill="#22C55E"/>
    <text x="120" y="22" text-anchor="middle" fill="white" font-size="10" font-weight="bold">INVESTMENT RETURNS</text>

    <g transform="translate(15, 48)">
      <rect x="0" y="0" width="100" height="55" rx="6" fill="#F3F1FF"/>
      <text x="50" y="18" text-anchor="middle" fill="#22C55E" font-size="9" font-weight="bold">RENTAL</text>
      <text x="50" y="35" text-anchor="middle" fill="#7C3AED" font-size="16" font-weight="bold">4-8%</text>
      <text x="50" y="48" text-anchor="middle" fill="#6D28D9" font-size="7">yield typical</text>
    </g>
    <g transform="translate(125, 48)">
      <rect x="0" y="0" width="100" height="55" rx="6" fill="#F3F1FF"/>
      <text x="50" y="18" text-anchor="middle" fill="#7C3AED" font-size="9" font-weight="bold">CAPITAL</text>
      <text x="50" y="35" text-anchor="middle" fill="#7C3AED" font-size="16" font-weight="bold">3-7%</text>
      <text x="50" y="48" text-anchor="middle" fill="#6D28D9" font-size="7">growth p.a.</text>
    </g>

    <g transform="translate(15, 115)">
      <circle cx="8" cy="8" r="6" fill="#7C3AED"/>
      <text x="22" y="12" fill="#6D28D9" font-size="9">Location is key</text>
    </g>
    <g transform="translate(15, 138)">
      <circle cx="8" cy="8" r="6" fill="#6D28D9"/>
      <text x="22" y="12" fill="#6D28D9" font-size="9">Due diligence essential</text>
    </g>
  </g>

  <!-- Costs to consider -->
  <g transform="translate(540, 80)">
    <rect x="0" y="0" width="200" height="175" rx="12" fill="white" stroke="#F59E0B" stroke-width="2"/>
    <rect x="0" y="0" width="200" height="32" rx="12" fill="#F59E0B"/>
    <rect x="0" y="20" width="200" height="12" fill="#F59E0B"/>
    <text x="100" y="22" text-anchor="middle" fill="white" font-size="10" font-weight="bold">COSTS TO CONSIDER</text>

    <g transform="translate(15, 48)">
      <circle cx="7" cy="7" r="5" fill="#EF4444"/>
      <text x="20" y="11" fill="#6D28D9" font-size="9">Mortgage payments</text>
    </g>
    <g transform="translate(15, 68)">
      <circle cx="7" cy="7" r="5" fill="#EF4444"/>
      <text x="20" y="11" fill="#6D28D9" font-size="9">Stamp duty (extra 3%)</text>
    </g>
    <g transform="translate(15, 88)">
      <circle cx="7" cy="7" r="5" fill="#F59E0B"/>
      <text x="20" y="11" fill="#6D28D9" font-size="9">Insurance</text>
    </g>
    <g transform="translate(15, 108)">
      <circle cx="7" cy="7" r="5" fill="#F59E0B"/>
      <text x="20" y="11" fill="#6D28D9" font-size="9">Maintenance (10-15%)</text>
    </g>
    <g transform="translate(15, 128)">
      <circle cx="7" cy="7" r="5" fill="#A78BFA"/>
      <text x="20" y="11" fill="#6D28D9" font-size="9">Management fees</text>
    </g>
    <g transform="translate(15, 148)">
      <circle cx="7" cy="7" r="5" fill="#A78BFA"/>
      <text x="20" y="11" fill="#6D28D9" font-size="9">Void periods</text>
    </g>
  </g>

  <!-- Investment strategies -->
  <g transform="translate(60, 275)">
    <rect x="0" y="0" width="680" height="170" rx="12" fill="white" stroke="#7C3AED" stroke-width="2"/>
    <rect x="0" y="0" width="680" height="32" rx="12" fill="#7C3AED"/>
    <rect x="0" y="20" width="680" height="12" fill="#7C3AED"/>
    <text x="340" y="22" text-anchor="middle" fill="white" font-size="10" font-weight="bold">INVESTMENT STRATEGIES</text>

    <g transform="translate(20, 48)">
      <rect x="0" y="0" width="150" height="105" rx="8" fill="#F3F1FF"/>
      <text x="75" y="22" text-anchor="middle" fill="#7C3AED" font-size="10" font-weight="bold">SINGLE LET</text>
      <circle cx="75" cy="50" r="18" fill="#7C3AED"/>
      <text x="75" y="55" text-anchor="middle" fill="white" font-size="14" font-weight="bold">1</text>
      <text x="75" y="82" text-anchor="middle" fill="#6D28D9" font-size="8">Standard AST</text>
      <text x="75" y="95" text-anchor="middle" fill="#6D28D9" font-size="8">Lower management</text>
    </g>

    <g transform="translate(185, 48)">
      <rect x="0" y="0" width="150" height="105" rx="8" fill="#F3F1FF"/>
      <text x="75" y="22" text-anchor="middle" fill="#6D28D9" font-size="10" font-weight="bold">HMO</text>
      <g transform="translate(45, 32)">
        <circle cx="0" cy="12" r="12" fill="#6D28D9"/>
        <circle cx="20" cy="12" r="12" fill="#7C3AED"/>
        <circle cx="40" cy="12" r="12" fill="#A78BFA"/>
      </g>
      <text x="75" y="82" text-anchor="middle" fill="#6D28D9" font-size="8">Higher yields</text>
      <text x="75" y="95" text-anchor="middle" fill="#6D28D9" font-size="8">More regulation</text>
    </g>

    <g transform="translate(350, 48)">
      <rect x="0" y="0" width="150" height="105" rx="8" fill="#F3F1FF"/>
      <text x="75" y="22" text-anchor="middle" fill="#A78BFA" font-size="10" font-weight="bold">PORTFOLIO</text>
      <g transform="translate(35, 32)">
        <rect x="0" y="0" width="25" height="25" rx="3" fill="#7C3AED"/>
        <rect x="28" y="0" width="25" height="25" rx="3" fill="#6D28D9"/>
        <rect x="14" y="15" width="25" height="25" rx="3" fill="#A78BFA"/>
      </g>
      <text x="75" y="82" text-anchor="middle" fill="#6D28D9" font-size="8">Multiple properties</text>
      <text x="75" y="95" text-anchor="middle" fill="#6D28D9" font-size="8">Risk spread</text>
    </g>

    <g transform="translate(515, 48)">
      <rect x="0" y="0" width="150" height="105" rx="8" fill="#F3F1FF"/>
      <text x="75" y="22" text-anchor="middle" fill="#22C55E" font-size="10" font-weight="bold">BRRR</text>
      <text x="75" y="55" text-anchor="middle" fill="#22C55E" font-size="9" font-weight="bold">Buy Refurb</text>
      <text x="75" y="68" text-anchor="middle" fill="#22C55E" font-size="9" font-weight="bold">Rent Refinance</text>
      <text x="75" y="95" text-anchor="middle" fill="#6D28D9" font-size="8">Recycle capital</text>
    </g>
  </g>

  <circle cx="40" cy="40" r="20" fill="#7C3AED" opacity="0.1"/>
  <circle cx="760" cy="460" r="25" fill="#A78BFA" opacity="0.12"/>
</svg>
