<svg viewBox="0 0 800 500" xmlns="http://www.w3.org/2000/svg">
  <defs>
    <linearGradient id="bgGrad" x1="0%" y1="0%" x2="100%" y2="100%">
      <stop offset="0%" style="stop-color:#EFF6FF"/>
      <stop offset="100%" style="stop-color:#DBEAFE"/>
    </linearGradient>
  </defs>
  <rect width="800" height="500" fill="url(#bgGrad)"/>

  <!-- Title -->
  <text x="400" y="35" text-anchor="middle" fill="#1E40AF" font-size="22" font-weight="bold" font-family="Arial">LANDLORD LEGAL DUTIES</text>
  <text x="400" y="55" text-anchor="middle" fill="#3B82F6" font-size="11" font-family="Arial">Essential legal obligations for landlords</text>

  <!-- Duties icon -->
  <g transform="translate(60, 80)">
    <rect x="0" y="0" width="200" height="175" rx="12" fill="white" stroke="#3B82F6" stroke-width="2"/>
    <g transform="translate(25, 8)">
      <!-- Clipboard -->
      <rect x="25" y="15" width="70" height="70" rx="4" fill="#DBEAFE" stroke="#1E40AF" stroke-width="2"/>
      <rect x="45" y="8" width="30" height="12" rx="3" fill="#1E40AF"/>
      <!-- Checklist -->
      <rect x="35" y="30" width="10" height="10" rx="2" fill="#3B82F6"/>
      <path d="M37 35 L40 38 L45 32" stroke="white" stroke-width="2" fill="none"/>
      <line x1="50" y1="35" x2="85" y2="35" stroke="#1E40AF" stroke-width="2"/>
      <rect x="35" y="48" width="10" height="10" rx="2" fill="#3B82F6"/>
      <path d="M37 53 L40 56 L45 50" stroke="white" stroke-width="2" fill="none"/>
      <line x1="50" y1="53" x2="85" y2="53" stroke="#1E40AF" stroke-width="2"/>
      <rect x="35" y="66" width="10" height="10" rx="2" fill="#1E40AF"/>
      <line x1="50" y1="71" x2="85" y2="71" stroke="#1E40AF" stroke-width="2"/>
    </g>
    <text x="100" y="125" text-anchor="middle" fill="#1E40AF" font-size="11" font-weight="bold">LANDLORD</text>
    <text x="100" y="143" text-anchor="middle" fill="#3B82F6" font-size="9">Legal</text>
    <text x="100" y="158" text-anchor="middle" fill="#3B82F6" font-size="9">duties</text>
  </g>

  <!-- Safety duties -->
  <g transform="translate(280, 80)">
    <rect x="0" y="0" width="240" height="175" rx="12" fill="white" stroke="#1E40AF" stroke-width="2"/>
    <rect x="0" y="0" width="240" height="32" rx="12" fill="#1E40AF"/>
    <rect x="0" y="20" width="240" height="12" fill="#1E40AF"/>
    <text x="120" y="22" text-anchor="middle" fill="white" font-size="10" font-weight="bold">SAFETY DUTIES</text>
    <g transform="translate(15, 45)">
      <rect x="0" y="0" width="14" height="14" rx="3" fill="#3B82F6"/>
      <path d="M3 7 L6 10 L11 4" stroke="white" stroke-width="2" fill="none"/>
      <text x="22" y="11" fill="#1E40AF" font-size="9">Annual gas safety check</text>
    </g>
    <g transform="translate(15, 68)">
      <rect x="0" y="0" width="14" height="14" rx="3" fill="#3B82F6"/>
      <path d="M3 7 L6 10 L11 4" stroke="white" stroke-width="2" fill="none"/>
      <text x="22" y="11" fill="#1E40AF" font-size="9">EICR every 5 years</text>
    </g>
    <g transform="translate(15, 91)">
      <rect x="0" y="0" width="14" height="14" rx="3" fill="#1E40AF"/>
      <path d="M3 7 L6 10 L11 4" stroke="white" stroke-width="2" fill="none"/>
      <text x="22" y="11" fill="#1E40AF" font-size="9">Smoke and CO alarms</text>
    </g>
    <g transform="translate(15, 114)">
      <rect x="0" y="0" width="14" height="14" rx="3" fill="#1E40AF"/>
      <path d="M3 7 L6 10 L11 4" stroke="white" stroke-width="2" fill="none"/>
      <text x="22" y="11" fill="#1E40AF" font-size="9">EPC rating E minimum</text>
    </g>
    <g transform="translate(15, 137)">
      <text x="0" y="11" fill="#3B82F6" font-size="9" font-weight="bold">Fire safety furniture</text>
    </g>
  </g>

  <!-- Other duties -->
  <g transform="translate(540, 80)">
    <rect x="0" y="0" width="200" height="175" rx="12" fill="white" stroke="#22C55E" stroke-width="2"/>
    <rect x="0" y="0" width="200" height="32" rx="12" fill="#22C55E"/>
    <rect x="0" y="20" width="200" height="12" fill="#22C55E"/>
    <text x="100" y="22" text-anchor="middle" fill="white" font-size="10" font-weight="bold">OTHER DUTIES</text>
    <g transform="translate(15, 48)">
      <circle cx="7" cy="7" r="5" fill="#22C55E"/>
      <text x="22" y="11" fill="#1E40AF" font-size="9">Protect deposit</text>
    </g>
    <g transform="translate(15, 71)">
      <circle cx="7" cy="7" r="5" fill="#22C55E"/>
      <text x="22" y="11" fill="#1E40AF" font-size="9">Provide How to Rent</text>
    </g>
    <g transform="translate(15, 94)">
      <circle cx="7" cy="7" r="5" fill="#065F46"/>
      <text x="22" y="11" fill="#1E40AF" font-size="9">Right to Rent checks</text>
    </g>
    <g transform="translate(15, 117)">
      <circle cx="7" cy="7" r="5" fill="#065F46"/>
      <text x="22" y="11" fill="#1E40AF" font-size="9">Keep property fit</text>
    </g>
    <g transform="translate(15, 140)">
      <text x="0" y="11" fill="#22C55E" font-size="9" font-weight="bold">Repair and maintain</text>
    </g>
  </g>

  <!-- Details section -->
  <g transform="translate(60, 275)">
    <rect x="0" y="0" width="680" height="170" rx="12" fill="white" stroke="#1E40AF" stroke-width="2"/>
    <rect x="0" y="0" width="680" height="32" rx="12" fill="#1E40AF"/>
    <rect x="0" y="20" width="680" height="12" fill="#1E40AF"/>
    <text x="340" y="22" text-anchor="middle" fill="white" font-size="10" font-weight="bold">KEY LANDLORD OBLIGATIONS</text>
    <g transform="translate(20, 48)">
      <rect x="0" y="0" width="200" height="105" rx="8" fill="#3B82F6" opacity="0.1"/>
      <text x="100" y="20" text-anchor="middle" fill="#3B82F6" font-size="10" font-weight="bold">DOCUMENTATION</text>
      <text x="100" y="42" text-anchor="middle" fill="#1E40AF" font-size="8">Tenancy agreement in writing</text>
      <text x="100" y="55" text-anchor="middle" fill="#1E40AF" font-size="8">Deposit certificate</text>
      <text x="100" y="75" text-anchor="middle" fill="#1E40AF" font-size="8">Prescribed information</text>
      <text x="100" y="94" text-anchor="middle" fill="#3B82F6" font-size="8" font-weight="bold">Safety certificates</text>
    </g>
    <g transform="translate(240, 48)">
      <rect x="0" y="0" width="200" height="105" rx="8" fill="#22C55E" opacity="0.1"/>
      <text x="100" y="20" text-anchor="middle" fill="#22C55E" font-size="10" font-weight="bold">MAINTENANCE</text>
      <text x="100" y="42" text-anchor="middle" fill="#1E40AF" font-size="8">Structure and exterior</text>
      <text x="100" y="55" text-anchor="middle" fill="#1E40AF" font-size="8">Heating and hot water</text>
      <text x="100" y="75" text-anchor="middle" fill="#1E40AF" font-size="8">Sanitation facilities</text>
      <text x="100" y="94" text-anchor="middle" fill="#22C55E" font-size="8" font-weight="bold">Respond to repairs</text>
    </g>
    <g transform="translate(460, 48)">
      <rect x="0" y="0" width="200" height="105" rx="8" fill="#EF4444" opacity="0.1"/>
      <text x="100" y="20" text-anchor="middle" fill="#EF4444" font-size="10" font-weight="bold">PENALTIES</text>
      <text x="100" y="42" text-anchor="middle" fill="#1E40AF" font-size="8">Civil penalties up to £30k</text>
      <text x="100" y="55" text-anchor="middle" fill="#1E40AF" font-size="8">Rent repayment orders</text>
      <text x="100" y="75" text-anchor="middle" fill="#1E40AF" font-size="8">Banning orders</text>
      <text x="100" y="94" text-anchor="middle" fill="#EF4444" font-size="8" font-weight="bold">Criminal prosecution</text>
    </g>
  </g>

  <circle cx="40" cy="40" r="20" fill="#1E40AF" opacity="0.1"/>
  <circle cx="760" cy="460" r="25" fill="#3B82F6" opacity="0.12"/>
</svg>
