<svg viewBox="0 0 800 500" xmlns="http://www.w3.org/2000/svg">
  <defs>
    <linearGradient id="bgGrad" x1="0%" y1="0%" x2="100%" y2="100%">
      <stop offset="0%" style="stop-color:#EFF6FF"/>
      <stop offset="100%" style="stop-color:#DBEAFE"/>
    </linearGradient>
  </defs>
  <rect width="800" height="500" fill="url(#bgGrad)"/>

  <!-- Title -->
  <text x="400" y="35" text-anchor="middle" fill="#1E40AF" font-size="22" font-weight="bold" font-family="Arial">LANDLORD SUPPORT RESOURCES</text>
  <text x="400" y="55" text-anchor="middle" fill="#3B82F6" font-size="11" font-family="Arial">Help and guidance for UK landlords</text>

  <!-- Support icon -->
  <g transform="translate(60, 80)">
    <rect x="0" y="0" width="200" height="175" rx="12" fill="white" stroke="#1E40AF" stroke-width="2"/>
    <g transform="translate(30, 8)">
      <!-- Headset/support symbol -->
      <circle cx="70" cy="40" r="30" fill="none" stroke="#1E40AF" stroke-width="4"/>
      <path d="M40 40 L40 60 Q40 75 55 75 L55 55" fill="none" stroke="#1E40AF" stroke-width="4"/>
      <path d="M100 40 L100 60 Q100 75 85 75 L85 55" fill="none" stroke="#1E40AF" stroke-width="4"/>
      <rect x="35" y="45" width="15" height="20" rx="3" fill="#3B82F6"/>
      <rect x="90" y="45" width="15" height="20" rx="3" fill="#3B82F6"/>
      <!-- Question mark -->
      <text x="70" y="90" text-anchor="middle" fill="#1E40AF" font-size="20" font-weight="bold">?</text>
    </g>
    <text x="100" y="125" text-anchor="middle" fill="#1E40AF" font-size="11" font-weight="bold">SUPPORT</text>
    <text x="100" y="143" text-anchor="middle" fill="#3B82F6" font-size="9">Help when you</text>
    <text x="100" y="158" text-anchor="middle" fill="#3B82F6" font-size="9">need it</text>
  </g>

  <!-- Where to get help -->
  <g transform="translate(280, 80)">
    <rect x="0" y="0" width="240" height="175" rx="12" fill="white" stroke="#1E40AF" stroke-width="2"/>
    <rect x="0" y="0" width="240" height="32" rx="12" fill="#1E40AF"/>
    <rect x="0" y="20" width="240" height="12" fill="#1E40AF"/>
    <text x="120" y="22" text-anchor="middle" fill="white" font-size="10" font-weight="bold">WHERE TO GET HELP</text>
    <g transform="translate(15, 45)">
      <rect x="0" y="0" width="14" height="14" rx="3" fill="#3B82F6"/>
      <path d="M3 7 L6 10 L11 4" stroke="white" stroke-width="2" fill="none"/>
      <text x="22" y="11" fill="#1E40AF" font-size="9">Landlord associations</text>
    </g>
    <g transform="translate(15, 68)">
      <rect x="0" y="0" width="14" height="14" rx="3" fill="#3B82F6"/>
      <path d="M3 7 L6 10 L11 4" stroke="white" stroke-width="2" fill="none"/>
      <text x="22" y="11" fill="#1E40AF" font-size="9">Local authority housing</text>
    </g>
    <g transform="translate(15, 91)">
      <rect x="0" y="0" width="14" height="14" rx="3" fill="#1E40AF"/>
      <path d="M3 7 L6 10 L11 4" stroke="white" stroke-width="2" fill="none"/>
      <text x="22" y="11" fill="#1E40AF" font-size="9">Property law solicitors</text>
    </g>
    <g transform="translate(15, 114)">
      <rect x="0" y="0" width="14" height="14" rx="3" fill="#1E40AF"/>
      <path d="M3 7 L6 10 L11 4" stroke="white" stroke-width="2" fill="none"/>
      <text x="22" y="11" fill="#1E40AF" font-size="9">Gov.uk guidance</text>
    </g>
    <g transform="translate(15, 137)">
      <text x="0" y="11" fill="#3B82F6" font-size="9" font-weight="bold">NRLA, RLA membership</text>
    </g>
  </g>

  <!-- Types of support -->
  <g transform="translate(540, 80)">
    <rect x="0" y="0" width="200" height="175" rx="12" fill="white" stroke="#22C55E" stroke-width="2"/>
    <rect x="0" y="0" width="200" height="32" rx="12" fill="#22C55E"/>
    <rect x="0" y="20" width="200" height="12" fill="#22C55E"/>
    <text x="100" y="22" text-anchor="middle" fill="white" font-size="10" font-weight="bold">TYPES OF SUPPORT</text>
    <g transform="translate(15, 48)">
      <circle cx="7" cy="7" r="5" fill="#22C55E"/>
      <text x="22" y="11" fill="#1E40AF" font-size="9">Legal advice lines</text>
    </g>
    <g transform="translate(15, 71)">
      <circle cx="7" cy="7" r="5" fill="#22C55E"/>
      <text x="22" y="11" fill="#1E40AF" font-size="9">Document templates</text>
    </g>
    <g transform="translate(15, 94)">
      <circle cx="7" cy="7" r="5" fill="#1E40AF"/>
      <text x="22" y="11" fill="#1E40AF" font-size="9">Training courses</text>
    </g>
    <g transform="translate(15, 117)">
      <circle cx="7" cy="7" r="5" fill="#1E40AF"/>
      <text x="22" y="11" fill="#1E40AF" font-size="9">Insurance cover</text>
    </g>
    <g transform="translate(15, 140)">
      <text x="0" y="11" fill="#22C55E" font-size="9" font-weight="bold">Tax and finance help</text>
    </g>
  </g>

  <!-- Key resources -->
  <g transform="translate(60, 275)">
    <rect x="0" y="0" width="680" height="170" rx="12" fill="white" stroke="#1E40AF" stroke-width="2"/>
    <rect x="0" y="0" width="680" height="32" rx="12" fill="#1E40AF"/>
    <rect x="0" y="20" width="680" height="12" fill="#1E40AF"/>
    <text x="340" y="22" text-anchor="middle" fill="white" font-size="10" font-weight="bold">KEY SUPPORT RESOURCES</text>
    <g transform="translate(20, 48)">
      <rect x="0" y="0" width="200" height="105" rx="8" fill="#3B82F6" opacity="0.1"/>
      <text x="100" y="20" text-anchor="middle" fill="#3B82F6" font-size="10" font-weight="bold">ASSOCIATIONS</text>
      <text x="100" y="42" text-anchor="middle" fill="#1E40AF" font-size="8">NRLA (National Res.)</text>
      <text x="100" y="55" text-anchor="middle" fill="#1E40AF" font-size="8">ARLA Propertymark</text>
      <text x="100" y="75" text-anchor="middle" fill="#1E40AF" font-size="8">Local landlord groups</text>
      <text x="100" y="94" text-anchor="middle" fill="#3B82F6" font-size="8" font-weight="bold">Annual membership</text>
    </g>
    <g transform="translate(240, 48)">
      <rect x="0" y="0" width="200" height="105" rx="8" fill="#22C55E" opacity="0.1"/>
      <text x="100" y="20" text-anchor="middle" fill="#22C55E" font-size="10" font-weight="bold">GOVERNMENT</text>
      <text x="100" y="42" text-anchor="middle" fill="#1E40AF" font-size="8">Gov.uk landlord guides</text>
      <text x="100" y="55" text-anchor="middle" fill="#1E40AF" font-size="8">How to Rent checklist</text>
      <text x="100" y="75" text-anchor="middle" fill="#1E40AF" font-size="8">EPC register</text>
      <text x="100" y="94" text-anchor="middle" fill="#22C55E" font-size="8" font-weight="bold">Free resources</text>
    </g>
    <g transform="translate(460, 48)">
      <rect x="0" y="0" width="200" height="105" rx="8" fill="#F59E0B" opacity="0.1"/>
      <text x="100" y="20" text-anchor="middle" fill="#F59E0B" font-size="10" font-weight="bold">PROFESSIONAL</text>
      <text x="100" y="42" text-anchor="middle" fill="#1E40AF" font-size="8">Letting agents</text>
      <text x="100" y="55" text-anchor="middle" fill="#1E40AF" font-size="8">Property solicitors</text>
      <text x="100" y="75" text-anchor="middle" fill="#1E40AF" font-size="8">Accountants</text>
      <text x="100" y="94" text-anchor="middle" fill="#F59E0B" font-size="8" font-weight="bold">Expert advice</text>
    </g>
  </g>

  <circle cx="40" cy="40" r="20" fill="#1E40AF" opacity="0.1"/>
  <circle cx="760" cy="460" r="25" fill="#3B82F6" opacity="0.12"/>
</svg>
