<svg viewBox="0 0 800 500" xmlns="http://www.w3.org/2000/svg">
  <defs>
    <linearGradient id="bgGrad" x1="0%" y1="0%" x2="100%" y2="100%">
      <stop offset="0%" style="stop-color:#F3F1FF"/>
      <stop offset="100%" style="stop-color:#E9E5FF"/>
    </linearGradient>
  </defs>
  <rect width="800" height="500" fill="url(#bgGrad)"/>

  <!-- Building -->
  <g transform="translate(250, 60)">
    <!-- Main building -->
    <rect x="0" y="50" width="300" height="350" fill="white" stroke="#7C3AED" stroke-width="3"/>

    <!-- Roof -->
    <rect x="-10" y="35" width="320" height="25" fill="#6D28D9"/>

    <!-- Windows - Row 1 -->
    <rect x="30" y="80" width="50" height="60" rx="3" fill="#F3F1FF" stroke="#7C3AED" stroke-width="2"/>
    <rect x="125" y="80" width="50" height="60" rx="3" fill="#F3F1FF" stroke="#7C3AED" stroke-width="2"/>
    <rect x="220" y="80" width="50" height="60" rx="3" fill="#F3F1FF" stroke="#7C3AED" stroke-width="2"/>

    <!-- Windows - Row 2 -->
    <rect x="30" y="170" width="50" height="60" rx="3" fill="#F3F1FF" stroke="#7C3AED" stroke-width="2"/>
    <rect x="125" y="170" width="50" height="60" rx="3" fill="#F3F1FF" stroke="#7C3AED" stroke-width="2"/>
    <rect x="220" y="170" width="50" height="60" rx="3" fill="#F3F1FF" stroke="#7C3AED" stroke-width="2"/>

    <!-- Windows - Row 3 -->
    <rect x="30" y="260" width="50" height="60" rx="3" fill="#F3F1FF" stroke="#7C3AED" stroke-width="2"/>
    <rect x="220" y="260" width="50" height="60" rx="3" fill="#F3F1FF" stroke="#7C3AED" stroke-width="2"/>

    <!-- Door -->
    <rect x="120" y="310" width="60" height="90" rx="5" fill="#7C3AED"/>
    <circle cx="165" cy="360" r="5" fill="#A78BFA"/>

    <!-- People icons -->
    <g transform="translate(40, 100)">
      <circle cx="10" cy="-5" r="6" fill="#7C3AED" opacity="0.7"/>
      <ellipse cx="10" cy="10" rx="8" ry="5" fill="#7C3AED" opacity="0.7"/>
    </g>
    <g transform="translate(135, 100)">
      <circle cx="10" cy="-5" r="6" fill="#7C3AED" opacity="0.7"/>
      <ellipse cx="10" cy="10" rx="8" ry="5" fill="#7C3AED" opacity="0.7"/>
    </g>
    <g transform="translate(230, 100)">
      <circle cx="10" cy="-5" r="6" fill="#7C3AED" opacity="0.7"/>
      <ellipse cx="10" cy="10" rx="8" ry="5" fill="#7C3AED" opacity="0.7"/>
    </g>
  </g>
</svg>