<svg viewBox="0 0 800 500" xmlns="http://www.w3.org/2000/svg">
  <defs>
    <linearGradient id="bgGrad" x1="0%" y1="0%" x2="100%" y2="100%">
      <stop offset="0%" style="stop-color:#EFF6FF"/>
      <stop offset="100%" style="stop-color:#DBEAFE"/>
    </linearGradient>
  </defs>
  <rect width="800" height="500" fill="url(#bgGrad)"/>

  <text x="400" y="40" text-anchor="middle" fill="#1D4ED8" font-size="24" font-weight="bold" font-family="Arial">MCOL TIMELINE</text>
  <text x="400" y="62" text-anchor="middle" fill="#2563EB" font-size="12" font-family="Arial">Money Claim Online process milestones</text>

  <g transform="translate(110, 130)">
    <rect x="0" y="0" width="580" height="220" rx="18" fill="#FFFFFF" stroke="#93C5FD" stroke-width="2"/>
    <rect x="0" y="0" width="580" height="48" rx="18" fill="#1D4ED8"/>
    <text x="290" y="30" text-anchor="middle" fill="white" font-size="16" font-weight="bold" font-family="Arial">KEY STAGES</text>

    <g transform="translate(50, 90)" fill="#1D4ED8" font-family="Arial" font-size="12">
      <circle cx="20" cy="10" r="8" fill="#1D4ED8"/>
      <text x="40" y="14">Claim submitted</text>

      <circle cx="20" cy="50" r="8" fill="#1D4ED8"/>
      <text x="40" y="54">Defence period</text>

      <circle cx="20" cy="90" r="8" fill="#1D4ED8"/>
      <text x="40" y="94">Judgment request</text>

      <circle cx="20" cy="130" r="8" fill="#1D4ED8"/>
      <text x="40" y="134">Enforcement</text>
    </g>

    <g transform="translate(320, 90)">
      <rect x="0" y="0" width="200" height="120" rx="14" fill="#EFF6FF" stroke="#1D4ED8" stroke-width="2"/>
      <path d="M30 40 H170" stroke="#1D4ED8" stroke-width="4" stroke-linecap="round"/>
      <path d="M30 70 H140" stroke="#1D4ED8" stroke-width="4" stroke-linecap="round"/>
      <path d="M30 100 H110" stroke="#1D4ED8" stroke-width="4" stroke-linecap="round"/>
    </g>
  </g>
</svg>
