<svg viewBox="0 0 800 500" xmlns="http://www.w3.org/2000/svg">
  <defs>
    <linearGradient id="bgGrad" x1="0%" y1="0%" x2="100%" y2="100%">
      <stop offset="0%" style="stop-color:#ECFDF5"/>
      <stop offset="100%" style="stop-color:#D1FAE5"/>
    </linearGradient>
  </defs>
  <rect width="800" height="500" fill="url(#bgGrad)"/>

  <!-- Title -->
  <text x="400" y="35" text-anchor="middle" fill="#065F46" font-size="22" font-weight="bold" font-family="Arial">NORTHERN IRELAND DEPOSIT SCHEME</text>
  <text x="400" y="55" text-anchor="middle" fill="#22C55E" font-size="11" font-family="Arial">Tenancy deposit protection requirements in NI</text>

  <!-- Deposit icon -->
  <g transform="translate(60, 80)">
    <rect x="0" y="0" width="200" height="175" rx="12" fill="white" stroke="#22C55E" stroke-width="2"/>
    <g transform="translate(25, 8)">
      <!-- Safe box -->
      <rect x="20" y="15" width="80" height="70" rx="6" fill="#D1FAE5" stroke="#065F46" stroke-width="2"/>
      <circle cx="60" cy="50" r="18" fill="white" stroke="#22C55E" stroke-width="2"/>
      <text x="60" y="56" text-anchor="middle" fill="#065F46" font-size="16" font-weight="bold">£</text>
      <!-- NI flag colors hint -->
      <rect x="105" y="20" width="25" height="15" fill="#065F46"/>
      <rect x="105" y="35" width="25" height="15" fill="white" stroke="#065F46" stroke-width="1"/>
      <rect x="105" y="50" width="25" height="15" fill="#22C55E"/>
    </g>
    <text x="100" y="125" text-anchor="middle" fill="#065F46" font-size="11" font-weight="bold">NI DEPOSIT</text>
    <text x="100" y="143" text-anchor="middle" fill="#22C55E" font-size="9">Protection</text>
    <text x="100" y="158" text-anchor="middle" fill="#22C55E" font-size="9">scheme</text>
  </g>

  <!-- Requirements -->
  <g transform="translate(280, 80)">
    <rect x="0" y="0" width="240" height="175" rx="12" fill="white" stroke="#065F46" stroke-width="2"/>
    <rect x="0" y="0" width="240" height="32" rx="12" fill="#065F46"/>
    <rect x="0" y="20" width="240" height="12" fill="#065F46"/>
    <text x="120" y="22" text-anchor="middle" fill="white" font-size="10" font-weight="bold">NI REQUIREMENTS</text>
    <g transform="translate(15, 45)">
      <rect x="0" y="0" width="14" height="14" rx="3" fill="#22C55E"/>
      <path d="M3 7 L6 10 L11 4" stroke="white" stroke-width="2" fill="none"/>
      <text x="22" y="11" fill="#065F46" font-size="9">Protect within 14 days</text>
    </g>
    <g transform="translate(15, 68)">
      <rect x="0" y="0" width="14" height="14" rx="3" fill="#22C55E"/>
      <path d="M3 7 L6 10 L11 4" stroke="white" stroke-width="2" fill="none"/>
      <text x="22" y="11" fill="#065F46" font-size="9">Provide prescribed info</text>
    </g>
    <g transform="translate(15, 91)">
      <rect x="0" y="0" width="14" height="14" rx="3" fill="#065F46"/>
      <path d="M3 7 L6 10 L11 4" stroke="white" stroke-width="2" fill="none"/>
      <text x="22" y="11" fill="#065F46" font-size="9">Use approved scheme</text>
    </g>
    <g transform="translate(15, 114)">
      <rect x="0" y="0" width="14" height="14" rx="3" fill="#065F46"/>
      <path d="M3 7 L6 10 L11 4" stroke="white" stroke-width="2" fill="none"/>
      <text x="22" y="11" fill="#065F46" font-size="9">Keep evidence of protection</text>
    </g>
    <g transform="translate(15, 137)">
      <text x="0" y="11" fill="#22C55E" font-size="9" font-weight="bold">28 days to return deposit</text>
    </g>
  </g>

  <!-- Schemes -->
  <g transform="translate(540, 80)">
    <rect x="0" y="0" width="200" height="175" rx="12" fill="white" stroke="#3B82F6" stroke-width="2"/>
    <rect x="0" y="0" width="200" height="32" rx="12" fill="#3B82F6"/>
    <rect x="0" y="20" width="200" height="12" fill="#3B82F6"/>
    <text x="100" y="22" text-anchor="middle" fill="white" font-size="10" font-weight="bold">APPROVED SCHEMES</text>
    <g transform="translate(15, 48)">
      <circle cx="7" cy="7" r="5" fill="#3B82F6"/>
      <text x="22" y="11" fill="#065F46" font-size="9">TDS Northern Ireland</text>
    </g>
    <g transform="translate(15, 71)">
      <circle cx="7" cy="7" r="5" fill="#3B82F6"/>
      <text x="22" y="11" fill="#065F46" font-size="9">mydeposits NI</text>
    </g>
    <g transform="translate(15, 94)">
      <circle cx="7" cy="7" r="5" fill="#1E40AF"/>
      <text x="22" y="11" fill="#065F46" font-size="9">DPS Northern Ireland</text>
    </g>
    <g transform="translate(15, 117)">
      <circle cx="7" cy="7" r="5" fill="#1E40AF"/>
      <text x="22" y="11" fill="#065F46" font-size="9">Custodial or insured</text>
    </g>
    <g transform="translate(15, 140)">
      <text x="0" y="11" fill="#3B82F6" font-size="9" font-weight="bold">Free ADR service</text>
    </g>
  </g>

  <!-- Details section -->
  <g transform="translate(60, 275)">
    <rect x="0" y="0" width="680" height="170" rx="12" fill="white" stroke="#065F46" stroke-width="2"/>
    <rect x="0" y="0" width="680" height="32" rx="12" fill="#065F46"/>
    <rect x="0" y="20" width="680" height="12" fill="#065F46"/>
    <text x="340" y="22" text-anchor="middle" fill="white" font-size="10" font-weight="bold">NI DEPOSIT SCHEME ESSENTIALS</text>
    <g transform="translate(20, 48)">
      <rect x="0" y="0" width="200" height="105" rx="8" fill="#22C55E" opacity="0.1"/>
      <text x="100" y="20" text-anchor="middle" fill="#22C55E" font-size="10" font-weight="bold">PROTECTION</text>
      <text x="100" y="42" text-anchor="middle" fill="#065F46" font-size="8">All private tenancy deposits</text>
      <text x="100" y="55" text-anchor="middle" fill="#065F46" font-size="8">14 day deadline from receipt</text>
      <text x="100" y="75" text-anchor="middle" fill="#065F46" font-size="8">Landlord must protect</text>
      <text x="100" y="94" text-anchor="middle" fill="#22C55E" font-size="8" font-weight="bold">Certificate to tenant</text>
    </g>
    <g transform="translate(240, 48)">
      <rect x="0" y="0" width="200" height="105" rx="8" fill="#3B82F6" opacity="0.1"/>
      <text x="100" y="20" text-anchor="middle" fill="#3B82F6" font-size="10" font-weight="bold">DISPUTES</text>
      <text x="100" y="42" text-anchor="middle" fill="#065F46" font-size="8">Use scheme's ADR</text>
      <text x="100" y="55" text-anchor="middle" fill="#065F46" font-size="8">Free dispute resolution</text>
      <text x="100" y="75" text-anchor="middle" fill="#065F46" font-size="8">Evidence based decisions</text>
      <text x="100" y="94" text-anchor="middle" fill="#3B82F6" font-size="8" font-weight="bold">Binding outcome</text>
    </g>
    <g transform="translate(460, 48)">
      <rect x="0" y="0" width="200" height="105" rx="8" fill="#EF4444" opacity="0.1"/>
      <text x="100" y="20" text-anchor="middle" fill="#EF4444" font-size="10" font-weight="bold">PENALTIES</text>
      <text x="100" y="42" text-anchor="middle" fill="#065F46" font-size="8">Compensation up to 3x deposit</text>
      <text x="100" y="55" text-anchor="middle" fill="#065F46" font-size="8">Cannot serve valid notice</text>
      <text x="100" y="75" text-anchor="middle" fill="#065F46" font-size="8">County Court claims</text>
      <text x="100" y="94" text-anchor="middle" fill="#EF4444" font-size="8" font-weight="bold">Defence against possession</text>
    </g>
  </g>

  <circle cx="40" cy="40" r="20" fill="#22C55E" opacity="0.1"/>
  <circle cx="760" cy="460" r="25" fill="#065F46" opacity="0.12"/>
</svg>
