<svg viewBox="0 0 800 500" xmlns="http://www.w3.org/2000/svg">
  <defs>
    <linearGradient id="bgGrad" x1="0%" y1="0%" x2="100%" y2="100%">
      <stop offset="0%" style="stop-color:#ECFDF5"/>
      <stop offset="100%" style="stop-color:#D1FAE5"/>
    </linearGradient>
  </defs>
  <rect width="800" height="500" fill="url(#bgGrad)"/>

  <text x="400" y="40" text-anchor="middle" fill="#047857" font-size="24" font-weight="bold" font-family="Arial">PAYMENT PLAN</text>
  <text x="400" y="62" text-anchor="middle" fill="#059669" font-size="12" font-family="Arial">Structured repayment schedule for arrears</text>

  <g transform="translate(130, 120)">
    <rect x="0" y="0" width="540" height="260" rx="18" fill="#FFFFFF" stroke="#A7F3D0" stroke-width="2"/>
    <rect x="0" y="0" width="540" height="50" rx="18" fill="#047857"/>
    <text x="270" y="32" text-anchor="middle" fill="white" font-size="16" font-weight="bold" font-family="Arial">REPAYMENT SCHEDULE</text>

    <g transform="translate(60, 95)" font-family="Arial" font-size="13" fill="#047857">
      <text x="0" y="0">Month 1</text>
      <text x="0" y="32">Month 2</text>
      <text x="0" y="64">Month 3</text>
      <text x="0" y="96">Month 4</text>
    </g>

    <g transform="translate(160, 85)">
      <rect x="0" y="0" width="280" height="140" rx="12" fill="#ECFDF5" stroke="#047857" stroke-width="2"/>
      <rect x="20" y="22" width="220" height="12" rx="6" fill="#10B981"/>
      <rect x="20" y="52" width="200" height="12" rx="6" fill="#6EE7B7"/>
      <rect x="20" y="82" width="180" height="12" rx="6" fill="#A7F3D0"/>
      <rect x="20" y="112" width="160" height="12" rx="6" fill="#D1FAE5"/>
    </g>

    <g transform="translate(460, 95)">
      <circle cx="40" cy="40" r="32" fill="#ECFDF5" stroke="#047857" stroke-width="2"/>
      <text x="40" y="45" text-anchor="middle" fill="#047857" font-size="18" font-weight="bold" font-family="Arial">£</text>
    </g>
  </g>
</svg>
