<svg viewBox="0 0 800 500" xmlns="http://www.w3.org/2000/svg">
  <defs>
    <linearGradient id="bgGrad" x1="0%" y1="0%" x2="100%" y2="100%">
      <stop offset="0%" style="stop-color:#ECFDF5"/>
      <stop offset="100%" style="stop-color:#D1FAE5"/>
    </linearGradient>
  </defs>
  <rect width="800" height="500" fill="url(#bgGrad)"/>

  <!-- Title -->
  <text x="400" y="35" text-anchor="middle" fill="#065F46" font-size="22" font-weight="bold" font-family="Arial">RENT PAYMENT METHODS</text>
  <text x="400" y="55" text-anchor="middle" fill="#22C55E" font-size="11" font-family="Arial">Options for collecting rent from tenants</text>

  <!-- Payment icon -->
  <g transform="translate(60, 80)">
    <rect x="0" y="0" width="200" height="175" rx="12" fill="white" stroke="#22C55E" stroke-width="2"/>
    <g transform="translate(25, 8)">
      <!-- Credit card -->
      <rect x="15" y="20" width="90" height="55" rx="6" fill="#D1FAE5" stroke="#065F46" stroke-width="2"/>
      <rect x="15" y="35" width="90" height="12" fill="#22C55E"/>
      <rect x="25" y="55" width="30" height="8" rx="2" fill="#065F46"/>
      <rect x="65" y="55" width="20" height="8" rx="2" fill="#065F46"/>
      <!-- Money -->
      <circle cx="85" cy="70" r="15" fill="#22C55E"/>
      <text x="85" y="75" text-anchor="middle" fill="white" font-size="14" font-weight="bold">£</text>
    </g>
    <text x="100" y="125" text-anchor="middle" fill="#065F46" font-size="11" font-weight="bold">PAYMENT</text>
    <text x="100" y="143" text-anchor="middle" fill="#22C55E" font-size="9">Methods</text>
    <text x="100" y="158" text-anchor="middle" fill="#22C55E" font-size="9">for rent</text>
  </g>

  <!-- Payment options -->
  <g transform="translate(280, 80)">
    <rect x="0" y="0" width="240" height="175" rx="12" fill="white" stroke="#065F46" stroke-width="2"/>
    <rect x="0" y="0" width="240" height="32" rx="12" fill="#065F46"/>
    <rect x="0" y="20" width="240" height="12" fill="#065F46"/>
    <text x="120" y="22" text-anchor="middle" fill="white" font-size="10" font-weight="bold">PAYMENT OPTIONS</text>
    <g transform="translate(15, 45)">
      <rect x="0" y="0" width="14" height="14" rx="3" fill="#22C55E"/>
      <path d="M3 7 L6 10 L11 4" stroke="white" stroke-width="2" fill="none"/>
      <text x="22" y="11" fill="#065F46" font-size="9">Standing order (best)</text>
    </g>
    <g transform="translate(15, 68)">
      <rect x="0" y="0" width="14" height="14" rx="3" fill="#22C55E"/>
      <path d="M3 7 L6 10 L11 4" stroke="white" stroke-width="2" fill="none"/>
      <text x="22" y="11" fill="#065F46" font-size="9">Bank transfer</text>
    </g>
    <g transform="translate(15, 91)">
      <rect x="0" y="0" width="14" height="14" rx="3" fill="#065F46"/>
      <path d="M3 7 L6 10 L11 4" stroke="white" stroke-width="2" fill="none"/>
      <text x="22" y="11" fill="#065F46" font-size="9">Direct debit</text>
    </g>
    <g transform="translate(15, 114)">
      <rect x="0" y="0" width="14" height="14" rx="3" fill="#065F46"/>
      <path d="M3 7 L6 10 L11 4" stroke="white" stroke-width="2" fill="none"/>
      <text x="22" y="11" fill="#065F46" font-size="9">Online rent service</text>
    </g>
    <g transform="translate(15, 137)">
      <text x="0" y="11" fill="#22C55E" font-size="9" font-weight="bold">Avoid cash payments</text>
    </g>
  </g>

  <!-- Standing order benefits -->
  <g transform="translate(540, 80)">
    <rect x="0" y="0" width="200" height="175" rx="12" fill="white" stroke="#3B82F6" stroke-width="2"/>
    <rect x="0" y="0" width="200" height="32" rx="12" fill="#3B82F6"/>
    <rect x="0" y="20" width="200" height="12" fill="#3B82F6"/>
    <text x="100" y="22" text-anchor="middle" fill="white" font-size="10" font-weight="bold">STANDING ORDER</text>
    <g transform="translate(15, 48)">
      <circle cx="7" cy="7" r="5" fill="#3B82F6"/>
      <text x="22" y="11" fill="#065F46" font-size="9">Automatic monthly</text>
    </g>
    <g transform="translate(15, 71)">
      <circle cx="7" cy="7" r="5" fill="#3B82F6"/>
      <text x="22" y="11" fill="#065F46" font-size="9">Tenant controlled</text>
    </g>
    <g transform="translate(15, 94)">
      <circle cx="7" cy="7" r="5" fill="#1E40AF"/>
      <text x="22" y="11" fill="#065F46" font-size="9">Clear audit trail</text>
    </g>
    <g transform="translate(15, 117)">
      <circle cx="7" cy="7" r="5" fill="#1E40AF"/>
      <text x="22" y="11" fill="#065F46" font-size="9">No fees for landlord</text>
    </g>
    <g transform="translate(15, 140)">
      <text x="0" y="11" fill="#3B82F6" font-size="9" font-weight="bold">Recommended method</text>
    </g>
  </g>

  <!-- Details section -->
  <g transform="translate(60, 275)">
    <rect x="0" y="0" width="680" height="170" rx="12" fill="white" stroke="#065F46" stroke-width="2"/>
    <rect x="0" y="0" width="680" height="32" rx="12" fill="#065F46"/>
    <rect x="0" y="20" width="680" height="12" fill="#065F46"/>
    <text x="340" y="22" text-anchor="middle" fill="white" font-size="10" font-weight="bold">PAYMENT METHOD COMPARISON</text>
    <g transform="translate(20, 48)">
      <rect x="0" y="0" width="200" height="105" rx="8" fill="#22C55E" opacity="0.1"/>
      <text x="100" y="20" text-anchor="middle" fill="#22C55E" font-size="10" font-weight="bold">ELECTRONIC</text>
      <text x="100" y="42" text-anchor="middle" fill="#065F46" font-size="8">Easy record keeping</text>
      <text x="100" y="55" text-anchor="middle" fill="#065F46" font-size="8">Clear payment dates</text>
      <text x="100" y="75" text-anchor="middle" fill="#065F46" font-size="8">Secure transfer</text>
      <text x="100" y="94" text-anchor="middle" fill="#22C55E" font-size="8" font-weight="bold">Best for evidence</text>
    </g>
    <g transform="translate(240, 48)">
      <rect x="0" y="0" width="200" height="105" rx="8" fill="#F59E0B" opacity="0.1"/>
      <text x="100" y="20" text-anchor="middle" fill="#F59E0B" font-size="10" font-weight="bold">CASH RISKS</text>
      <text x="100" y="42" text-anchor="middle" fill="#065F46" font-size="8">No automatic record</text>
      <text x="100" y="55" text-anchor="middle" fill="#065F46" font-size="8">Security concerns</text>
      <text x="100" y="75" text-anchor="middle" fill="#065F46" font-size="8">Disputes possible</text>
      <text x="100" y="94" text-anchor="middle" fill="#F59E0B" font-size="8" font-weight="bold">Always give receipts</text>
    </g>
    <g transform="translate(460, 48)">
      <rect x="0" y="0" width="200" height="105" rx="8" fill="#3B82F6" opacity="0.1"/>
      <text x="100" y="20" text-anchor="middle" fill="#3B82F6" font-size="10" font-weight="bold">RENT SERVICES</text>
      <text x="100" y="42" text-anchor="middle" fill="#065F46" font-size="8">Payment tracking</text>
      <text x="100" y="55" text-anchor="middle" fill="#065F46" font-size="8">Automatic reminders</text>
      <text x="100" y="75" text-anchor="middle" fill="#065F46" font-size="8">Late payment alerts</text>
      <text x="100" y="94" text-anchor="middle" fill="#3B82F6" font-size="8" font-weight="bold">Monthly fees apply</text>
    </g>
  </g>

  <circle cx="40" cy="40" r="20" fill="#22C55E" opacity="0.1"/>
  <circle cx="760" cy="460" r="25" fill="#065F46" opacity="0.12"/>
</svg>
