<svg viewBox="0 0 800 500" xmlns="http://www.w3.org/2000/svg">
  <defs>
    <linearGradient id="bgGrad" x1="0%" y1="0%" x2="100%" y2="100%">
      <stop offset="0%" style="stop-color:#F3F1FF"/>
      <stop offset="100%" style="stop-color:#E9E5FF"/>
    </linearGradient>
  </defs>
  <rect width="800" height="500" fill="url(#bgGrad)"/>

  <!-- Title -->
  <text x="400" y="35" text-anchor="middle" fill="#7C3AED" font-size="22" font-weight="bold" font-family="Arial">PORTFOLIO RISK MANAGEMENT</text>
  <text x="400" y="55" text-anchor="middle" fill="#6D28D9" font-size="11" font-family="Arial">Protecting your property investment portfolio</text>

  <!-- Shield icon -->
  <g transform="translate(60, 80)">
    <rect x="0" y="0" width="200" height="175" rx="12" fill="white" stroke="#7C3AED" stroke-width="2"/>

    <!-- Shield with checkmark -->
    <g transform="translate(45, 10)">
      <path d="M55 5 L105 20 L105 55 C105 75 80 95 55 100 C30 95 5 75 5 55 L5 20 Z" fill="#22C55E"/>
      <path d="M55 12 L98 25 L98 55 C98 70 77 87 55 92 C33 87 12 70 12 55 L12 25 Z" fill="#22C55E"/>
      <!-- Checkmark -->
      <path d="M35 50 L50 65 L75 35" stroke="white" stroke-width="6" fill="none"/>
    </g>

    <text x="100" y="125" text-anchor="middle" fill="#7C3AED" font-size="11" font-weight="bold">PROTECTION</text>
    <text x="100" y="143" text-anchor="middle" fill="#6D28D9" font-size="9">Manage your</text>
    <text x="100" y="158" text-anchor="middle" fill="#6D28D9" font-size="9">risks</text>
  </g>

  <!-- Risk types -->
  <g transform="translate(280, 80)">
    <rect x="0" y="0" width="240" height="175" rx="12" fill="white" stroke="#EF4444" stroke-width="2"/>
    <rect x="0" y="0" width="240" height="32" rx="12" fill="#EF4444"/>
    <rect x="0" y="20" width="240" height="12" fill="#EF4444"/>
    <text x="120" y="22" text-anchor="middle" fill="white" font-size="10" font-weight="bold">PORTFOLIO RISKS</text>

    <g transform="translate(15, 45)">
      <polygon points="8,0 16,14 0,14" fill="#EF4444"/>
      <text x="8" y="10" text-anchor="middle" fill="white" font-size="7" font-weight="bold">!</text>
      <text x="22" y="12" fill="#6D28D9" font-size="9">Void periods</text>
    </g>
    <g transform="translate(15, 68)">
      <polygon points="8,0 16,14 0,14" fill="#EF4444"/>
      <text x="8" y="10" text-anchor="middle" fill="white" font-size="7" font-weight="bold">!</text>
      <text x="22" y="12" fill="#6D28D9" font-size="9">Interest rate rises</text>
    </g>
    <g transform="translate(15, 91)">
      <polygon points="8,0 16,14 0,14" fill="#F59E0B"/>
      <text x="8" y="10" text-anchor="middle" fill="white" font-size="7" font-weight="bold">!</text>
      <text x="22" y="12" fill="#6D28D9" font-size="9">Rent arrears</text>
    </g>
    <g transform="translate(15, 114)">
      <polygon points="8,0 16,14 0,14" fill="#F59E0B"/>
      <text x="8" y="10" text-anchor="middle" fill="white" font-size="7" font-weight="bold">!</text>
      <text x="22" y="12" fill="#6D28D9" font-size="9">Property damage</text>
    </g>
    <g transform="translate(15, 137)">
      <polygon points="8,0 16,14 0,14" fill="#7C3AED"/>
      <text x="8" y="10" text-anchor="middle" fill="white" font-size="7" font-weight="bold">!</text>
      <text x="22" y="12" fill="#6D28D9" font-size="9">Market downturns</text>
    </g>
  </g>

  <!-- Mitigation strategies -->
  <g transform="translate(540, 80)">
    <rect x="0" y="0" width="200" height="175" rx="12" fill="white" stroke="#22C55E" stroke-width="2"/>
    <rect x="0" y="0" width="200" height="32" rx="12" fill="#22C55E"/>
    <rect x="0" y="20" width="200" height="12" fill="#22C55E"/>
    <text x="100" y="22" text-anchor="middle" fill="white" font-size="10" font-weight="bold">MITIGATION</text>

    <g transform="translate(15, 48)">
      <rect x="0" y="0" width="14" height="14" rx="3" fill="#22C55E"/>
      <path d="M3 7 L6 10 L11 4" stroke="white" stroke-width="2" fill="none"/>
      <text x="22" y="11" fill="#6D28D9" font-size="9">Diversify locations</text>
    </g>
    <g transform="translate(15, 71)">
      <rect x="0" y="0" width="14" height="14" rx="3" fill="#22C55E"/>
      <path d="M3 7 L6 10 L11 4" stroke="white" stroke-width="2" fill="none"/>
      <text x="22" y="11" fill="#6D28D9" font-size="9">Mix property types</text>
    </g>
    <g transform="translate(15, 94)">
      <rect x="0" y="0" width="14" height="14" rx="3" fill="#22C55E"/>
      <path d="M3 7 L6 10 L11 4" stroke="white" stroke-width="2" fill="none"/>
      <text x="22" y="11" fill="#6D28D9" font-size="9">Comprehensive insurance</text>
    </g>
    <g transform="translate(15, 117)">
      <rect x="0" y="0" width="14" height="14" rx="3" fill="#22C55E"/>
      <path d="M3 7 L6 10 L11 4" stroke="white" stroke-width="2" fill="none"/>
      <text x="22" y="11" fill="#6D28D9" font-size="9">Cash reserves</text>
    </g>
    <g transform="translate(15, 140)">
      <rect x="0" y="0" width="14" height="14" rx="3" fill="#22C55E"/>
      <path d="M3 7 L6 10 L11 4" stroke="white" stroke-width="2" fill="none"/>
      <text x="22" y="11" fill="#6D28D9" font-size="9">Tenant screening</text>
    </g>
  </g>

  <!-- Risk management detail -->
  <g transform="translate(60, 275)">
    <rect x="0" y="0" width="680" height="170" rx="12" fill="white" stroke="#7C3AED" stroke-width="2"/>
    <rect x="0" y="0" width="680" height="32" rx="12" fill="#7C3AED"/>
    <rect x="0" y="20" width="680" height="12" fill="#7C3AED"/>
    <text x="340" y="22" text-anchor="middle" fill="white" font-size="10" font-weight="bold">RISK MANAGEMENT FRAMEWORK</text>

    <g transform="translate(20, 48)">
      <rect x="0" y="0" width="200" height="105" rx="8" fill="#EF4444" opacity="0.1"/>
      <text x="100" y="20" text-anchor="middle" fill="#EF4444" font-size="10" font-weight="bold">FINANCIAL BUFFERS</text>
      <text x="100" y="42" text-anchor="middle" fill="#6D28D9" font-size="8">• 6 months expenses saved</text>
      <text x="100" y="55" text-anchor="middle" fill="#6D28D9" font-size="8">• Fix mortgage rates</text>
      <text x="100" y="68" text-anchor="middle" fill="#6D28D9" font-size="8">• Stress test at 8%+</text>
      <text x="100" y="81" text-anchor="middle" fill="#6D28D9" font-size="8">• Don't over-leverage</text>
      <text x="100" y="94" text-anchor="middle" fill="#EF4444" font-size="8" font-weight="bold">Cashflow is king</text>
    </g>

    <g transform="translate(240, 48)">
      <rect x="0" y="0" width="200" height="105" rx="8" fill="#F3F1FF"/>
      <text x="100" y="20" text-anchor="middle" fill="#7C3AED" font-size="10" font-weight="bold">INSURANCE COVERAGE</text>
      <text x="100" y="42" text-anchor="middle" fill="#6D28D9" font-size="8">• Buildings insurance</text>
      <text x="100" y="55" text-anchor="middle" fill="#6D28D9" font-size="8">• Landlord contents</text>
      <text x="100" y="68" text-anchor="middle" fill="#6D28D9" font-size="8">• Rent guarantee</text>
      <text x="100" y="81" text-anchor="middle" fill="#6D28D9" font-size="8">• Legal expenses</text>
      <text x="100" y="94" text-anchor="middle" fill="#7C3AED" font-size="8" font-weight="bold">Full portfolio cover</text>
    </g>

    <g transform="translate(460, 48)">
      <rect x="0" y="0" width="200" height="105" rx="8" fill="#22C55E" opacity="0.1"/>
      <text x="100" y="20" text-anchor="middle" fill="#22C55E" font-size="10" font-weight="bold">OPERATIONAL</text>
      <text x="100" y="42" text-anchor="middle" fill="#6D28D9" font-size="8">• Regular inspections</text>
      <text x="100" y="55" text-anchor="middle" fill="#6D28D9" font-size="8">• Preventive maintenance</text>
      <text x="100" y="68" text-anchor="middle" fill="#6D28D9" font-size="8">• Good tenant relations</text>
      <text x="100" y="81" text-anchor="middle" fill="#6D28D9" font-size="8">• Stay compliant</text>
      <text x="100" y="94" text-anchor="middle" fill="#22C55E" font-size="8" font-weight="bold">Prevention over cure</text>
    </g>
  </g>

  <circle cx="40" cy="40" r="20" fill="#7C3AED" opacity="0.1"/>
  <circle cx="760" cy="460" r="25" fill="#A78BFA" opacity="0.12"/>
</svg>
