<svg viewBox="0 0 800 500" xmlns="http://www.w3.org/2000/svg">
  <defs>
    <linearGradient id="bgGrad" x1="0%" y1="0%" x2="100%" y2="100%">
      <stop offset="0%" style="stop-color:#F3F1FF"/>
      <stop offset="100%" style="stop-color:#E9E5FF"/>
    </linearGradient>
    <pattern id="tartan" patternUnits="userSpaceOnUse" width="40" height="40">
      <rect width="40" height="40" fill="#A78BFA"/>
      <rect width="20" height="40" fill="#7C3AED" opacity="0.3"/>
      <rect width="40" height="20" fill="#7C3AED" opacity="0.3"/>
      <rect width="5" height="40" x="17.5" fill="#6D28D9" opacity="0.4"/>
      <rect width="40" height="5" y="17.5" fill="#6D28D9" opacity="0.4"/>
    </pattern>
  </defs>
  <rect width="800" height="500" fill="url(#bgGrad)"/>

  <!-- Scotland outline (simplified) -->
  <g transform="translate(280, 80)">
    <path d="M100 0 C120 20 140 10 160 30 C180 50 200 40 220 60 L240 100 C220 120 230 140 210 160
             L180 180 C160 200 170 220 150 240 L120 260 C100 280 80 270 60 290 L40 320
             C20 340 30 360 10 380 L0 350 C20 330 10 310 30 290 L50 250 C70 230 60 210 80 190
             L60 160 C40 140 50 120 30 100 L50 60 C70 40 80 50 100 30 Z"
          fill="url(#tartan)" stroke="#7C3AED" stroke-width="3"/>

    <!-- Castle icon -->
    <g transform="translate(80, 100)">
      <rect x="0" y="40" width="80" height="60" fill="white" stroke="#7C3AED" stroke-width="2"/>
      <rect x="0" y="30" width="20" height="10" fill="#6D28D9"/>
      <rect x="30" y="30" width="20" height="10" fill="#6D28D9"/>
      <rect x="60" y="30" width="20" height="10" fill="#6D28D9"/>
      <rect x="30" y="65" width="20" height="35" fill="#7C3AED"/>
    </g>
  </g>

  <!-- Scottish legal document -->
  <g transform="translate(500, 150)">
    <rect x="0" y="0" width="180" height="220" rx="8" fill="white" stroke="#7C3AED" stroke-width="2"/>
    <rect x="15" y="20" width="50" height="6" rx="3" fill="#7C3AED"/>
    <rect x="15" y="40" width="150" height="5" rx="2" fill="#94A3B8" opacity="0.3"/>
    <rect x="15" y="55" width="130" height="5" rx="2" fill="#94A3B8" opacity="0.3"/>
    <rect x="15" y="70" width="145" height="5" rx="2" fill="#94A3B8" opacity="0.3"/>
    <rect x="15" y="100" width="150" height="5" rx="2" fill="#94A3B8" opacity="0.3"/>
    <rect x="15" y="115" width="120" height="5" rx="2" fill="#94A3B8" opacity="0.3"/>
    <rect x="15" y="160" width="80" height="40" rx="5" stroke="#7C3AED" stroke-width="1" fill="none"/>
  </g>
</svg>