<svg viewBox="0 0 800 500" xmlns="http://www.w3.org/2000/svg">
  <defs>
    <linearGradient id="bgGrad" x1="0%" y1="0%" x2="100%" y2="100%">
      <stop offset="0%" style="stop-color:#ECFDF5"/>
      <stop offset="100%" style="stop-color:#D1FAE5"/>
    </linearGradient>
  </defs>
  <rect width="800" height="500" fill="url(#bgGrad)"/>

  <!-- Title -->
  <text x="400" y="35" text-anchor="middle" fill="#065F46" font-size="22" font-weight="bold" font-family="Arial">RENT LEDGER MANAGEMENT</text>
  <text x="400" y="55" text-anchor="middle" fill="#22C55E" font-size="11" font-family="Arial">Tracking rent payments and tenant accounts</text>

  <!-- Ledger icon -->
  <g transform="translate(60, 80)">
    <rect x="0" y="0" width="200" height="175" rx="12" fill="white" stroke="#22C55E" stroke-width="2"/>
    <g transform="translate(25, 8)">
      <!-- Ledger book -->
      <rect x="20" y="15" width="90" height="70" rx="4" fill="#D1FAE5" stroke="#065F46" stroke-width="2"/>
      <line x1="55" y1="15" x2="55" y2="85" stroke="#065F46" stroke-width="1"/>
      <!-- Lines -->
      <line x1="28" y1="30" x2="100" y2="30" stroke="#22C55E" stroke-width="1"/>
      <line x1="28" y1="42" x2="100" y2="42" stroke="#22C55E" stroke-width="1"/>
      <line x1="28" y1="54" x2="100" y2="54" stroke="#22C55E" stroke-width="1"/>
      <line x1="28" y1="66" x2="100" y2="66" stroke="#22C55E" stroke-width="1"/>
      <!-- Pound sign -->
      <text x="75" y="55" fill="#065F46" font-size="20" font-weight="bold">£</text>
    </g>
    <text x="100" y="125" text-anchor="middle" fill="#065F46" font-size="11" font-weight="bold">RENT</text>
    <text x="100" y="143" text-anchor="middle" fill="#22C55E" font-size="9">Ledger</text>
    <text x="100" y="158" text-anchor="middle" fill="#22C55E" font-size="9">records</text>
  </g>

  <!-- What to track -->
  <g transform="translate(280, 80)">
    <rect x="0" y="0" width="240" height="175" rx="12" fill="white" stroke="#065F46" stroke-width="2"/>
    <rect x="0" y="0" width="240" height="32" rx="12" fill="#065F46"/>
    <rect x="0" y="20" width="240" height="12" fill="#065F46"/>
    <text x="120" y="22" text-anchor="middle" fill="white" font-size="10" font-weight="bold">WHAT TO TRACK</text>
    <g transform="translate(15, 45)">
      <rect x="0" y="0" width="14" height="14" rx="3" fill="#22C55E"/>
      <path d="M3 7 L6 10 L11 4" stroke="white" stroke-width="2" fill="none"/>
      <text x="22" y="11" fill="#065F46" font-size="9">Rent due dates</text>
    </g>
    <g transform="translate(15, 68)">
      <rect x="0" y="0" width="14" height="14" rx="3" fill="#22C55E"/>
      <path d="M3 7 L6 10 L11 4" stroke="white" stroke-width="2" fill="none"/>
      <text x="22" y="11" fill="#065F46" font-size="9">Payment received dates</text>
    </g>
    <g transform="translate(15, 91)">
      <rect x="0" y="0" width="14" height="14" rx="3" fill="#065F46"/>
      <path d="M3 7 L6 10 L11 4" stroke="white" stroke-width="2" fill="none"/>
      <text x="22" y="11" fill="#065F46" font-size="9">Payment method</text>
    </g>
    <g transform="translate(15, 114)">
      <rect x="0" y="0" width="14" height="14" rx="3" fill="#065F46"/>
      <path d="M3 7 L6 10 L11 4" stroke="white" stroke-width="2" fill="none"/>
      <text x="22" y="11" fill="#065F46" font-size="9">Outstanding balance</text>
    </g>
    <g transform="translate(15, 137)">
      <text x="0" y="11" fill="#22C55E" font-size="9" font-weight="bold">Late payment notes</text>
    </g>
  </g>

  <!-- Best practices -->
  <g transform="translate(540, 80)">
    <rect x="0" y="0" width="200" height="175" rx="12" fill="white" stroke="#3B82F6" stroke-width="2"/>
    <rect x="0" y="0" width="200" height="32" rx="12" fill="#3B82F6"/>
    <rect x="0" y="20" width="200" height="12" fill="#3B82F6"/>
    <text x="100" y="22" text-anchor="middle" fill="white" font-size="10" font-weight="bold">BEST PRACTICES</text>
    <g transform="translate(15, 48)">
      <circle cx="7" cy="7" r="5" fill="#3B82F6"/>
      <text x="22" y="11" fill="#065F46" font-size="9">Update daily/weekly</text>
    </g>
    <g transform="translate(15, 71)">
      <circle cx="7" cy="7" r="5" fill="#3B82F6"/>
      <text x="22" y="11" fill="#065F46" font-size="9">Keep 6+ years records</text>
    </g>
    <g transform="translate(15, 94)">
      <circle cx="7" cy="7" r="5" fill="#1E40AF"/>
      <text x="22" y="11" fill="#065F46" font-size="9">Backup regularly</text>
    </g>
    <g transform="translate(15, 117)">
      <circle cx="7" cy="7" r="5" fill="#1E40AF"/>
      <text x="22" y="11" fill="#065F46" font-size="9">Issue receipts</text>
    </g>
    <g transform="translate(15, 140)">
      <text x="0" y="11" fill="#3B82F6" font-size="9" font-weight="bold">Monthly statements</text>
    </g>
  </g>

  <!-- Details section -->
  <g transform="translate(60, 275)">
    <rect x="0" y="0" width="680" height="170" rx="12" fill="white" stroke="#065F46" stroke-width="2"/>
    <rect x="0" y="0" width="680" height="32" rx="12" fill="#065F46"/>
    <rect x="0" y="20" width="680" height="12" fill="#065F46"/>
    <text x="340" y="22" text-anchor="middle" fill="white" font-size="10" font-weight="bold">RENT LEDGER ESSENTIALS</text>
    <g transform="translate(20, 48)">
      <rect x="0" y="0" width="200" height="105" rx="8" fill="#22C55E" opacity="0.1"/>
      <text x="100" y="20" text-anchor="middle" fill="#22C55E" font-size="10" font-weight="bold">RECORD KEEPING</text>
      <text x="100" y="42" text-anchor="middle" fill="#065F46" font-size="8">Tenant name and property</text>
      <text x="100" y="55" text-anchor="middle" fill="#065F46" font-size="8">Tenancy start and end dates</text>
      <text x="100" y="75" text-anchor="middle" fill="#065F46" font-size="8">Rent amount and frequency</text>
      <text x="100" y="94" text-anchor="middle" fill="#22C55E" font-size="8" font-weight="bold">Running balance</text>
    </g>
    <g transform="translate(240, 48)">
      <rect x="0" y="0" width="200" height="105" rx="8" fill="#3B82F6" opacity="0.1"/>
      <text x="100" y="20" text-anchor="middle" fill="#3B82F6" font-size="10" font-weight="bold">TOOLS</text>
      <text x="100" y="42" text-anchor="middle" fill="#065F46" font-size="8">Spreadsheet templates</text>
      <text x="100" y="55" text-anchor="middle" fill="#065F46" font-size="8">Property software</text>
      <text x="100" y="75" text-anchor="middle" fill="#065F46" font-size="8">Accounting integration</text>
      <text x="100" y="94" text-anchor="middle" fill="#3B82F6" font-size="8" font-weight="bold">Automated reminders</text>
    </g>
    <g transform="translate(460, 48)">
      <rect x="0" y="0" width="200" height="105" rx="8" fill="#F59E0B" opacity="0.1"/>
      <text x="100" y="20" text-anchor="middle" fill="#F59E0B" font-size="10" font-weight="bold">LEGAL USE</text>
      <text x="100" y="42" text-anchor="middle" fill="#065F46" font-size="8">Evidence for court</text>
      <text x="100" y="55" text-anchor="middle" fill="#065F46" font-size="8">Arrears documentation</text>
      <text x="100" y="75" text-anchor="middle" fill="#065F46" font-size="8">Tax records</text>
      <text x="100" y="94" text-anchor="middle" fill="#F59E0B" font-size="8" font-weight="bold">Dispute resolution</text>
    </g>
  </g>

  <circle cx="40" cy="40" r="20" fill="#22C55E" opacity="0.1"/>
  <circle cx="760" cy="460" r="25" fill="#065F46" opacity="0.12"/>
</svg>
