<svg viewBox="0 0 800 500" xmlns="http://www.w3.org/2000/svg">
  <defs>
    <linearGradient id="bgGrad" x1="0%" y1="0%" x2="100%" y2="100%">
      <stop offset="0%" style="stop-color:#F3F1FF"/>
      <stop offset="100%" style="stop-color:#E9E5FF"/>
    </linearGradient>
  </defs>
  <rect width="800" height="500" fill="url(#bgGrad)"/>

  <!-- Wales outline (simplified) -->
  <g transform="translate(280, 60)">
    <path d="M80 0 L120 30 L150 20 L180 50 L200 80 L180 130 L200 180 L180 230 L160 280
             L120 320 L80 350 L40 320 L20 270 L40 220 L20 170 L40 120 L20 70 L40 40 Z"
          fill="#F3F1FF" stroke="#7C3AED" stroke-width="3"/>

    <!-- Dragon silhouette (simplified) -->
    <g transform="translate(50, 100)">
      <path d="M0 80 C20 60 40 70 60 50 L80 60 C90 40 100 50 110 30 L100 50 L120 60 L100 70
               C80 80 60 75 40 90 L60 100 C40 110 20 100 0 120 L20 100 C10 90 5 85 0 80 Z"
            fill="#7C3AED" opacity="0.3"/>
    </g>
  </g>

  <!-- Welsh legal document -->
  <g transform="translate(480, 100)">
    <rect x="0" y="0" width="200" height="280" rx="10" fill="white" stroke="#7C3AED" stroke-width="2"/>

    <!-- Header with dragon accent -->
    <rect x="0" y="0" width="200" height="50" rx="10" fill="#7C3AED" opacity="0.1"/>
    <rect x="15" y="20" width="80" height="8" rx="4" fill="#7C3AED"/>

    <!-- Content lines -->
    <rect x="15" y="70" width="170" height="6" rx="3" fill="#94A3B8" opacity="0.3"/>
    <rect x="15" y="90" width="150" height="6" rx="3" fill="#94A3B8" opacity="0.3"/>
    <rect x="15" y="110" width="160" height="6" rx="3" fill="#94A3B8" opacity="0.3"/>

    <rect x="15" y="145" width="170" height="6" rx="3" fill="#94A3B8" opacity="0.3"/>
    <rect x="15" y="165" width="140" height="6" rx="3" fill="#94A3B8" opacity="0.3"/>

    <!-- Signature area -->
    <rect x="15" y="210" width="100" height="50" rx="5" stroke="#7C3AED" stroke-width="1" stroke-dasharray="4" fill="none"/>
  </g>

  <!-- Celtic knot decoration -->
  <circle cx="150" cy="400" r="40" fill="none" stroke="#7C3AED" stroke-width="3" opacity="0.3"/>
  <circle cx="150" cy="400" r="25" fill="none" stroke="#7C3AED" stroke-width="3" opacity="0.3"/>
</svg>