<svg viewBox="0 0 800 500" xmlns="http://www.w3.org/2000/svg">
  <defs>
    <linearGradient id="bgGrad" x1="0%" y1="0%" x2="100%" y2="100%">
      <stop offset="0%" style="stop-color:#F3F1FF"/>
      <stop offset="100%" style="stop-color:#E9E5FF"/>
    </linearGradient>
  </defs>
  <rect width="800" height="500" fill="url(#bgGrad)"/>

  <!-- Title -->
  <text x="400" y="35" text-anchor="middle" fill="#7C3AED" font-size="22" font-weight="bold" font-family="Arial">PROPERTY MANAGEMENT SOFTWARE</text>
  <text x="400" y="55" text-anchor="middle" fill="#6D28D9" font-size="11" font-family="Arial">Digital tools for landlords and property managers</text>

  <!-- Dashboard icon -->
  <g transform="translate(60, 80)">
    <rect x="0" y="0" width="200" height="175" rx="12" fill="white" stroke="#7C3AED" stroke-width="2"/>

    <!-- Screen with dashboard -->
    <g transform="translate(25, 8)">
      <rect x="0" y="0" width="150" height="95" rx="4" fill="#6D28D9"/>
      <rect x="5" y="5" width="140" height="80" rx="2" fill="#1a1a2e"/>
      <!-- Dashboard elements -->
      <rect x="10" y="10" width="60" height="35" rx="2" fill="#7C3AED"/>
      <rect x="75" y="10" width="65" height="35" rx="2" fill="#22C55E"/>
      <rect x="10" y="50" width="45" height="30" rx="2" fill="#F59E0B"/>
      <rect x="60" y="50" width="45" height="30" rx="2" fill="#A78BFA"/>
      <rect x="110" y="50" width="30" height="30" rx="2" fill="#EF4444"/>
    </g>

    <text x="100" y="125" text-anchor="middle" fill="#7C3AED" font-size="11" font-weight="bold">DASHBOARD</text>
    <text x="100" y="143" text-anchor="middle" fill="#6D28D9" font-size="9">All properties</text>
    <text x="100" y="158" text-anchor="middle" fill="#6D28D9" font-size="9">at a glance</text>
  </g>

  <!-- Features -->
  <g transform="translate(280, 80)">
    <rect x="0" y="0" width="240" height="175" rx="12" fill="white" stroke="#7C3AED" stroke-width="2"/>
    <rect x="0" y="0" width="240" height="32" rx="12" fill="#7C3AED"/>
    <rect x="0" y="20" width="240" height="12" fill="#7C3AED"/>
    <text x="120" y="22" text-anchor="middle" fill="white" font-size="10" font-weight="bold">KEY FEATURES</text>

    <g transform="translate(15, 45)">
      <rect x="0" y="0" width="14" height="14" rx="3" fill="#7C3AED"/>
      <path d="M3 7 L6 10 L11 4" stroke="white" stroke-width="2" fill="none"/>
      <text x="22" y="11" fill="#6D28D9" font-size="9">Rent tracking &amp; reminders</text>
    </g>
    <g transform="translate(15, 68)">
      <rect x="0" y="0" width="14" height="14" rx="3" fill="#7C3AED"/>
      <path d="M3 7 L6 10 L11 4" stroke="white" stroke-width="2" fill="none"/>
      <text x="22" y="11" fill="#6D28D9" font-size="9">Document storage</text>
    </g>
    <g transform="translate(15, 91)">
      <rect x="0" y="0" width="14" height="14" rx="3" fill="#7C3AED"/>
      <path d="M3 7 L6 10 L11 4" stroke="white" stroke-width="2" fill="none"/>
      <text x="22" y="11" fill="#6D28D9" font-size="9">Maintenance requests</text>
    </g>
    <g transform="translate(15, 114)">
      <rect x="0" y="0" width="14" height="14" rx="3" fill="#6D28D9"/>
      <path d="M3 7 L6 10 L11 4" stroke="white" stroke-width="2" fill="none"/>
      <text x="22" y="11" fill="#6D28D9" font-size="9">Financial reporting</text>
    </g>
    <g transform="translate(15, 137)">
      <rect x="0" y="0" width="14" height="14" rx="3" fill="#6D28D9"/>
      <path d="M3 7 L6 10 L11 4" stroke="white" stroke-width="2" fill="none"/>
      <text x="22" y="11" fill="#6D28D9" font-size="9">Tenant communication</text>
    </g>
  </g>

  <!-- Popular options -->
  <g transform="translate(540, 80)">
    <rect x="0" y="0" width="200" height="175" rx="12" fill="white" stroke="#22C55E" stroke-width="2"/>
    <rect x="0" y="0" width="200" height="32" rx="12" fill="#22C55E"/>
    <rect x="0" y="20" width="200" height="12" fill="#22C55E"/>
    <text x="100" y="22" text-anchor="middle" fill="white" font-size="10" font-weight="bold">POPULAR OPTIONS</text>

    <g transform="translate(15, 48)">
      <circle cx="7" cy="7" r="5" fill="#7C3AED"/>
      <text x="20" y="11" fill="#6D28D9" font-size="9">Arthur Online</text>
    </g>
    <g transform="translate(15, 71)">
      <circle cx="7" cy="7" r="5" fill="#7C3AED"/>
      <text x="20" y="11" fill="#6D28D9" font-size="9">Landlord Studio</text>
    </g>
    <g transform="translate(15, 94)">
      <circle cx="7" cy="7" r="5" fill="#6D28D9"/>
      <text x="20" y="11" fill="#6D28D9" font-size="9">Howsy</text>
    </g>
    <g transform="translate(15, 117)">
      <circle cx="7" cy="7" r="5" fill="#6D28D9"/>
      <text x="20" y="11" fill="#6D28D9" font-size="9">Rentman</text>
    </g>
    <g transform="translate(15, 140)">
      <circle cx="7" cy="7" r="5" fill="#A78BFA"/>
      <text x="20" y="11" fill="#6D28D9" font-size="9">Landlord Vision</text>
    </g>
  </g>

  <!-- Benefits and considerations -->
  <g transform="translate(60, 275)">
    <rect x="0" y="0" width="680" height="170" rx="12" fill="white" stroke="#7C3AED" stroke-width="2"/>
    <rect x="0" y="0" width="680" height="32" rx="12" fill="#7C3AED"/>
    <rect x="0" y="20" width="680" height="12" fill="#7C3AED"/>
    <text x="340" y="22" text-anchor="middle" fill="white" font-size="10" font-weight="bold">WHY USE SOFTWARE</text>

    <g transform="translate(20, 48)">
      <rect x="0" y="0" width="200" height="105" rx="8" fill="#22C55E" opacity="0.1"/>
      <text x="100" y="20" text-anchor="middle" fill="#22C55E" font-size="10" font-weight="bold">BENEFITS</text>
      <text x="100" y="42" text-anchor="middle" fill="#6D28D9" font-size="8">• Save time on admin</text>
      <text x="100" y="55" text-anchor="middle" fill="#6D28D9" font-size="8">• Never miss rent dates</text>
      <text x="100" y="68" text-anchor="middle" fill="#6D28D9" font-size="8">• Organized documents</text>
      <text x="100" y="81" text-anchor="middle" fill="#6D28D9" font-size="8">• Tax-ready reports</text>
      <text x="100" y="94" text-anchor="middle" fill="#22C55E" font-size="8" font-weight="bold">Professional approach</text>
    </g>

    <g transform="translate(240, 48)">
      <rect x="0" y="0" width="200" height="105" rx="8" fill="#F3F1FF"/>
      <text x="100" y="20" text-anchor="middle" fill="#7C3AED" font-size="10" font-weight="bold">PRICING</text>
      <text x="100" y="42" text-anchor="middle" fill="#6D28D9" font-size="8">• Free: Basic tracking</text>
      <text x="100" y="55" text-anchor="middle" fill="#6D28D9" font-size="8">• £5-15/month: Most features</text>
      <text x="100" y="68" text-anchor="middle" fill="#6D28D9" font-size="8">• £20+/month: Full suite</text>
      <text x="100" y="81" text-anchor="middle" fill="#6D28D9" font-size="8">• Per property pricing</text>
      <text x="100" y="94" text-anchor="middle" fill="#7C3AED" font-size="8" font-weight="bold">Start with free trial</text>
    </g>

    <g transform="translate(460, 48)">
      <rect x="0" y="0" width="200" height="105" rx="8" fill="#F59E0B" opacity="0.1"/>
      <text x="100" y="20" text-anchor="middle" fill="#F59E0B" font-size="10" font-weight="bold">WHAT TO LOOK FOR</text>
      <text x="100" y="42" text-anchor="middle" fill="#6D28D9" font-size="8">• UK-focused features</text>
      <text x="100" y="55" text-anchor="middle" fill="#6D28D9" font-size="8">• Mobile app access</text>
      <text x="100" y="68" text-anchor="middle" fill="#6D28D9" font-size="8">• Good support</text>
      <text x="100" y="81" text-anchor="middle" fill="#6D28D9" font-size="8">• Easy to use</text>
      <text x="100" y="94" text-anchor="middle" fill="#F59E0B" font-size="8" font-weight="bold">Check reviews first</text>
    </g>
  </g>

  <circle cx="40" cy="40" r="20" fill="#7C3AED" opacity="0.1"/>
  <circle cx="760" cy="460" r="25" fill="#A78BFA" opacity="0.12"/>
</svg>
