<svg viewBox="0 0 800 500" xmlns="http://www.w3.org/2000/svg">
  <defs>
    <linearGradient id="bgGrad" x1="0%" y1="0%" x2="100%" y2="100%">
      <stop offset="0%" style="stop-color:#F3F1FF"/>
      <stop offset="100%" style="stop-color:#E9E5FF"/>
    </linearGradient>
  </defs>
  <rect width="800" height="500" fill="url(#bgGrad)"/>

  <!-- Title -->
  <text x="400" y="35" text-anchor="middle" fill="#7C3AED" font-size="22" font-weight="bold" font-family="Arial">SOFTWARE FEATURES</text>
  <text x="400" y="55" text-anchor="middle" fill="#6D28D9" font-size="11" font-family="Arial">Essential features to look for in landlord software</text>

  <!-- Dashboard icon -->
  <g transform="translate(60, 80)">
    <rect x="0" y="0" width="200" height="175" rx="12" fill="white" stroke="#7C3AED" stroke-width="2"/>

    <!-- Software dashboard mockup -->
    <g transform="translate(20, 10)">
      <rect x="0" y="0" width="160" height="90" rx="5" fill="#7C3AED"/>
      <!-- Menu bar -->
      <rect x="5" y="5" width="150" height="15" rx="2" fill="#6D28D9"/>
      <circle cx="15" cy="12" r="4" fill="#EF4444"/>
      <circle cx="27" cy="12" r="4" fill="#F59E0B"/>
      <circle cx="39" cy="12" r="4" fill="#22C55E"/>
      <!-- Dashboard widgets -->
      <rect x="5" y="25" width="45" height="30" rx="3" fill="white" opacity="0.9"/>
      <rect x="55" y="25" width="45" height="30" rx="3" fill="white" opacity="0.9"/>
      <rect x="105" y="25" width="45" height="30" rx="3" fill="white" opacity="0.9"/>
      <rect x="5" y="60" width="95" height="25" rx="3" fill="white" opacity="0.9"/>
      <rect x="105" y="60" width="45" height="25" rx="3" fill="#22C55E" opacity="0.5"/>
    </g>

    <text x="100" y="125" text-anchor="middle" fill="#7C3AED" font-size="11" font-weight="bold">FEATURES</text>
    <text x="100" y="143" text-anchor="middle" fill="#6D28D9" font-size="9">Essential</text>
    <text x="100" y="158" text-anchor="middle" fill="#6D28D9" font-size="9">capabilities</text>
  </g>

  <!-- Must-have features -->
  <g transform="translate(280, 80)">
    <rect x="0" y="0" width="240" height="175" rx="12" fill="white" stroke="#22C55E" stroke-width="2"/>
    <rect x="0" y="0" width="240" height="32" rx="12" fill="#22C55E"/>
    <rect x="0" y="20" width="240" height="12" fill="#22C55E"/>
    <text x="120" y="22" text-anchor="middle" fill="white" font-size="10" font-weight="bold">MUST-HAVE FEATURES</text>

    <g transform="translate(15, 45)">
      <rect x="0" y="0" width="14" height="14" rx="3" fill="#22C55E"/>
      <path d="M3 7 L6 10 L11 4" stroke="white" stroke-width="2" fill="none"/>
      <text x="22" y="11" fill="#6D28D9" font-size="9">Rent tracking and reminders</text>
    </g>
    <g transform="translate(15, 68)">
      <rect x="0" y="0" width="14" height="14" rx="3" fill="#22C55E"/>
      <path d="M3 7 L6 10 L11 4" stroke="white" stroke-width="2" fill="none"/>
      <text x="22" y="11" fill="#6D28D9" font-size="9">Tenant database</text>
    </g>
    <g transform="translate(15, 91)">
      <rect x="0" y="0" width="14" height="14" rx="3" fill="#22C55E"/>
      <path d="M3 7 L6 10 L11 4" stroke="white" stroke-width="2" fill="none"/>
      <text x="22" y="11" fill="#6D28D9" font-size="9">Document storage</text>
    </g>
    <g transform="translate(15, 114)">
      <rect x="0" y="0" width="14" height="14" rx="3" fill="#22C55E"/>
      <path d="M3 7 L6 10 L11 4" stroke="white" stroke-width="2" fill="none"/>
      <text x="22" y="11" fill="#6D28D9" font-size="9">Maintenance tracking</text>
    </g>
    <g transform="translate(15, 137)">
      <rect x="0" y="0" width="14" height="14" rx="3" fill="#22C55E"/>
      <path d="M3 7 L6 10 L11 4" stroke="white" stroke-width="2" fill="none"/>
      <text x="22" y="11" fill="#6D28D9" font-size="9">Financial reporting</text>
    </g>
  </g>

  <!-- Advanced features -->
  <g transform="translate(540, 80)">
    <rect x="0" y="0" width="200" height="175" rx="12" fill="white" stroke="#7C3AED" stroke-width="2"/>
    <rect x="0" y="0" width="200" height="32" rx="12" fill="#7C3AED"/>
    <rect x="0" y="20" width="200" height="12" fill="#7C3AED"/>
    <text x="100" y="22" text-anchor="middle" fill="white" font-size="10" font-weight="bold">ADVANCED FEATURES</text>

    <g transform="translate(15, 48)">
      <circle cx="7" cy="7" r="5" fill="#7C3AED"/>
      <text x="7" y="11" text-anchor="middle" fill="white" font-size="8" font-weight="bold">+</text>
      <text x="22" y="11" fill="#6D28D9" font-size="9">Online rent payments</text>
    </g>
    <g transform="translate(15, 71)">
      <circle cx="7" cy="7" r="5" fill="#7C3AED"/>
      <text x="7" y="11" text-anchor="middle" fill="white" font-size="8" font-weight="bold">+</text>
      <text x="22" y="11" fill="#6D28D9" font-size="9">Tenant portal</text>
    </g>
    <g transform="translate(15, 94)">
      <circle cx="7" cy="7" r="5" fill="#7C3AED"/>
      <text x="7" y="11" text-anchor="middle" fill="white" font-size="8" font-weight="bold">+</text>
      <text x="22" y="11" fill="#6D28D9" font-size="9">Automated messages</text>
    </g>
    <g transform="translate(15, 117)">
      <circle cx="7" cy="7" r="5" fill="#7C3AED"/>
      <text x="7" y="11" text-anchor="middle" fill="white" font-size="8" font-weight="bold">+</text>
      <text x="22" y="11" fill="#6D28D9" font-size="9">Tax report generation</text>
    </g>
    <g transform="translate(15, 140)">
      <circle cx="7" cy="7" r="5" fill="#7C3AED"/>
      <text x="7" y="11" text-anchor="middle" fill="white" font-size="8" font-weight="bold">+</text>
      <text x="22" y="11" fill="#6D28D9" font-size="9">Mobile app access</text>
    </g>
  </g>

  <!-- Feature comparison -->
  <g transform="translate(60, 275)">
    <rect x="0" y="0" width="680" height="170" rx="12" fill="white" stroke="#7C3AED" stroke-width="2"/>
    <rect x="0" y="0" width="680" height="32" rx="12" fill="#7C3AED"/>
    <rect x="0" y="20" width="680" height="12" fill="#7C3AED"/>
    <text x="340" y="22" text-anchor="middle" fill="white" font-size="10" font-weight="bold">FEATURE CATEGORIES</text>

    <g transform="translate(20, 48)">
      <rect x="0" y="0" width="200" height="105" rx="8" fill="#22C55E" opacity="0.1"/>
      <text x="100" y="20" text-anchor="middle" fill="#22C55E" font-size="10" font-weight="bold">FINANCIAL</text>
      <text x="100" y="42" text-anchor="middle" fill="#6D28D9" font-size="8">• Rent collection</text>
      <text x="100" y="55" text-anchor="middle" fill="#6D28D9" font-size="8">• Expense tracking</text>
      <text x="100" y="68" text-anchor="middle" fill="#6D28D9" font-size="8">• Income statements</text>
      <text x="100" y="81" text-anchor="middle" fill="#6D28D9" font-size="8">• Tax preparation</text>
      <text x="100" y="94" text-anchor="middle" fill="#22C55E" font-size="8" font-weight="bold">Track your money</text>
    </g>

    <g transform="translate(240, 48)">
      <rect x="0" y="0" width="200" height="105" rx="8" fill="#F3F1FF"/>
      <text x="100" y="20" text-anchor="middle" fill="#7C3AED" font-size="10" font-weight="bold">COMPLIANCE</text>
      <text x="100" y="42" text-anchor="middle" fill="#6D28D9" font-size="8">• Safety certificate reminders</text>
      <text x="100" y="55" text-anchor="middle" fill="#6D28D9" font-size="8">• Document templates</text>
      <text x="100" y="68" text-anchor="middle" fill="#6D28D9" font-size="8">• Inspection schedules</text>
      <text x="100" y="81" text-anchor="middle" fill="#6D28D9" font-size="8">• Tenancy expiry alerts</text>
      <text x="100" y="94" text-anchor="middle" fill="#7C3AED" font-size="8" font-weight="bold">Stay legal</text>
    </g>

    <g transform="translate(460, 48)">
      <rect x="0" y="0" width="200" height="105" rx="8" fill="#F59E0B" opacity="0.1"/>
      <text x="100" y="20" text-anchor="middle" fill="#F59E0B" font-size="10" font-weight="bold">COMMUNICATION</text>
      <text x="100" y="42" text-anchor="middle" fill="#6D28D9" font-size="8">• Tenant messaging</text>
      <text x="100" y="55" text-anchor="middle" fill="#6D28D9" font-size="8">• Email templates</text>
      <text x="100" y="68" text-anchor="middle" fill="#6D28D9" font-size="8">• Maintenance requests</text>
      <text x="100" y="81" text-anchor="middle" fill="#6D28D9" font-size="8">• Notification system</text>
      <text x="100" y="94" text-anchor="middle" fill="#F59E0B" font-size="8" font-weight="bold">Stay connected</text>
    </g>
  </g>

  <circle cx="40" cy="40" r="20" fill="#7C3AED" opacity="0.1"/>
  <circle cx="760" cy="460" r="25" fill="#A78BFA" opacity="0.12"/>
</svg>
