<svg viewBox="0 0 800 500" xmlns="http://www.w3.org/2000/svg">
  <defs>
    <linearGradient id="bgGrad" x1="0%" y1="0%" x2="100%" y2="100%">
      <stop offset="0%" style="stop-color:#F3F1FF"/>
      <stop offset="100%" style="stop-color:#E9E5FF"/>
    </linearGradient>
  </defs>
  <rect width="800" height="500" fill="url(#bgGrad)"/>

  <!-- Title -->
  <text x="400" y="35" text-anchor="middle" fill="#6D28D9" font-size="22" font-weight="bold" font-family="Arial">STUDENT PROPERTY MARKETING</text>
  <text x="400" y="55" text-anchor="middle" fill="#7C3AED" font-size="11" font-family="Arial">How to effectively market to student tenants</text>

  <!-- Marketing icon -->
  <g transform="translate(60, 80)">
    <rect x="0" y="0" width="200" height="175" rx="12" fill="white" stroke="#7C3AED" stroke-width="2"/>
    <g transform="translate(25, 8)">
      <!-- Megaphone -->
      <polygon points="30,35 30,55 80,75 80,15" fill="#6D28D9"/>
      <ellipse cx="30" cy="45" rx="8" ry="12" fill="#7C3AED"/>
      <rect x="80" y="35" width="25" height="20" rx="3" fill="#7C3AED"/>
      <!-- Sound waves -->
      <path d="M110 30 Q120 45 110 60" fill="none" stroke="#7C3AED" stroke-width="2"/>
      <path d="M118 25 Q132 45 118 65" fill="none" stroke="#7C3AED" stroke-width="2"/>
    </g>
    <text x="100" y="125" text-anchor="middle" fill="#6D28D9" font-size="11" font-weight="bold">MARKETING</text>
    <text x="100" y="143" text-anchor="middle" fill="#7C3AED" font-size="9">Student</text>
    <text x="100" y="158" text-anchor="middle" fill="#7C3AED" font-size="9">properties</text>
  </g>

  <!-- Marketing channels -->
  <g transform="translate(280, 80)">
    <rect x="0" y="0" width="240" height="175" rx="12" fill="white" stroke="#6D28D9" stroke-width="2"/>
    <rect x="0" y="0" width="240" height="32" rx="12" fill="#6D28D9"/>
    <rect x="0" y="20" width="240" height="12" fill="#6D28D9"/>
    <text x="120" y="22" text-anchor="middle" fill="white" font-size="10" font-weight="bold">MARKETING CHANNELS</text>
    <g transform="translate(15, 45)">
      <rect x="0" y="0" width="14" height="14" rx="3" fill="#7C3AED"/>
      <path d="M3 7 L6 10 L11 4" stroke="white" stroke-width="2" fill="none"/>
      <text x="22" y="11" fill="#6D28D9" font-size="9">Student accommodation sites</text>
    </g>
    <g transform="translate(15, 68)">
      <rect x="0" y="0" width="14" height="14" rx="3" fill="#7C3AED"/>
      <path d="M3 7 L6 10 L11 4" stroke="white" stroke-width="2" fill="none"/>
      <text x="22" y="11" fill="#6D28D9" font-size="9">University housing office</text>
    </g>
    <g transform="translate(15, 91)">
      <rect x="0" y="0" width="14" height="14" rx="3" fill="#6D28D9"/>
      <path d="M3 7 L6 10 L11 4" stroke="white" stroke-width="2" fill="none"/>
      <text x="22" y="11" fill="#6D28D9" font-size="9">Social media platforms</text>
    </g>
    <g transform="translate(15, 114)">
      <rect x="0" y="0" width="14" height="14" rx="3" fill="#6D28D9"/>
      <path d="M3 7 L6 10 L11 4" stroke="white" stroke-width="2" fill="none"/>
      <text x="22" y="11" fill="#6D28D9" font-size="9">Rightmove/Zoopla</text>
    </g>
    <g transform="translate(15, 137)">
      <text x="0" y="11" fill="#7C3AED" font-size="9" font-weight="bold">Local letting agents</text>
    </g>
  </g>

  <!-- Timing -->
  <g transform="translate(540, 80)">
    <rect x="0" y="0" width="200" height="175" rx="12" fill="white" stroke="#22C55E" stroke-width="2"/>
    <rect x="0" y="0" width="200" height="32" rx="12" fill="#22C55E"/>
    <rect x="0" y="20" width="200" height="12" fill="#22C55E"/>
    <text x="100" y="22" text-anchor="middle" fill="white" font-size="10" font-weight="bold">TIMING</text>
    <g transform="translate(15, 48)">
      <circle cx="7" cy="7" r="5" fill="#22C55E"/>
      <text x="22" y="11" fill="#6D28D9" font-size="9">Oct-Dec: Prime season</text>
    </g>
    <g transform="translate(15, 71)">
      <circle cx="7" cy="7" r="5" fill="#22C55E"/>
      <text x="22" y="11" fill="#6D28D9" font-size="9">Jan-Mar: Second wave</text>
    </g>
    <g transform="translate(15, 94)">
      <circle cx="7" cy="7" r="5" fill="#065F46"/>
      <text x="22" y="11" fill="#6D28D9" font-size="9">Apr-Jun: Late bookings</text>
    </g>
    <g transform="translate(15, 117)">
      <circle cx="7" cy="7" r="5" fill="#065F46"/>
      <text x="22" y="11" fill="#6D28D9" font-size="9">Clearing period</text>
    </g>
    <g transform="translate(15, 140)">
      <text x="0" y="11" fill="#22C55E" font-size="9" font-weight="bold">Year-round viewings</text>
    </g>
  </g>

  <!-- Details section -->
  <g transform="translate(60, 275)">
    <rect x="0" y="0" width="680" height="170" rx="12" fill="white" stroke="#6D28D9" stroke-width="2"/>
    <rect x="0" y="0" width="680" height="32" rx="12" fill="#6D28D9"/>
    <rect x="0" y="20" width="680" height="12" fill="#6D28D9"/>
    <text x="340" y="22" text-anchor="middle" fill="white" font-size="10" font-weight="bold">EFFECTIVE MARKETING STRATEGIES</text>
    <g transform="translate(20, 48)">
      <rect x="0" y="0" width="200" height="105" rx="8" fill="#7C3AED" opacity="0.1"/>
      <text x="100" y="20" text-anchor="middle" fill="#7C3AED" font-size="10" font-weight="bold">VISUALS</text>
      <text x="100" y="42" text-anchor="middle" fill="#6D28D9" font-size="8">Professional photography</text>
      <text x="100" y="55" text-anchor="middle" fill="#6D28D9" font-size="8">Video property tours</text>
      <text x="100" y="75" text-anchor="middle" fill="#6D28D9" font-size="8">Floor plans included</text>
      <text x="100" y="94" text-anchor="middle" fill="#7C3AED" font-size="8" font-weight="bold">360 virtual views</text>
    </g>
    <g transform="translate(240, 48)">
      <rect x="0" y="0" width="200" height="105" rx="8" fill="#22C55E" opacity="0.1"/>
      <text x="100" y="20" text-anchor="middle" fill="#22C55E" font-size="10" font-weight="bold">MESSAGING</text>
      <text x="100" y="42" text-anchor="middle" fill="#6D28D9" font-size="8">Highlight WiFi speed</text>
      <text x="100" y="55" text-anchor="middle" fill="#6D28D9" font-size="8">Distance to campus</text>
      <text x="100" y="75" text-anchor="middle" fill="#6D28D9" font-size="8">Bills included option</text>
      <text x="100" y="94" text-anchor="middle" fill="#22C55E" font-size="8" font-weight="bold">Transport links</text>
    </g>
    <g transform="translate(460, 48)">
      <rect x="0" y="0" width="200" height="105" rx="8" fill="#3B82F6" opacity="0.1"/>
      <text x="100" y="20" text-anchor="middle" fill="#3B82F6" font-size="10" font-weight="bold">ENGAGEMENT</text>
      <text x="100" y="42" text-anchor="middle" fill="#6D28D9" font-size="8">Quick response times</text>
      <text x="100" y="55" text-anchor="middle" fill="#6D28D9" font-size="8">Flexible viewing slots</text>
      <text x="100" y="75" text-anchor="middle" fill="#6D28D9" font-size="8">Group viewings</text>
      <text x="100" y="94" text-anchor="middle" fill="#3B82F6" font-size="8" font-weight="bold">Online booking system</text>
    </g>
  </g>

  <circle cx="40" cy="40" r="20" fill="#7C3AED" opacity="0.1"/>
  <circle cx="760" cy="460" r="25" fill="#6D28D9" opacity="0.12"/>
</svg>
