<svg viewBox="0 0 800 500" xmlns="http://www.w3.org/2000/svg">
  <defs>
    <linearGradient id="bgGrad" x1="0%" y1="0%" x2="100%" y2="100%">
      <stop offset="0%" style="stop-color:#F3F1FF"/>
      <stop offset="100%" style="stop-color:#E9E5FF"/>
    </linearGradient>
  </defs>
  <rect width="800" height="500" fill="url(#bgGrad)"/>

  <!-- Title -->
  <text x="400" y="35" text-anchor="middle" fill="#6D28D9" font-size="22" font-weight="bold" font-family="Arial">STUDENT PROPERTY SETUP</text>
  <text x="400" y="55" text-anchor="middle" fill="#7C3AED" font-size="11" font-family="Arial">Essential features for student accommodation</text>

  <!-- Property icon -->
  <g transform="translate(60, 80)">
    <rect x="0" y="0" width="200" height="175" rx="12" fill="white" stroke="#7C3AED" stroke-width="2"/>
    <g transform="translate(25, 8)">
      <!-- House -->
      <rect x="25" y="35" width="70" height="50" fill="#E9E5FF" stroke="#6D28D9" stroke-width="2"/>
      <polygon points="60,10 105,40 15,40" fill="#6D28D9"/>
      <rect x="45" y="55" width="25" height="30" fill="#7C3AED"/>
      <!-- Student icon -->
      <circle cx="105" cy="55" r="12" fill="#7C3AED"/>
      <rect x="98" y="67" width="14" height="18" rx="3" fill="#7C3AED"/>
      <!-- Graduation cap -->
      <polygon points="105,48 95,53 105,58 115,53" fill="#6D28D9"/>
    </g>
    <text x="100" y="125" text-anchor="middle" fill="#6D28D9" font-size="11" font-weight="bold">STUDENT</text>
    <text x="100" y="143" text-anchor="middle" fill="#7C3AED" font-size="9">Property</text>
    <text x="100" y="158" text-anchor="middle" fill="#7C3AED" font-size="9">setup</text>
  </g>

  <!-- Essential features -->
  <g transform="translate(280, 80)">
    <rect x="0" y="0" width="240" height="175" rx="12" fill="white" stroke="#6D28D9" stroke-width="2"/>
    <rect x="0" y="0" width="240" height="32" rx="12" fill="#6D28D9"/>
    <rect x="0" y="20" width="240" height="12" fill="#6D28D9"/>
    <text x="120" y="22" text-anchor="middle" fill="white" font-size="10" font-weight="bold">ESSENTIAL FEATURES</text>
    <g transform="translate(15, 45)">
      <rect x="0" y="0" width="14" height="14" rx="3" fill="#7C3AED"/>
      <path d="M3 7 L6 10 L11 4" stroke="white" stroke-width="2" fill="none"/>
      <text x="22" y="11" fill="#6D28D9" font-size="9">Fast reliable WiFi</text>
    </g>
    <g transform="translate(15, 68)">
      <rect x="0" y="0" width="14" height="14" rx="3" fill="#7C3AED"/>
      <path d="M3 7 L6 10 L11 4" stroke="white" stroke-width="2" fill="none"/>
      <text x="22" y="11" fill="#6D28D9" font-size="9">Study desk and chair</text>
    </g>
    <g transform="translate(15, 91)">
      <rect x="0" y="0" width="14" height="14" rx="3" fill="#6D28D9"/>
      <path d="M3 7 L6 10 L11 4" stroke="white" stroke-width="2" fill="none"/>
      <text x="22" y="11" fill="#6D28D9" font-size="9">Good storage space</text>
    </g>
    <g transform="translate(15, 114)">
      <rect x="0" y="0" width="14" height="14" rx="3" fill="#6D28D9"/>
      <path d="M3 7 L6 10 L11 4" stroke="white" stroke-width="2" fill="none"/>
      <text x="22" y="11" fill="#6D28D9" font-size="9">Laundry facilities</text>
    </g>
    <g transform="translate(15, 137)">
      <text x="0" y="11" fill="#7C3AED" font-size="9" font-weight="bold">Secure bike storage</text>
    </g>
  </g>

  <!-- Room standards -->
  <g transform="translate(540, 80)">
    <rect x="0" y="0" width="200" height="175" rx="12" fill="white" stroke="#22C55E" stroke-width="2"/>
    <rect x="0" y="0" width="200" height="32" rx="12" fill="#22C55E"/>
    <rect x="0" y="20" width="200" height="12" fill="#22C55E"/>
    <text x="100" y="22" text-anchor="middle" fill="white" font-size="10" font-weight="bold">ROOM STANDARDS</text>
    <g transform="translate(15, 48)">
      <circle cx="7" cy="7" r="5" fill="#22C55E"/>
      <text x="22" y="11" fill="#6D28D9" font-size="9">Minimum 6.51m² single</text>
    </g>
    <g transform="translate(15, 71)">
      <circle cx="7" cy="7" r="5" fill="#22C55E"/>
      <text x="22" y="11" fill="#6D28D9" font-size="9">Double bed standard</text>
    </g>
    <g transform="translate(15, 94)">
      <circle cx="7" cy="7" r="5" fill="#065F46"/>
      <text x="22" y="11" fill="#6D28D9" font-size="9">Adequate heating</text>
    </g>
    <g transform="translate(15, 117)">
      <circle cx="7" cy="7" r="5" fill="#065F46"/>
      <text x="22" y="11" fill="#6D28D9" font-size="9">Natural lighting</text>
    </g>
    <g transform="translate(15, 140)">
      <text x="0" y="11" fill="#22C55E" font-size="9" font-weight="bold">Lockable door</text>
    </g>
  </g>

  <!-- Details section -->
  <g transform="translate(60, 275)">
    <rect x="0" y="0" width="680" height="170" rx="12" fill="white" stroke="#6D28D9" stroke-width="2"/>
    <rect x="0" y="0" width="680" height="32" rx="12" fill="#6D28D9"/>
    <rect x="0" y="20" width="680" height="12" fill="#6D28D9"/>
    <text x="340" y="22" text-anchor="middle" fill="white" font-size="10" font-weight="bold">STUDENT ACCOMMODATION CHECKLIST</text>
    <g transform="translate(20, 48)">
      <rect x="0" y="0" width="200" height="105" rx="8" fill="#7C3AED" opacity="0.1"/>
      <text x="100" y="20" text-anchor="middle" fill="#7C3AED" font-size="10" font-weight="bold">BEDROOM</text>
      <text x="100" y="42" text-anchor="middle" fill="#6D28D9" font-size="8">Comfortable bed</text>
      <text x="100" y="55" text-anchor="middle" fill="#6D28D9" font-size="8">Desk with power socket</text>
      <text x="100" y="75" text-anchor="middle" fill="#6D28D9" font-size="8">Wardrobe and drawers</text>
      <text x="100" y="94" text-anchor="middle" fill="#7C3AED" font-size="8" font-weight="bold">Task lighting</text>
    </g>
    <g transform="translate(240, 48)">
      <rect x="0" y="0" width="200" height="105" rx="8" fill="#22C55E" opacity="0.1"/>
      <text x="100" y="20" text-anchor="middle" fill="#22C55E" font-size="10" font-weight="bold">COMMUNAL AREAS</text>
      <text x="100" y="42" text-anchor="middle" fill="#6D28D9" font-size="8">Shared kitchen facilities</text>
      <text x="100" y="55" text-anchor="middle" fill="#6D28D9" font-size="8">Living space</text>
      <text x="100" y="75" text-anchor="middle" fill="#6D28D9" font-size="8">Adequate bathrooms</text>
      <text x="100" y="94" text-anchor="middle" fill="#22C55E" font-size="8" font-weight="bold">Outdoor space bonus</text>
    </g>
    <g transform="translate(460, 48)">
      <rect x="0" y="0" width="200" height="105" rx="8" fill="#3B82F6" opacity="0.1"/>
      <text x="100" y="20" text-anchor="middle" fill="#3B82F6" font-size="10" font-weight="bold">SAFETY</text>
      <text x="100" y="42" text-anchor="middle" fill="#6D28D9" font-size="8">Fire doors and alarms</text>
      <text x="100" y="55" text-anchor="middle" fill="#6D28D9" font-size="8">Emergency lighting</text>
      <text x="100" y="75" text-anchor="middle" fill="#6D28D9" font-size="8">Secure entry system</text>
      <text x="100" y="94" text-anchor="middle" fill="#3B82F6" font-size="8" font-weight="bold">Window restrictors</text>
    </g>
  </g>

  <circle cx="40" cy="40" r="20" fill="#7C3AED" opacity="0.1"/>
  <circle cx="760" cy="460" r="25" fill="#6D28D9" opacity="0.12"/>
</svg>
