<svg viewBox="0 0 800 500" xmlns="http://www.w3.org/2000/svg">
  <defs>
    <linearGradient id="bgGrad" x1="0%" y1="0%" x2="100%" y2="100%">
      <stop offset="0%" style="stop-color:#F3F1FF"/>
      <stop offset="100%" style="stop-color:#E9E5FF"/>
    </linearGradient>
  </defs>
  <rect width="800" height="500" fill="url(#bgGrad)"/>

  <!-- Title -->
  <text x="400" y="35" text-anchor="middle" fill="#6D28D9" font-size="22" font-weight="bold" font-family="Arial">STUDENT LETTING SUCCESS</text>
  <text x="400" y="55" text-anchor="middle" fill="#7C3AED" font-size="11" font-family="Arial">Keys to successful student property lettings</text>

  <!-- Success icon -->
  <g transform="translate(60, 80)">
    <rect x="0" y="0" width="200" height="175" rx="12" fill="white" stroke="#7C3AED" stroke-width="2"/>
    <g transform="translate(25, 8)">
      <!-- Graduation cap -->
      <polygon points="60,25 10,45 60,65 110,45" fill="#6D28D9"/>
      <rect x="55" y="15" width="10" height="15" fill="#6D28D9"/>
      <circle cx="60" cy="12" r="5" fill="#7C3AED"/>
      <!-- Book -->
      <rect x="30" y="70" width="60" height="8" fill="#7C3AED"/>
      <!-- Star -->
      <polygon points="100,30 103,40 113,40 105,47 108,57 100,51 92,57 95,47 87,40 97,40" fill="#F59E0B"/>
    </g>
    <text x="100" y="125" text-anchor="middle" fill="#6D28D9" font-size="11" font-weight="bold">STUDENT</text>
    <text x="100" y="143" text-anchor="middle" fill="#7C3AED" font-size="9">Letting</text>
    <text x="100" y="158" text-anchor="middle" fill="#7C3AED" font-size="9">success</text>
  </g>

  <!-- Success factors -->
  <g transform="translate(280, 80)">
    <rect x="0" y="0" width="240" height="175" rx="12" fill="white" stroke="#6D28D9" stroke-width="2"/>
    <rect x="0" y="0" width="240" height="32" rx="12" fill="#6D28D9"/>
    <rect x="0" y="20" width="240" height="12" fill="#6D28D9"/>
    <text x="120" y="22" text-anchor="middle" fill="white" font-size="10" font-weight="bold">SUCCESS FACTORS</text>
    <g transform="translate(15, 45)">
      <rect x="0" y="0" width="14" height="14" rx="3" fill="#7C3AED"/>
      <path d="M3 7 L6 10 L11 4" stroke="white" stroke-width="2" fill="none"/>
      <text x="22" y="11" fill="#6D28D9" font-size="9">Near university/transport</text>
    </g>
    <g transform="translate(15, 68)">
      <rect x="0" y="0" width="14" height="14" rx="3" fill="#7C3AED"/>
      <path d="M3 7 L6 10 L11 4" stroke="white" stroke-width="2" fill="none"/>
      <text x="22" y="11" fill="#6D28D9" font-size="9">Fast broadband included</text>
    </g>
    <g transform="translate(15, 91)">
      <rect x="0" y="0" width="14" height="14" rx="3" fill="#6D28D9"/>
      <path d="M3 7 L6 10 L11 4" stroke="white" stroke-width="2" fill="none"/>
      <text x="22" y="11" fill="#6D28D9" font-size="9">Bills included option</text>
    </g>
    <g transform="translate(15, 114)">
      <rect x="0" y="0" width="14" height="14" rx="3" fill="#6D28D9"/>
      <path d="M3 7 L6 10 L11 4" stroke="white" stroke-width="2" fill="none"/>
      <text x="22" y="11" fill="#6D28D9" font-size="9">Furnished to good standard</text>
    </g>
    <g transform="translate(15, 137)">
      <text x="0" y="11" fill="#7C3AED" font-size="9" font-weight="bold">Responsive maintenance</text>
    </g>
  </g>

  <!-- Marketing tips -->
  <g transform="translate(540, 80)">
    <rect x="0" y="0" width="200" height="175" rx="12" fill="white" stroke="#22C55E" stroke-width="2"/>
    <rect x="0" y="0" width="200" height="32" rx="12" fill="#22C55E"/>
    <rect x="0" y="20" width="200" height="12" fill="#22C55E"/>
    <text x="100" y="22" text-anchor="middle" fill="white" font-size="10" font-weight="bold">MARKETING TIPS</text>
    <g transform="translate(15, 48)">
      <circle cx="7" cy="7" r="5" fill="#22C55E"/>
      <text x="22" y="11" fill="#6D28D9" font-size="9">List on student sites</text>
    </g>
    <g transform="translate(15, 71)">
      <circle cx="7" cy="7" r="5" fill="#22C55E"/>
      <text x="22" y="11" fill="#6D28D9" font-size="9">University housing office</text>
    </g>
    <g transform="translate(15, 94)">
      <circle cx="7" cy="7" r="5" fill="#065F46"/>
      <text x="22" y="11" fill="#6D28D9" font-size="9">Quality photos</text>
    </g>
    <g transform="translate(15, 117)">
      <circle cx="7" cy="7" r="5" fill="#065F46"/>
      <text x="22" y="11" fill="#6D28D9" font-size="9">Social media presence</text>
    </g>
    <g transform="translate(15, 140)">
      <text x="0" y="11" fill="#22C55E" font-size="9" font-weight="bold">Early marketing cycle</text>
    </g>
  </g>

  <!-- Details section -->
  <g transform="translate(60, 275)">
    <rect x="0" y="0" width="680" height="170" rx="12" fill="white" stroke="#6D28D9" stroke-width="2"/>
    <rect x="0" y="0" width="680" height="32" rx="12" fill="#6D28D9"/>
    <rect x="0" y="20" width="680" height="12" fill="#6D28D9"/>
    <text x="340" y="22" text-anchor="middle" fill="white" font-size="10" font-weight="bold">STUDENT LETTING ESSENTIALS</text>
    <g transform="translate(20, 48)">
      <rect x="0" y="0" width="200" height="105" rx="8" fill="#7C3AED" opacity="0.1"/>
      <text x="100" y="20" text-anchor="middle" fill="#7C3AED" font-size="10" font-weight="bold">TIMING</text>
      <text x="100" y="42" text-anchor="middle" fill="#6D28D9" font-size="8">Market Oct-Dec for next year</text>
      <text x="100" y="55" text-anchor="middle" fill="#6D28D9" font-size="8">September start dates</text>
      <text x="100" y="75" text-anchor="middle" fill="#6D28D9" font-size="8">12-month tenancies common</text>
      <text x="100" y="94" text-anchor="middle" fill="#7C3AED" font-size="8" font-weight="bold">Plan summer turnovers</text>
    </g>
    <g transform="translate(240, 48)">
      <rect x="0" y="0" width="200" height="105" rx="8" fill="#22C55E" opacity="0.1"/>
      <text x="100" y="20" text-anchor="middle" fill="#22C55E" font-size="10" font-weight="bold">GUARANTORS</text>
      <text x="100" y="42" text-anchor="middle" fill="#6D28D9" font-size="8">Require UK-based guarantor</text>
      <text x="100" y="55" text-anchor="middle" fill="#6D28D9" font-size="8">Check guarantor affordability</text>
      <text x="100" y="75" text-anchor="middle" fill="#6D28D9" font-size="8">Housing Hand alternative</text>
      <text x="100" y="94" text-anchor="middle" fill="#22C55E" font-size="8" font-weight="bold">Full liability for each tenant</text>
    </g>
    <g transform="translate(460, 48)">
      <rect x="0" y="0" width="200" height="105" rx="8" fill="#3B82F6" opacity="0.1"/>
      <text x="100" y="20" text-anchor="middle" fill="#3B82F6" font-size="10" font-weight="bold">HMO RULES</text>
      <text x="100" y="42" text-anchor="middle" fill="#6D28D9" font-size="8">License if 5+ tenants</text>
      <text x="100" y="55" text-anchor="middle" fill="#6D28D9" font-size="8">Additional licensing areas</text>
      <text x="100" y="75" text-anchor="middle" fill="#6D28D9" font-size="8">Room size minimums</text>
      <text x="100" y="94" text-anchor="middle" fill="#3B82F6" font-size="8" font-weight="bold">Fire safety requirements</text>
    </g>
  </g>

  <circle cx="40" cy="40" r="20" fill="#7C3AED" opacity="0.1"/>
  <circle cx="760" cy="460" r="25" fill="#6D28D9" opacity="0.12"/>
</svg>
