<svg viewBox="0 0 800 500" xmlns="http://www.w3.org/2000/svg">
  <defs>
    <linearGradient id="bgGrad" x1="0%" y1="0%" x2="100%" y2="100%">
      <stop offset="0%" style="stop-color:#F3F1FF"/>
      <stop offset="100%" style="stop-color:#E9E5FF"/>
    </linearGradient>
  </defs>
  <rect width="800" height="500" fill="url(#bgGrad)"/>

  <!-- Title -->
  <text x="400" y="35" text-anchor="middle" fill="#7C3AED" font-size="22" font-weight="bold" font-family="Arial">UK LANDLORD INSURANCE</text>
  <text x="400" y="55" text-anchor="middle" fill="#6D28D9" font-size="11" font-family="Arial">Essential insurance coverage for UK landlords</text>

  <!-- Umbrella/shield icon -->
  <g transform="translate(60, 80)">
    <rect x="0" y="0" width="200" height="175" rx="12" fill="white" stroke="#7C3AED" stroke-width="2"/>

    <!-- Umbrella protecting house -->
    <g transform="translate(25, 10)">
      <!-- Umbrella -->
      <path d="M75 5 Q10 20 10 50 L75 50 L140 50 Q140 20 75 5 Z" fill="#7C3AED"/>
      <rect x="72" y="45" width="6" height="45" fill="#6D28D9"/>
      <path d="M78 90 Q95 95 90 80" stroke="#6D28D9" stroke-width="4" fill="none"/>
      <!-- House under umbrella -->
      <polygon points="75,55 115,75 115,95 35,95 35,75" fill="#F59E0B"/>
      <rect x="45" y="80" width="50" height="15" fill="#F59E0B"/>
      <rect x="55" y="75" width="12" height="12" fill="#F3F1FF"/>
      <rect x="83" y="75" width="12" height="12" fill="#F3F1FF"/>
    </g>

    <text x="100" y="125" text-anchor="middle" fill="#7C3AED" font-size="11" font-weight="bold">PROTECTED</text>
    <text x="100" y="143" text-anchor="middle" fill="#6D28D9" font-size="9">Comprehensive</text>
    <text x="100" y="158" text-anchor="middle" fill="#6D28D9" font-size="9">coverage</text>
  </g>

  <!-- Insurance types -->
  <g transform="translate(280, 80)">
    <rect x="0" y="0" width="240" height="175" rx="12" fill="white" stroke="#22C55E" stroke-width="2"/>
    <rect x="0" y="0" width="240" height="32" rx="12" fill="#22C55E"/>
    <rect x="0" y="20" width="240" height="12" fill="#22C55E"/>
    <text x="120" y="22" text-anchor="middle" fill="white" font-size="10" font-weight="bold">ESSENTIAL COVER</text>

    <g transform="translate(15, 45)">
      <rect x="0" y="0" width="14" height="14" rx="3" fill="#22C55E"/>
      <path d="M3 7 L6 10 L11 4" stroke="white" stroke-width="2" fill="none"/>
      <text x="22" y="11" fill="#6D28D9" font-size="9">Buildings insurance</text>
    </g>
    <g transform="translate(15, 68)">
      <rect x="0" y="0" width="14" height="14" rx="3" fill="#22C55E"/>
      <path d="M3 7 L6 10 L11 4" stroke="white" stroke-width="2" fill="none"/>
      <text x="22" y="11" fill="#6D28D9" font-size="9">Landlord contents</text>
    </g>
    <g transform="translate(15, 91)">
      <rect x="0" y="0" width="14" height="14" rx="3" fill="#22C55E"/>
      <path d="M3 7 L6 10 L11 4" stroke="white" stroke-width="2" fill="none"/>
      <text x="22" y="11" fill="#6D28D9" font-size="9">Public liability</text>
    </g>
    <g transform="translate(15, 114)">
      <rect x="0" y="0" width="14" height="14" rx="3" fill="#7C3AED"/>
      <path d="M3 7 L6 10 L11 4" stroke="white" stroke-width="2" fill="none"/>
      <text x="22" y="11" fill="#6D28D9" font-size="9">Rent guarantee</text>
    </g>
    <g transform="translate(15, 137)">
      <rect x="0" y="0" width="14" height="14" rx="3" fill="#7C3AED"/>
      <path d="M3 7 L6 10 L11 4" stroke="white" stroke-width="2" fill="none"/>
      <text x="22" y="11" fill="#6D28D9" font-size="9">Legal expenses</text>
    </g>
  </g>

  <!-- What's covered -->
  <g transform="translate(540, 80)">
    <rect x="0" y="0" width="200" height="175" rx="12" fill="white" stroke="#7C3AED" stroke-width="2"/>
    <rect x="0" y="0" width="200" height="32" rx="12" fill="#7C3AED"/>
    <rect x="0" y="20" width="200" height="12" fill="#7C3AED"/>
    <text x="100" y="22" text-anchor="middle" fill="white" font-size="10" font-weight="bold">BUILDINGS COVERS</text>

    <g transform="translate(15, 48)">
      <circle cx="7" cy="7" r="5" fill="#22C55E"/>
      <text x="7" y="11" text-anchor="middle" fill="white" font-size="8" font-weight="bold">!</text>
      <text x="22" y="11" fill="#6D28D9" font-size="9">Fire damage</text>
    </g>
    <g transform="translate(15, 71)">
      <circle cx="7" cy="7" r="5" fill="#22C55E"/>
      <text x="7" y="11" text-anchor="middle" fill="white" font-size="8" font-weight="bold">!</text>
      <text x="22" y="11" fill="#6D28D9" font-size="9">Flood and storms</text>
    </g>
    <g transform="translate(15, 94)">
      <circle cx="7" cy="7" r="5" fill="#22C55E"/>
      <text x="7" y="11" text-anchor="middle" fill="white" font-size="8" font-weight="bold">!</text>
      <text x="22" y="11" fill="#6D28D9" font-size="9">Subsidence</text>
    </g>
    <g transform="translate(15, 117)">
      <circle cx="7" cy="7" r="5" fill="#7C3AED"/>
      <text x="7" y="11" text-anchor="middle" fill="white" font-size="8" font-weight="bold">!</text>
      <text x="22" y="11" fill="#6D28D9" font-size="9">Escape of water</text>
    </g>
    <g transform="translate(15, 140)">
      <circle cx="7" cy="7" r="5" fill="#7C3AED"/>
      <text x="7" y="11" text-anchor="middle" fill="white" font-size="8" font-weight="bold">!</text>
      <text x="22" y="11" fill="#6D28D9" font-size="9">Malicious damage</text>
    </g>
  </g>

  <!-- Coverage detail -->
  <g transform="translate(60, 275)">
    <rect x="0" y="0" width="680" height="170" rx="12" fill="white" stroke="#7C3AED" stroke-width="2"/>
    <rect x="0" y="0" width="680" height="32" rx="12" fill="#7C3AED"/>
    <rect x="0" y="20" width="680" height="12" fill="#7C3AED"/>
    <text x="340" y="22" text-anchor="middle" fill="white" font-size="10" font-weight="bold">OPTIONAL EXTRAS</text>

    <g transform="translate(20, 48)">
      <rect x="0" y="0" width="200" height="105" rx="8" fill="#22C55E" opacity="0.1"/>
      <text x="100" y="20" text-anchor="middle" fill="#22C55E" font-size="10" font-weight="bold">RENT GUARANTEE</text>
      <text x="100" y="42" text-anchor="middle" fill="#6D28D9" font-size="8">• Covers unpaid rent</text>
      <text x="100" y="55" text-anchor="middle" fill="#6D28D9" font-size="8">• Usually 6-12 months</text>
      <text x="100" y="68" text-anchor="middle" fill="#6D28D9" font-size="8">• Requires referencing</text>
      <text x="100" y="81" text-anchor="middle" fill="#6D28D9" font-size="8">• Legal costs included</text>
      <text x="100" y="94" text-anchor="middle" fill="#22C55E" font-size="8" font-weight="bold">Income protection</text>
    </g>

    <g transform="translate(240, 48)">
      <rect x="0" y="0" width="200" height="105" rx="8" fill="#F3F1FF"/>
      <text x="100" y="20" text-anchor="middle" fill="#7C3AED" font-size="10" font-weight="bold">LEGAL EXPENSES</text>
      <text x="100" y="42" text-anchor="middle" fill="#6D28D9" font-size="8">• Eviction costs</text>
      <text x="100" y="55" text-anchor="middle" fill="#6D28D9" font-size="8">• Rent recovery</text>
      <text x="100" y="68" text-anchor="middle" fill="#6D28D9" font-size="8">• Deposit disputes</text>
      <text x="100" y="81" text-anchor="middle" fill="#6D28D9" font-size="8">• Tax investigations</text>
      <text x="100" y="94" text-anchor="middle" fill="#7C3AED" font-size="8" font-weight="bold">Legal support</text>
    </g>

    <g transform="translate(460, 48)">
      <rect x="0" y="0" width="200" height="105" rx="8" fill="#F59E0B" opacity="0.1"/>
      <text x="100" y="20" text-anchor="middle" fill="#F59E0B" font-size="10" font-weight="bold">UNOCCUPANCY</text>
      <text x="100" y="42" text-anchor="middle" fill="#6D28D9" font-size="8">• Cover during voids</text>
      <text x="100" y="55" text-anchor="middle" fill="#6D28D9" font-size="8">• Renovation periods</text>
      <text x="100" y="68" text-anchor="middle" fill="#6D28D9" font-size="8">• Between tenancies</text>
      <text x="100" y="81" text-anchor="middle" fill="#6D28D9" font-size="8">• Usually 30-90 days</text>
      <text x="100" y="94" text-anchor="middle" fill="#F59E0B" font-size="8" font-weight="bold">Continuous cover</text>
    </g>
  </g>

  <circle cx="40" cy="40" r="20" fill="#7C3AED" opacity="0.1"/>
  <circle cx="760" cy="460" r="25" fill="#A78BFA" opacity="0.12"/>
</svg>
