<svg viewBox="0 0 800 500" xmlns="http://www.w3.org/2000/svg">
  <defs>
    <linearGradient id="bgGrad" x1="0%" y1="0%" x2="100%" y2="100%">
      <stop offset="0%" style="stop-color:#F3F1FF"/>
      <stop offset="100%" style="stop-color:#E9E5FF"/>
    </linearGradient>
  </defs>
  <rect width="800" height="500" fill="url(#bgGrad)"/>

  <!-- Title -->
  <text x="400" y="35" text-anchor="middle" fill="#7C3AED" font-size="22" font-weight="bold" font-family="Arial">FITNESS STANDARDS OVERVIEW - WALES</text>
  <text x="400" y="55" text-anchor="middle" fill="#6D28D9" font-size="11" font-family="Arial">Complete guide to property fitness requirements</text>

  <!-- Shield with check icon -->
  <g transform="translate(60, 80)">
    <rect x="0" y="0" width="200" height="175" rx="12" fill="white" stroke="#22C55E" stroke-width="2"/>
    <g transform="translate(45, 5)">
      <!-- Shield shape -->
      <path d="M55 10 L100 25 L100 60 C100 85 55 100 55 100 C55 100 10 85 10 60 L10 25 Z" fill="#22C55E" opacity="0.2" stroke="#22C55E" stroke-width="2"/>
      <!-- Check mark -->
      <path d="M35 55 L50 70 L80 35" stroke="#22C55E" stroke-width="5" fill="none" stroke-linecap="round"/>
    </g>
    <text x="100" y="125" text-anchor="middle" fill="#22C55E" font-size="11" font-weight="bold">PROTECTED</text>
    <text x="100" y="143" text-anchor="middle" fill="#6D28D9" font-size="9">Tenant rights under</text>
    <text x="100" y="158" text-anchor="middle" fill="#6D28D9" font-size="9">Welsh law</text>
  </g>

  <!-- Key requirements -->
  <g transform="translate(280, 80)">
    <rect x="0" y="0" width="240" height="175" rx="12" fill="white" stroke="#7C3AED" stroke-width="2"/>
    <rect x="0" y="0" width="240" height="32" rx="12" fill="#7C3AED"/>
    <rect x="0" y="20" width="240" height="12" fill="#7C3AED"/>
    <text x="120" y="22" text-anchor="middle" fill="white" font-size="10" font-weight="bold">KEY REQUIREMENTS</text>
    <g transform="translate(15, 45)">
      <rect x="0" y="0" width="14" height="14" rx="3" fill="#22C55E"/>
      <path d="M3 7 L6 10 L11 4" stroke="white" stroke-width="2" fill="none"/>
      <text x="22" y="11" fill="#6D28D9" font-size="9">Fit for human habitation</text>
    </g>
    <g transform="translate(15, 68)">
      <rect x="0" y="0" width="14" height="14" rx="3" fill="#22C55E"/>
      <path d="M3 7 L6 10 L11 4" stroke="white" stroke-width="2" fill="none"/>
      <text x="22" y="11" fill="#6D28D9" font-size="9">Free from serious hazards</text>
    </g>
    <g transform="translate(15, 91)">
      <rect x="0" y="0" width="14" height="14" rx="3" fill="#22C55E"/>
      <path d="M3 7 L6 10 L11 4" stroke="white" stroke-width="2" fill="none"/>
      <text x="22" y="11" fill="#6D28D9" font-size="9">Good repair throughout</text>
    </g>
    <g transform="translate(15, 114)">
      <rect x="0" y="0" width="14" height="14" rx="3" fill="#7C3AED"/>
      <path d="M3 7 L6 10 L11 4" stroke="white" stroke-width="2" fill="none"/>
      <text x="22" y="11" fill="#6D28D9" font-size="9">Working installations</text>
    </g>
    <g transform="translate(15, 137)">
      <rect x="0" y="0" width="14" height="14" rx="3" fill="#7C3AED"/>
      <path d="M3 7 L6 10 L11 4" stroke="white" stroke-width="2" fill="none"/>
      <text x="22" y="11" fill="#6D28D9" font-size="9">Adequate ventilation</text>
    </g>
  </g>

  <!-- Landlord obligations -->
  <g transform="translate(540, 80)">
    <rect x="0" y="0" width="200" height="175" rx="12" fill="white" stroke="#F59E0B" stroke-width="2"/>
    <rect x="0" y="0" width="200" height="32" rx="12" fill="#F59E0B"/>
    <rect x="0" y="20" width="200" height="12" fill="#F59E0B"/>
    <text x="100" y="22" text-anchor="middle" fill="white" font-size="10" font-weight="bold">LANDLORD MUST</text>
    <g transform="translate(15, 48)">
      <circle cx="7" cy="7" r="5" fill="#F59E0B"/>
      <text x="7" y="10" text-anchor="middle" fill="white" font-size="7" font-weight="bold">1</text>
      <text x="22" y="11" fill="#6D28D9" font-size="9">Keep property fit</text>
    </g>
    <g transform="translate(15, 71)">
      <circle cx="7" cy="7" r="5" fill="#F59E0B"/>
      <text x="7" y="10" text-anchor="middle" fill="white" font-size="7" font-weight="bold">2</text>
      <text x="22" y="11" fill="#6D28D9" font-size="9">Maintain at all times</text>
    </g>
    <g transform="translate(15, 94)">
      <circle cx="7" cy="7" r="5" fill="#7C3AED"/>
      <text x="7" y="10" text-anchor="middle" fill="white" font-size="7" font-weight="bold">3</text>
      <text x="22" y="11" fill="#6D28D9" font-size="9">Repair promptly</text>
    </g>
    <g transform="translate(15, 117)">
      <circle cx="7" cy="7" r="5" fill="#7C3AED"/>
      <text x="7" y="10" text-anchor="middle" fill="white" font-size="7" font-weight="bold">4</text>
      <text x="22" y="11" fill="#6D28D9" font-size="9">Meet all standards</text>
    </g>
    <g transform="translate(15, 140)">
      <text x="0" y="11" fill="#F59E0B" font-size="9" font-weight="bold">Cannot opt out</text>
    </g>
  </g>

  <!-- What's covered -->
  <g transform="translate(60, 275)">
    <rect x="0" y="0" width="680" height="170" rx="12" fill="white" stroke="#7C3AED" stroke-width="2"/>
    <rect x="0" y="0" width="680" height="32" rx="12" fill="#7C3AED"/>
    <rect x="0" y="20" width="680" height="12" fill="#7C3AED"/>
    <text x="340" y="22" text-anchor="middle" fill="white" font-size="10" font-weight="bold">WHAT'S COVERED</text>
    <g transform="translate(20, 48)">
      <rect x="0" y="0" width="200" height="105" rx="8" fill="#22C55E" opacity="0.1"/>
      <text x="100" y="20" text-anchor="middle" fill="#22C55E" font-size="10" font-weight="bold">STRUCTURE</text>
      <text x="100" y="42" text-anchor="middle" fill="#6D28D9" font-size="8">Walls, roof, floors</text>
      <text x="100" y="55" text-anchor="middle" fill="#6D28D9" font-size="8">Windows and doors</text>
      <text x="100" y="75" text-anchor="middle" fill="#6D28D9" font-size="8">Stairs and balconies</text>
      <text x="100" y="94" text-anchor="middle" fill="#22C55E" font-size="8" font-weight="bold">External fabric</text>
    </g>
    <g transform="translate(240, 48)">
      <rect x="0" y="0" width="200" height="105" rx="8" fill="#7C3AED" opacity="0.1"/>
      <text x="100" y="20" text-anchor="middle" fill="#7C3AED" font-size="10" font-weight="bold">SERVICES</text>
      <text x="100" y="42" text-anchor="middle" fill="#6D28D9" font-size="8">Heating systems</text>
      <text x="100" y="55" text-anchor="middle" fill="#6D28D9" font-size="8">Water supply</text>
      <text x="100" y="75" text-anchor="middle" fill="#6D28D9" font-size="8">Electrical wiring</text>
      <text x="100" y="94" text-anchor="middle" fill="#7C3AED" font-size="8" font-weight="bold">Gas installations</text>
    </g>
    <g transform="translate(460, 48)">
      <rect x="0" y="0" width="200" height="105" rx="8" fill="#F59E0B" opacity="0.1"/>
      <text x="100" y="20" text-anchor="middle" fill="#F59E0B" font-size="10" font-weight="bold">ENVIRONMENT</text>
      <text x="100" y="42" text-anchor="middle" fill="#6D28D9" font-size="8">Ventilation</text>
      <text x="100" y="55" text-anchor="middle" fill="#6D28D9" font-size="8">Natural light</text>
      <text x="100" y="75" text-anchor="middle" fill="#6D28D9" font-size="8">Damp control</text>
      <text x="100" y="94" text-anchor="middle" fill="#F59E0B" font-size="8" font-weight="bold">Drainage</text>
    </g>
  </g>

  <circle cx="40" cy="40" r="20" fill="#7C3AED" opacity="0.1"/>
  <circle cx="760" cy="460" r="25" fill="#A78BFA" opacity="0.12"/>
</svg>
