<svg viewBox="0 0 800 500" xmlns="http://www.w3.org/2000/svg">
  <defs>
    <linearGradient id="bgGrad" x1="0%" y1="0%" x2="100%" y2="100%">
      <stop offset="0%" style="stop-color:#F3F1FF"/>
      <stop offset="100%" style="stop-color:#E9E5FF"/>
    </linearGradient>
  </defs>
  <rect width="800" height="500" fill="url(#bgGrad)"/>

  <!-- Title -->
  <text x="400" y="35" text-anchor="middle" fill="#7C3AED" font-size="22" font-weight="bold" font-family="Arial">RENT OVERVIEW - WALES</text>
  <text x="400" y="55" text-anchor="middle" fill="#6D28D9" font-size="11" font-family="Arial">Understanding rent rules under Welsh law</text>

  <!-- Pound coin icon -->
  <g transform="translate(60, 80)">
    <rect x="0" y="0" width="200" height="175" rx="12" fill="white" stroke="#7C3AED" stroke-width="2"/>
    <g transform="translate(35, 5)">
      <!-- Stack of coins -->
      <ellipse cx="65" cy="85" rx="45" ry="12" fill="#F59E0B" opacity="0.3"/>
      <ellipse cx="65" cy="75" rx="45" ry="12" fill="#F59E0B" opacity="0.5"/>
      <ellipse cx="65" cy="65" rx="45" ry="12" fill="#F59E0B" opacity="0.7"/>
      <ellipse cx="65" cy="55" rx="45" ry="12" fill="#F59E0B"/>
      <!-- Pound symbol -->
      <text x="65" y="62" text-anchor="middle" fill="white" font-size="24" font-weight="bold">£</text>
    </g>
    <text x="100" y="125" text-anchor="middle" fill="#7C3AED" font-size="11" font-weight="bold">RENT</text>
    <text x="100" y="143" text-anchor="middle" fill="#6D28D9" font-size="9">Payment obligations</text>
    <text x="100" y="158" text-anchor="middle" fill="#6D28D9" font-size="9">and rules</text>
  </g>

  <!-- Key rent rules -->
  <g transform="translate(280, 80)">
    <rect x="0" y="0" width="240" height="175" rx="12" fill="white" stroke="#7C3AED" stroke-width="2"/>
    <rect x="0" y="0" width="240" height="32" rx="12" fill="#7C3AED"/>
    <rect x="0" y="20" width="240" height="12" fill="#7C3AED"/>
    <text x="120" y="22" text-anchor="middle" fill="white" font-size="10" font-weight="bold">KEY RENT RULES</text>
    <g transform="translate(15, 45)">
      <rect x="0" y="0" width="14" height="14" rx="3" fill="#7C3AED"/>
      <path d="M3 7 L6 10 L11 4" stroke="white" stroke-width="2" fill="none"/>
      <text x="22" y="11" fill="#6D28D9" font-size="9">Set in written statement</text>
    </g>
    <g transform="translate(15, 68)">
      <rect x="0" y="0" width="14" height="14" rx="3" fill="#7C3AED"/>
      <path d="M3 7 L6 10 L11 4" stroke="white" stroke-width="2" fill="none"/>
      <text x="22" y="11" fill="#6D28D9" font-size="9">Due dates specified</text>
    </g>
    <g transform="translate(15, 91)">
      <rect x="0" y="0" width="14" height="14" rx="3" fill="#22C55E"/>
      <path d="M3 7 L6 10 L11 4" stroke="white" stroke-width="2" fill="none"/>
      <text x="22" y="11" fill="#6D28D9" font-size="9">Only once per period</text>
    </g>
    <g transform="translate(15, 114)">
      <rect x="0" y="0" width="14" height="14" rx="3" fill="#22C55E"/>
      <path d="M3 7 L6 10 L11 4" stroke="white" stroke-width="2" fill="none"/>
      <text x="22" y="11" fill="#6D28D9" font-size="9">Advance rent limited</text>
    </g>
    <g transform="translate(15, 137)">
      <rect x="0" y="0" width="14" height="14" rx="3" fill="#F59E0B"/>
      <path d="M3 7 L6 10 L11 4" stroke="white" stroke-width="2" fill="none"/>
      <text x="22" y="11" fill="#6D28D9" font-size="9">Receipts on request</text>
    </g>
  </g>

  <!-- Rent increases -->
  <g transform="translate(540, 80)">
    <rect x="0" y="0" width="200" height="175" rx="12" fill="white" stroke="#F59E0B" stroke-width="2"/>
    <rect x="0" y="0" width="200" height="32" rx="12" fill="#F59E0B"/>
    <rect x="0" y="20" width="200" height="12" fill="#F59E0B"/>
    <text x="100" y="22" text-anchor="middle" fill="white" font-size="10" font-weight="bold">RENT INCREASES</text>
    <g transform="translate(15, 48)">
      <circle cx="7" cy="7" r="5" fill="#F59E0B"/>
      <text x="7" y="10" text-anchor="middle" fill="white" font-size="7" font-weight="bold">1</text>
      <text x="22" y="11" fill="#6D28D9" font-size="9">Once per year max</text>
    </g>
    <g transform="translate(15, 71)">
      <circle cx="7" cy="7" r="5" fill="#F59E0B"/>
      <text x="7" y="10" text-anchor="middle" fill="white" font-size="7" font-weight="bold">2</text>
      <text x="22" y="11" fill="#6D28D9" font-size="9">2 months notice</text>
    </g>
    <g transform="translate(15, 94)">
      <circle cx="7" cy="7" r="5" fill="#7C3AED"/>
      <text x="7" y="10" text-anchor="middle" fill="white" font-size="7" font-weight="bold">3</text>
      <text x="22" y="11" fill="#6D28D9" font-size="9">Use prescribed form</text>
    </g>
    <g transform="translate(15, 117)">
      <circle cx="7" cy="7" r="5" fill="#7C3AED"/>
      <text x="7" y="10" text-anchor="middle" fill="white" font-size="7" font-weight="bold">4</text>
      <text x="22" y="11" fill="#6D28D9" font-size="9">Can refer to RPT</text>
    </g>
    <g transform="translate(15, 140)">
      <text x="0" y="11" fill="#F59E0B" font-size="9" font-weight="bold">Tribunal can decide</text>
    </g>
  </g>

  <!-- Arrears and consequences -->
  <g transform="translate(60, 275)">
    <rect x="0" y="0" width="680" height="170" rx="12" fill="white" stroke="#7C3AED" stroke-width="2"/>
    <rect x="0" y="0" width="680" height="32" rx="12" fill="#7C3AED"/>
    <rect x="0" y="20" width="680" height="12" fill="#7C3AED"/>
    <text x="340" y="22" text-anchor="middle" fill="white" font-size="10" font-weight="bold">RENT ARREARS AND CONSEQUENCES</text>
    <g transform="translate(20, 48)">
      <rect x="0" y="0" width="200" height="105" rx="8" fill="#F59E0B" opacity="0.1"/>
      <text x="100" y="20" text-anchor="middle" fill="#F59E0B" font-size="10" font-weight="bold">ARREARS GROUNDS</text>
      <text x="100" y="42" text-anchor="middle" fill="#6D28D9" font-size="8">8+ weeks = mandatory</text>
      <text x="100" y="55" text-anchor="middle" fill="#6D28D9" font-size="8">Any amount = discretionary</text>
      <text x="100" y="75" text-anchor="middle" fill="#6D28D9" font-size="8">1 month notice required</text>
      <text x="100" y="94" text-anchor="middle" fill="#F59E0B" font-size="8" font-weight="bold">Pay to avoid court</text>
    </g>
    <g transform="translate(240, 48)">
      <rect x="0" y="0" width="200" height="105" rx="8" fill="#7C3AED" opacity="0.1"/>
      <text x="100" y="20" text-anchor="middle" fill="#7C3AED" font-size="10" font-weight="bold">PAYMENT OPTIONS</text>
      <text x="100" y="42" text-anchor="middle" fill="#6D28D9" font-size="8">Bank transfer</text>
      <text x="100" y="55" text-anchor="middle" fill="#6D28D9" font-size="8">Standing order</text>
      <text x="100" y="75" text-anchor="middle" fill="#6D28D9" font-size="8">Direct debit</text>
      <text x="100" y="94" text-anchor="middle" fill="#7C3AED" font-size="8" font-weight="bold">Keep records</text>
    </g>
    <g transform="translate(460, 48)">
      <rect x="0" y="0" width="200" height="105" rx="8" fill="#22C55E" opacity="0.1"/>
      <text x="100" y="20" text-anchor="middle" fill="#22C55E" font-size="10" font-weight="bold">TENANT HELP</text>
      <text x="100" y="42" text-anchor="middle" fill="#6D28D9" font-size="8">Universal Credit</text>
      <text x="100" y="55" text-anchor="middle" fill="#6D28D9" font-size="8">Housing Benefit</text>
      <text x="100" y="75" text-anchor="middle" fill="#6D28D9" font-size="8">Discretionary payments</text>
      <text x="100" y="94" text-anchor="middle" fill="#22C55E" font-size="8" font-weight="bold">Speak to landlord early</text>
    </g>
  </g>

  <circle cx="40" cy="40" r="20" fill="#7C3AED" opacity="0.1"/>
  <circle cx="760" cy="460" r="25" fill="#A78BFA" opacity="0.12"/>
</svg>
