<svg viewBox="0 0 800 500" xmlns="http://www.w3.org/2000/svg">
  <defs>
    <linearGradient id="bgGrad" x1="0%" y1="0%" x2="100%" y2="100%">
      <stop offset="0%" style="stop-color:#F3F1FF"/>
      <stop offset="100%" style="stop-color:#E9E5FF"/>
    </linearGradient>
  </defs>
  <rect width="800" height="500" fill="url(#bgGrad)"/>

  <!-- Title -->
  <text x="400" y="35" text-anchor="middle" fill="#7C3AED" font-size="22" font-weight="bold" font-family="Arial">RENT RULES - WALES</text>
  <text x="400" y="55" text-anchor="middle" fill="#6D28D9" font-size="11" font-family="Arial">Rent payments and increases under Welsh law</text>

  <!-- Money/rent icon -->
  <g transform="translate(60, 80)">
    <rect x="0" y="0" width="200" height="175" rx="12" fill="white" stroke="#22C55E" stroke-width="2"/>

    <g transform="translate(35, 10)">
      <!-- Pound coins stack -->
      <ellipse cx="65" cy="85" rx="45" ry="12" fill="#F59E0B"/>
      <rect x="20" y="73" width="90" height="12" fill="#F59E0B"/>
      <ellipse cx="65" cy="73" rx="45" ry="12" fill="#FCD34D"/>
      <rect x="20" y="61" width="90" height="12" fill="#F59E0B"/>
      <ellipse cx="65" cy="61" rx="45" ry="12" fill="#FCD34D"/>
      <rect x="20" y="49" width="90" height="12" fill="#F59E0B"/>
      <ellipse cx="65" cy="49" rx="45" ry="12" fill="#FCD34D"/>
      <!-- Pound symbol on top coin -->
      <text x="65" y="54" text-anchor="middle" fill="#F59E0B" font-size="14" font-weight="bold">£</text>
    </g>

    <text x="100" y="125" text-anchor="middle" fill="#22C55E" font-size="11" font-weight="bold">RENT</text>
    <text x="100" y="143" text-anchor="middle" fill="#6D28D9" font-size="9">Payment rules</text>
    <text x="100" y="158" text-anchor="middle" fill="#6D28D9" font-size="9">and obligations</text>
  </g>

  <!-- Rent basics -->
  <g transform="translate(280, 80)">
    <rect x="0" y="0" width="240" height="175" rx="12" fill="white" stroke="#7C3AED" stroke-width="2"/>
    <rect x="0" y="0" width="240" height="32" rx="12" fill="#7C3AED"/>
    <rect x="0" y="20" width="240" height="12" fill="#7C3AED"/>
    <text x="120" y="22" text-anchor="middle" fill="white" font-size="10" font-weight="bold">RENT BASICS</text>

    <g transform="translate(15, 45)">
      <rect x="0" y="0" width="14" height="14" rx="3" fill="#22C55E"/>
      <path d="M3 7 L6 10 L11 4" stroke="white" stroke-width="2" fill="none"/>
      <text x="22" y="11" fill="#6D28D9" font-size="9">Amount in written statement</text>
    </g>
    <g transform="translate(15, 68)">
      <rect x="0" y="0" width="14" height="14" rx="3" fill="#22C55E"/>
      <path d="M3 7 L6 10 L11 4" stroke="white" stroke-width="2" fill="none"/>
      <text x="22" y="11" fill="#6D28D9" font-size="9">Payment date specified</text>
    </g>
    <g transform="translate(15, 91)">
      <rect x="0" y="0" width="14" height="14" rx="3" fill="#22C55E"/>
      <path d="M3 7 L6 10 L11 4" stroke="white" stroke-width="2" fill="none"/>
      <text x="22" y="11" fill="#6D28D9" font-size="9">Payment method agreed</text>
    </g>
    <g transform="translate(15, 114)">
      <rect x="0" y="0" width="14" height="14" rx="3" fill="#7C3AED"/>
      <path d="M3 7 L6 10 L11 4" stroke="white" stroke-width="2" fill="none"/>
      <text x="22" y="11" fill="#6D28D9" font-size="9">Provide rent receipts</text>
    </g>
    <g transform="translate(15, 137)">
      <rect x="0" y="0" width="14" height="14" rx="3" fill="#7C3AED"/>
      <path d="M3 7 L6 10 L11 4" stroke="white" stroke-width="2" fill="none"/>
      <text x="22" y="11" fill="#6D28D9" font-size="9">Keep payment records</text>
    </g>
  </g>

  <!-- Rent increases -->
  <g transform="translate(540, 80)">
    <rect x="0" y="0" width="200" height="175" rx="12" fill="white" stroke="#F59E0B" stroke-width="2"/>
    <rect x="0" y="0" width="200" height="32" rx="12" fill="#F59E0B"/>
    <rect x="0" y="20" width="200" height="12" fill="#F59E0B"/>
    <text x="100" y="22" text-anchor="middle" fill="white" font-size="10" font-weight="bold">RENT INCREASES</text>

    <g transform="translate(15, 48)">
      <circle cx="7" cy="7" r="5" fill="#F59E0B"/>
      <text x="7" y="10" text-anchor="middle" fill="white" font-size="7" font-weight="bold">1</text>
      <text x="22" y="11" fill="#6D28D9" font-size="9">Once per year max</text>
    </g>
    <g transform="translate(15, 71)">
      <circle cx="7" cy="7" r="5" fill="#F59E0B"/>
      <text x="7" y="10" text-anchor="middle" fill="white" font-size="7" font-weight="bold">2</text>
      <text x="22" y="11" fill="#6D28D9" font-size="9">2 months written notice</text>
    </g>
    <g transform="translate(15, 94)">
      <circle cx="7" cy="7" r="5" fill="#7C3AED"/>
      <text x="7" y="10" text-anchor="middle" fill="white" font-size="7" font-weight="bold">3</text>
      <text x="22" y="11" fill="#6D28D9" font-size="9">Prescribed form required</text>
    </g>
    <g transform="translate(15, 117)">
      <circle cx="7" cy="7" r="5" fill="#7C3AED"/>
      <text x="7" y="10" text-anchor="middle" fill="white" font-size="7" font-weight="bold">4</text>
      <text x="22" y="11" fill="#6D28D9" font-size="9">Market rate must apply</text>
    </g>
    <g transform="translate(15, 140)">
      <text x="0" y="11" fill="#F59E0B" font-size="9" font-weight="bold">Tenant can challenge</text>
    </g>
  </g>

  <!-- Arrears and disputes -->
  <g transform="translate(60, 275)">
    <rect x="0" y="0" width="680" height="170" rx="12" fill="white" stroke="#7C3AED" stroke-width="2"/>
    <rect x="0" y="0" width="680" height="32" rx="12" fill="#7C3AED"/>
    <rect x="0" y="20" width="680" height="12" fill="#7C3AED"/>
    <text x="340" y="22" text-anchor="middle" fill="white" font-size="10" font-weight="bold">ARREARS AND DISPUTES</text>

    <g transform="translate(20, 48)">
      <rect x="0" y="0" width="200" height="105" rx="8" fill="#EF4444" opacity="0.1"/>
      <text x="100" y="20" text-anchor="middle" fill="#EF4444" font-size="10" font-weight="bold">RENT ARREARS</text>
      <text x="100" y="42" text-anchor="middle" fill="#6D28D9" font-size="8">2+ months = mandatory ground</text>
      <text x="100" y="55" text-anchor="middle" fill="#6D28D9" font-size="8">Under 2 months = discretionary</text>
      <text x="100" y="75" text-anchor="middle" fill="#6D28D9" font-size="8">Document everything</text>
      <text x="100" y="94" text-anchor="middle" fill="#EF4444" font-size="8" font-weight="bold">Act early on arrears</text>
    </g>

    <g transform="translate(240, 48)">
      <rect x="0" y="0" width="200" height="105" rx="8" fill="#7C3AED" opacity="0.1"/>
      <text x="100" y="20" text-anchor="middle" fill="#7C3AED" font-size="10" font-weight="bold">TRIBUNAL</text>
      <text x="100" y="42" text-anchor="middle" fill="#6D28D9" font-size="8">Tenant can refer increase</text>
      <text x="100" y="55" text-anchor="middle" fill="#6D28D9" font-size="8">Residential Property Tribunal</text>
      <text x="100" y="75" text-anchor="middle" fill="#6D28D9" font-size="8">Sets market rent level</text>
      <text x="100" y="94" text-anchor="middle" fill="#7C3AED" font-size="8" font-weight="bold">Decision is binding</text>
    </g>

    <g transform="translate(460, 48)">
      <rect x="0" y="0" width="200" height="105" rx="8" fill="#22C55E" opacity="0.1"/>
      <text x="100" y="20" text-anchor="middle" fill="#22C55E" font-size="10" font-weight="bold">BEST PRACTICE</text>
      <text x="100" y="42" text-anchor="middle" fill="#6D28D9" font-size="8">Clear payment terms</text>
      <text x="100" y="55" text-anchor="middle" fill="#6D28D9" font-size="8">Regular communication</text>
      <text x="100" y="75" text-anchor="middle" fill="#6D28D9" font-size="8">Payment plans if struggling</text>
      <text x="100" y="94" text-anchor="middle" fill="#22C55E" font-size="8" font-weight="bold">Keep accurate records</text>
    </g>
  </g>

  <circle cx="40" cy="40" r="20" fill="#7C3AED" opacity="0.1"/>
  <circle cx="760" cy="460" r="25" fill="#A78BFA" opacity="0.12"/>
</svg>
